<svg width="653" height="653" viewBox="0 0 653 653" fill="none" xmlns="http://www.w3.org/2000/svg">
<path d="M453.41 486.256L469.013 496.496C481.027 477.846 504.148 459.714 522.092 453.728L519.969 433.866C494.713 441.782 468.027 463.25 453.41 486.256Z" fill="#4DCE80"/>
<path d="M421.464 473.473L439.427 479.952C462.742 441.046 501.272 412.549 543.773 404.364L540.184 385.182C490 395.235 447.134 426.844 421.464 473.473Z" fill="#4DCE80"/>
<path d="M357.664 478.708L375.609 474.284C336.216 347.586 242.467 251.816 114.762 214.003L110.127 232.778C235.392 268.705 323.059 367.324 357.664 478.708Z" fill="#4DCE80"/>
<path d="M254.569 479.829L272.897 474.512C242.647 407.727 182.244 360.941 111.64 347.858L109.012 366.733C172.371 378.723 226.606 420.367 254.569 479.829Z" fill="#4DCE80"/>
<path d="M110.931 389.448L108.212 408.492C152.818 415.171 191.7 441.044 216.007 479.876L233.142 471.86C206.025 427.017 161.814 397.089 110.931 389.448Z" fill="#4DCE80"/>
<path d="M125.289 433.692L122.989 452.761C149.012 459.784 172.115 475.891 188.63 498.322L204.378 488.95C184.925 461.371 156.877 441.758 125.289 433.692Z" fill="#4DCE80"/>
<path d="M400.335 441.76L393.686 424.397C433.329 363.129 496.852 322.797 567 313.532L562.304 294.45C491.53 304.459 427.161 343.872 384.666 403.647L376.861 387.596C420.901 325.672 485.654 283.585 557.566 269.67L552.992 251.02C479.614 265.54 413.267 307.515 366.867 369.264L356.465 351.926C402.963 292.276 466.128 249.62 536.951 229.289L530.832 210.764C458.421 231.795 393.711 275.006 345.364 335.225C345.364 335.225 335.516 321.735 335.467 321.648C384.209 260.648 449.15 214.213 521.415 188.227L514.864 169.908C492.929 177.824 471.639 187.608 451.219 198.967C462.32 175.037 475.806 151.738 491.554 132.132L477.083 119.773C454.856 147.54 436.869 181.898 423.572 215.731C415.336 221.123 407.318 226.815 399.465 232.751C412.422 185.009 434.047 138.311 463.086 100.823L447.362 89.964C412.325 135.9 387.671 194.144 375.486 252.263C368.242 258.593 361.179 265.159 354.342 271.976C362.426 206.428 389.088 138.493 417.574 91.2261L401.394 81.3104C371.058 131.995 339.439 209.827 333.277 294.475C329.877 298.349 326.55 302.291 323.289 306.303C321.397 303.991 319.463 301.704 317.516 299.424C320.381 214.694 345.358 129.689 389.879 60.4545L373.364 50.8325C330.777 117.824 305.594 198.499 299.84 280.105C298.367 278.593 284.304 264.616 284.304 264.616C290.679 187.346 312.34 113.026 347.286 50.8325L330.923 41.2729C296.762 102.304 274.839 174.319 266.955 249.52C262.211 245.559 257.381 241.717 252.484 237.955C259.96 173.707 274.65 115.531 296.786 64.6594L280.934 53.8628C272.144 73.7503 264.48 94.7 257.898 116.643C250.325 101.061 241.486 86.2401 231.419 72.3195L217.386 85.5779C230.598 104.028 241.541 124.178 250.002 145.647C247.131 157.249 244.54 169.095 242.247 181.179C232.198 150.245 216.595 120.354 196.017 95.7684L182.099 108.877C207.714 140.317 227.55 184.11 235.701 221.479C235.549 222.766 235.373 224.041 235.209 225.328C228.554 220.729 221.778 216.287 214.904 212.07C204.052 178.742 183.389 143.222 163.151 119.105L150.395 133.663C165.255 151.682 178.066 173.388 188.662 197.23C168.844 186.902 148.29 178.086 127.164 170.989L122.56 189.783C241.693 230.451 347.006 327.815 390.408 471.738L405.889 471.076C434.113 413.613 486.007 373.757 546.288 361.373L542.724 342.191C479.565 355.244 430.245 394.019 400.335 441.76Z" fill="#4DCE80"/>
<path d="M349.393 551.858C348.48 541.643 347.903 508.278 347.659 497.638C315.852 378.344 228.002 283.355 97.1046 256.02L93.6191 274.901C180.611 292.065 283.43 354.995 324.891 486.41L313.929 490.34C280.869 388.116 192.588 313.408 89.0265 299.725L85.6748 318.769C207.308 334.308 290.231 438.106 298.716 513.87C299.324 519.312 299.616 544.767 298.595 554.314C296.49 574.076 289.689 577.019 285.474 579.543C268.016 590.034 219.334 595.426 219.334 595.426V612.296C243.769 612.196 281.927 608.216 328.249 608.216C374.436 608.216 411.615 612.246 433.021 612.246V595.426C433.021 595.426 394.224 588.378 366.875 579.568C351.753 573.058 350.816 567.816 349.393 551.858Z" fill="#4DCE80"/>
</svg>
