<svg width="653" height="653" viewBox="0 0 653 653" fill="none" xmlns="http://www.w3.org/2000/svg">
<path d="M280.751 191.326C50.656 318.078 462.697 243.037 608.153 288.129C610.955 289.026 613.478 289.98 616 290.989C609.514 239.34 589.309 190.376 557.489 149.193C525.669 108.01 483.398 76.1141 435.076 56.8268C386.755 37.5395 334.149 31.5656 282.736 39.5271C231.324 47.4886 182.984 69.0944 142.75 102.095C288.654 116.172 372.452 140.682 280.751 191.326Z" fill="#2F80ED"/>
<path d="M474.972 325.198C324.079 265.524 -47.2677 325.198 178.231 197.38C267.915 146.511 224.306 125.872 132.212 110.954C99.8449 140.153 74.4464 176.254 57.8923 216.591C41.3381 256.928 34.0511 300.471 36.5692 344.003C39.0873 387.536 51.3463 429.947 72.4409 468.104C93.5355 506.26 122.927 539.189 158.444 564.457C433.157 460.475 576.987 365.523 474.972 325.198Z" fill="#2F80ED"/>
<path d="M327.052 618.412C398.132 618.4 466.75 592.36 519.96 545.204C573.169 498.049 607.292 433.039 615.89 362.44C557.147 422.507 395.099 504.896 170.554 572.759C217.285 602.634 271.597 618.478 327.052 618.412Z" fill="#2F80ED"/>
<path d="M574.137 92.9491C574.107 97.2039 572.401 101.275 569.389 104.278C566.377 107.282 562.302 108.975 558.05 108.989C555.934 109.019 553.833 108.626 551.871 107.831C549.91 107.036 548.127 105.857 546.628 104.362C545.128 102.867 543.943 101.087 543.142 99.1272C542.341 97.1672 541.94 95.0666 541.963 92.9491C541.992 88.6996 543.7 84.6342 546.714 81.6397C549.728 78.6453 553.803 76.9649 558.05 76.965C560.161 76.9351 562.257 77.3272 564.215 78.1185C566.173 78.9098 567.954 80.0842 569.452 81.573C570.95 83.0617 572.136 84.8348 572.941 86.7883C573.745 88.7418 574.152 90.8364 574.137 92.9491V92.9491ZM546.391 92.9491C546.375 96.0791 547.588 99.0902 549.769 101.335C551.949 103.579 554.922 104.878 558.05 104.951C560.404 104.996 562.719 104.339 564.7 103.065C566.681 101.791 568.238 99.9561 569.175 97.7944C570.112 95.6326 570.386 93.2411 569.962 90.9233C569.539 88.6055 568.436 86.4659 566.795 84.7763C565.153 83.0866 563.047 81.9231 560.744 81.4332C558.44 80.9434 556.043 81.1494 553.857 82.0251C551.671 82.9008 549.794 84.4067 548.465 86.3517C547.135 88.2967 546.414 90.593 546.391 92.9491V92.9491ZM560.404 101.306L556.536 94.3513H556.256V101.306H552.669V84.4803H558.274C562.366 84.4803 563.879 86.219 563.879 88.855C563.974 89.9894 563.623 91.116 562.901 91.9957C562.179 92.8753 561.142 93.4387 560.012 93.5661C560.54 94.2741 561.008 95.0245 561.413 95.8095L564.552 101.138L560.404 101.306ZM557.77 87.3968H556.256V91.9957H557.265C559.563 91.9957 560.348 90.7058 560.348 89.4719C560.348 88.238 559.675 87.3406 557.77 87.3406V87.3968Z" fill="white"/>
</svg>
