<svg width="653" height="653" viewBox="0 0 653 653" fill="none" xmlns="http://www.w3.org/2000/svg">
<g clip-path="url(#clip0_2679_20436)">
<path d="M170.435 247.879C170.446 250.728 169.279 253.454 167.213 255.408C165.135 257.497 162.291 258.635 159.35 258.556C156.53 258.472 153.846 257.317 151.842 255.326C143.96 247.422 131.01 244.254 122.548 244.293C109.679 244.293 99.6148 248.71 92.3521 257.543C85.0898 266.377 81.4497 278.916 81.4319 295.161V411.707C81.655 414.787 80.3969 417.788 78.0466 419.783C75.9952 421.514 73.4105 422.481 70.7296 422.521C68.0489 422.481 65.4642 421.514 63.4127 419.783C61.0586 417.791 59.7998 414.788 60.0273 411.707V295.161C59.955 285.646 61.2797 276.172 63.9585 267.045C66.3833 258.717 70.3877 250.936 75.7529 244.13C80.9918 237.509 87.6431 232.149 95.2188 228.443C103.759 224.455 113.102 222.498 122.52 222.721C130.596 222.861 138.582 224.437 146.109 227.376C153.863 230.125 160.931 234.524 166.83 240.271C169.024 242.203 170.327 244.956 170.434 247.881L170.435 247.879Z" fill="#535556"/>
<path d="M223.998 411.702C224.108 413.221 223.859 414.744 223.27 416.147C222.682 417.551 221.772 418.795 220.613 419.779C218.565 421.521 215.967 422.477 213.282 422.477C210.597 422.477 207.999 421.521 205.952 419.779C204.791 418.796 203.879 417.552 203.291 416.149C202.702 414.745 202.454 413.221 202.566 411.702V237.123C202.456 235.604 202.706 234.081 203.294 232.678C203.882 231.274 204.793 230.03 205.952 229.046C208.002 227.309 210.599 226.356 213.282 226.356C215.966 226.356 218.563 227.309 220.613 229.046C221.77 230.031 222.679 231.276 223.267 232.679C223.855 234.082 224.106 235.604 223.998 237.123V411.702Z" fill="#535556"/>
<path d="M409.826 411.703C409.933 413.223 409.679 414.748 409.086 416.151C408.493 417.555 407.577 418.798 406.413 419.779C404.368 421.514 401.775 422.466 399.096 422.466C396.417 422.466 393.825 421.514 391.78 419.779C390.619 418.797 389.707 417.553 389.119 416.149C388.53 414.745 388.282 413.221 388.394 411.703V292.666C388.439 286.204 387.156 279.802 384.626 273.858C379.713 262.243 370.492 252.996 358.909 248.069C352.965 245.587 346.59 244.309 340.152 244.309C333.714 244.309 327.339 245.587 321.396 248.069C309.814 252.998 300.594 262.244 295.678 273.858C293.163 279.805 291.89 286.207 291.938 292.666V411.703C292.05 413.221 291.801 414.745 291.213 416.149C290.625 417.553 289.713 418.797 288.552 419.779C286.505 421.521 283.907 422.477 281.222 422.477C278.536 422.477 275.939 421.521 273.891 419.779C272.731 418.797 271.819 417.553 271.23 416.149C270.642 414.745 270.394 413.221 270.506 411.703V292.666C270.436 283.306 272.295 274.032 275.966 265.426C279.444 257.133 284.476 249.587 290.79 243.196C297.08 236.915 304.488 231.873 312.632 228.331C321.266 224.652 330.552 222.755 339.933 222.755C349.315 222.755 358.601 224.652 367.235 228.331C383.958 235.304 397.249 248.631 404.202 265.4C407.869 274.008 409.727 283.281 409.662 292.641L409.826 411.703Z" fill="#535556"/>
<path d="M592.001 424.239C592.094 433.646 590.235 442.969 586.54 451.616C579.487 468.309 566.185 481.559 549.493 488.521C540.909 492.196 531.663 494.06 522.329 493.997C517.047 493.966 511.781 493.427 506.603 492.381C501.001 491.292 495.516 489.669 490.222 487.536C484.912 485.416 479.879 482.658 475.233 479.323C470.826 476.209 467.015 472.323 463.985 467.852C462.762 466.057 462.141 463.919 462.211 461.747C462.133 458.804 463.375 455.981 465.596 454.054C467.668 452.086 470.414 450.989 473.268 450.988C474.794 451.01 476.304 451.315 477.718 451.891C479.465 452.654 480.914 453.972 481.84 455.642C486.086 462.054 495.249 467.128 501.306 469.084C508.046 471.316 515.094 472.471 522.192 472.506C528.636 472.549 535.02 471.263 540.948 468.728C552.532 463.801 561.753 454.554 566.666 442.939C569.23 437.039 570.559 430.675 570.57 424.24V399.601C564.244 405.656 556.833 410.459 548.729 413.755C540.35 417.226 531.367 418.994 522.301 418.956C512.92 419.053 503.621 417.188 494.999 413.481C478.43 406.421 465.238 393.191 458.197 376.576C454.496 367.931 452.637 358.606 452.736 349.199V292.666C452.667 283.306 454.526 274.031 458.197 265.426C461.67 257.13 466.703 249.583 473.021 243.196C479.31 236.915 486.719 231.873 494.862 228.33C512.308 220.896 532.02 220.896 549.466 228.33C566.19 235.3 579.481 248.628 586.433 265.4C590.099 274.008 591.958 283.28 591.893 292.64V424.239L592.001 424.239ZM570.569 292.666C570.613 286.204 569.331 279.801 566.801 273.858C561.888 262.242 552.667 252.995 541.083 248.069C529.079 243.055 515.576 243.055 503.57 248.069C491.954 252.971 482.693 262.208 477.744 273.83C475.233 279.779 473.96 286.179 474.003 292.639V348.9C473.941 355.405 475.214 361.854 477.744 367.844C480.184 373.602 483.706 378.835 488.118 383.257C492.524 387.682 497.744 391.206 503.489 393.634C515.493 398.647 528.996 398.647 541.002 393.634C552.585 388.706 561.807 379.46 566.72 367.844C569.296 361.865 570.607 355.414 570.569 348.9L570.569 292.666Z" fill="#535556"/>
<path d="M213.296 196.74C223.414 196.74 231.615 188.516 231.615 178.37C231.615 168.225 223.414 160 213.296 160C203.178 160 194.977 168.225 194.977 178.37C194.977 188.516 203.178 196.74 213.296 196.74Z" fill="#1C9AD6"/>
</g>
<defs>
<clipPath id="clip0_2679_20436">
<rect width="532" height="334" fill="white" transform="translate(60 160)"/>
</clipPath>
</defs>
</svg>
