<svg width="653" height="653" viewBox="0 0 653 653" fill="none" xmlns="http://www.w3.org/2000/svg">
<path d="M548.938 221.243C548.938 202.792 533.909 187.815 515.392 187.815C510.054 187.815 504.992 189.076 500.518 191.29C498.265 186.339 495.888 181.48 493.389 176.713C518.417 175.944 538.507 155.494 538.507 130.338C538.507 105.182 517.645 83.9318 491.938 83.9318C471.879 83.9318 454.813 96.5712 448.24 114.254C411.978 77.6582 366.089 55.793 316.218 55.793C198.67 55.793 103.372 177.236 103.372 327.064C103.372 378.083 114.451 425.78 133.677 466.528C134.109 467.481 134.572 468.404 135.035 469.326C135.313 469.88 135.56 470.433 135.837 470.987C173.487 547.469 240.177 598.334 316.249 598.334C347.171 598.334 376.52 589.877 403.029 574.747V574.809C433.025 557.71 459.319 532.031 480.026 500.233H480.088C480.921 498.941 481.723 497.619 482.526 496.297C482.927 495.682 483.328 495.066 483.699 494.451C512.121 448.353 529.095 390.23 529.095 327.064C529.095 301.816 526.379 277.367 521.318 254.149C537.057 251.381 549 237.696 549 221.243H548.938Z" fill="#BDA888"/>
<path d="M479.685 484.302C505.638 440.572 521.1 386.139 521.1 327.063C521.1 301.907 518.291 277.582 513.107 254.579C495.67 253.379 481.907 238.926 481.907 221.243C481.907 211.156 486.381 202.114 493.479 195.995C490.332 189.106 486.968 182.433 483.357 175.944C461.755 171.915 445.398 153.033 445.398 130.337C445.398 128.431 445.522 126.555 445.738 124.71C410.433 87.9599 365.346 65.9102 316.216 65.9102C203.081 65.9409 111.332 182.863 111.332 327.063C111.332 376.668 122.226 423.043 141.082 462.56H141.051C141.514 463.544 142.008 464.498 142.501 465.482C142.779 466.035 143.026 466.589 143.304 467.142C179.657 539.904 243.508 588.216 316.216 588.216C330.875 588.216 345.132 586.187 358.927 582.465V582.527C359.606 582.342 360.254 582.127 360.933 581.943C361.828 581.697 362.723 581.389 363.618 581.143C409.724 567.212 449.812 533.446 477.987 487.255C478.08 487.101 478.172 486.916 478.265 486.763C478.759 485.963 479.283 485.164 479.746 484.364H479.654L479.685 484.302ZM361.056 562.046C360.254 562.353 359.452 562.599 358.649 562.876C357.26 563.368 355.872 563.829 354.452 564.26C342.139 568.104 329.362 570.164 316.216 570.164C254.155 570.164 199.717 525.142 168.702 457.363C168.362 456.625 167.992 455.887 167.653 455.118C166.912 453.427 166.171 451.735 165.431 450.013C150.186 413.94 141.452 371.932 141.452 327.063C141.452 192.796 219.715 83.9621 316.247 83.9621C397.04 83.9621 465.026 160.229 485.054 263.805C491.844 268.602 496.257 276.475 496.257 285.362C496.257 291.759 493.942 297.664 490.146 302.246C490.733 310.395 491.041 318.668 491.041 327.032C491.041 383.464 477.216 435.405 454.009 476.645C452.99 478.429 451.972 480.212 450.953 481.935C450.892 482.058 450.799 482.15 450.737 482.273C450.706 482.334 450.645 482.396 450.614 482.488C427.746 520.652 396.639 548.914 361.087 561.984L361.056 562.046Z" fill="#1F3521"/>
<path d="M260.106 195.799L368.615 198.813L398.756 271.152V346.505H260.106V195.799Z" fill="#E8C5AA"/>
<path d="M332.729 311.84C336.216 312.086 339.888 312.27 343.653 312.332L338.777 304.982L332.729 311.84Z" fill="white"/>
<path d="M359.572 258.055C359.572 265.067 365.312 270.787 372.349 270.787C379.385 270.787 385.125 265.067 385.125 258.055C385.125 251.044 379.385 245.324 372.349 245.324C365.312 245.324 359.572 251.044 359.572 258.055ZM376.669 254.673C378.552 254.673 380.095 256.21 380.095 258.086C380.095 259.962 378.552 261.5 376.669 261.5C374.787 261.5 373.244 259.962 373.244 258.086C373.244 256.21 374.787 254.673 376.669 254.673Z" fill="white"/>
<path d="M311.677 309.382C315.565 310.028 320.441 310.704 325.996 311.258L319.639 299.233L311.677 309.382Z" fill="white"/>
<path d="M399.345 380.789C392.34 375.377 391.26 369.749 391.229 369.472L391.044 368.334L392 367.688C397.216 364.182 398.975 360.707 399.561 359.139C395.611 355.541 394.13 350.959 393.605 347.637C393.667 345.546 394.006 342.502 395.642 340.072C395.487 341.917 395.704 343.855 396.475 345.516C400.086 346.407 402.061 346.131 403.017 345.762C400.425 338.934 401.258 334.291 402.4 327.986L402.678 326.357C398.944 322.666 395.395 319.991 392.185 318.146C392.463 326.203 388.112 332.169 379.903 334.844C379.409 335.767 378.854 336.751 378.144 337.797C376.385 339.795 374.132 340.841 372.064 342.533C372.651 340.165 374.225 338.012 375.212 335.798C376.169 334.383 376.879 333.091 377.341 331.984C365.182 338.504 352.313 340.749 340.37 340.749C317.626 340.749 298.153 332.63 292.783 330.17C292.197 331.092 291.518 332.046 290.716 333.061C288.617 334.967 286.056 335.552 283.371 335.398C285.161 334.137 286.827 332.569 287.969 330.846C289.852 328.571 290.963 326.387 291.611 324.911C273.248 322.605 263.867 313.686 263.466 313.287L262.17 312.026L272.076 302.462C269.329 298.771 268.496 294.312 268.465 294.097L268.156 292.436L269.792 292.067C272.014 291.544 273.434 290.683 274.267 290.007C263.527 278.167 262.941 265.62 262.91 265.066L262.818 262.206L265.441 263.405C268.99 265.005 272.014 265.128 273.835 264.974C269.885 251.996 275.686 238.25 277.939 233.698C274.483 231.484 272.384 228.716 271.736 225.487C270.564 219.706 274.483 214.662 274.668 214.447L276.088 212.663L277.476 214.478C277.692 214.785 282.661 221.059 292.197 221.059C292.32 221.059 292.444 221.059 292.567 221.059C291.086 218.814 289.358 215.124 288.833 209.803L288.586 206.482L290.407 206.42C290.654 206.39 297.042 206.205 300.622 212.264C301.054 213.002 301.517 213.801 301.949 214.57C303.986 218.107 306.208 222.012 308.646 224.319C309.263 222.227 310.312 219.337 311.824 217.399L313.614 215.124L314.849 217.738C314.941 217.953 324.23 237.296 347.067 247.291C346.049 242.217 344.475 232.314 345.894 224.011L346.635 219.767L349.104 223.304C349.104 223.304 351.264 226.379 354.566 227.947C354.937 224.841 355.862 218.968 357.621 212.971C358.732 211.218 360.492 209.034 362.497 208.173C361.633 209.311 361.356 210.757 361.109 212.11C363.176 212.048 366.293 212.171 368.577 213.401L369.04 213.74C369.472 214.17 379.07 224.349 380.15 239.326L387.649 239.664L387.495 243.201L377.588 242.74C384.038 244.923 388.698 250.951 388.698 258.085C388.698 261.622 387.556 264.851 385.612 267.526C386.013 270.725 386.661 275.399 387.063 276.691C387.556 278.29 388.482 281.273 394.346 281.826L395.673 281.949L395.92 283.241C396.722 287.393 395.92 296.188 387.772 300.832C387.927 302.216 388.39 304.768 389.501 307.597C393.389 308.551 397.555 310.088 401.444 312.548C402.339 313.133 403.234 313.717 404.098 314.301C404.499 304.737 402.894 298.833 402.863 298.771L402.215 296.557H404.53C409.097 296.434 410.671 294.497 411.196 293.389C401.567 281.427 398.234 266.758 396.629 259.623C396.352 258.424 396.136 257.409 395.92 256.671C395.364 254.579 394.994 251.965 394.593 249.198C393.944 244.523 393.204 239.203 391.29 234.498C390.087 231.484 388.266 228.593 386.137 225.272C382.927 220.198 379.286 214.416 376.323 206.051C372.465 195.073 376.292 189.722 378.792 187.538C367.836 173.761 359.936 169.425 349.999 163.982C348.24 163.028 346.419 162.013 344.537 160.937C334.322 155.094 322.348 143.193 317.287 137.903C316.824 141.87 317.225 145.007 317.719 147.098L316.916 147.283C317.194 147.221 317.719 147.098 317.719 147.098C317.904 149.343 319.138 151.588 320.064 153.679C318.984 152.941 317.935 152.203 316.885 151.404C315.682 150.543 314.818 149.374 314.262 147.898C313.861 146.206 313.676 144.392 313.614 142.516C297.443 133.967 285.161 121.573 280.964 117.053C275.81 125.356 273.434 137.319 272.878 140.486C273.341 141.04 273.804 141.624 274.298 142.301C275.316 144.915 275.748 147.806 275.81 150.573C274.977 148.697 272.724 145.653 271.921 144.823L271.397 144.392C269.946 142.393 268.65 141.132 267.724 140.363C265.965 148.328 258.929 173.3 236.895 195.042C239.425 194.857 242.696 194.335 245.536 193.104C248.19 192.336 250.905 191.536 253.251 190.029C251.677 192.52 249.424 194.704 246.955 196.334C246.955 196.334 246.924 196.241 246.863 196.088L246.986 196.334C245.104 197.133 243.129 197.687 241.246 198.025C240.042 199.87 223.717 225.61 219.181 266.235C221.248 265.62 223.902 265.466 226.772 266.696C227.019 265.958 227.235 265.312 227.451 264.697C229.118 262.145 230.661 258.762 233.315 256.64C231.864 259.131 231.309 262.022 230.908 264.789L230.815 265.896C227.513 275.153 219.983 300.001 220.415 334.352L224.55 332.784C224.55 332.476 224.612 332.169 224.612 331.861C225.137 329.401 226.032 327.002 227.606 324.665C227.297 327.464 227.822 329.463 228.161 332.077C227.76 338.043 226.495 351.851 223.347 358.339C224.705 359.108 227.328 360.092 231.278 359.939C231.617 359.262 231.926 358.555 232.111 357.817C233.13 355.479 234.117 352.466 234.086 349.759C235.29 352.619 235.629 355.51 235.537 358.709C234.055 364.275 228.501 368.918 225.322 371.194C229.241 373.593 238.098 378.237 248.159 378.329C254.022 378.452 258.127 377.898 261.737 377.468C266.768 376.853 271.119 376.361 277.816 377.745C288.216 379.897 294.172 384.91 299.943 390.845C301.949 389 306.115 385.833 312.195 384.11C312.009 383.68 311.855 383.311 311.732 383.003C311.145 380.543 310.281 377.991 309.263 375.653C311.269 377.406 313.46 379.313 314.972 381.527C316.114 384.049 317.996 388.785 318.83 394.474C325.712 391.03 346.08 382.327 362.96 389.953C364.102 388.139 366.232 384.51 367.713 380.451C368.546 379.098 369.781 376.391 372.095 375.407C370.768 377.345 371.138 379.067 371.046 381.22C386.106 386.14 395.518 382.788 399.376 380.728L399.345 380.789Z" fill="#5A3714"/>
<path d="M291.331 258.055C291.331 265.067 297.071 270.787 304.107 270.787C311.144 270.787 316.884 265.067 316.884 258.055C316.884 251.044 311.144 245.324 304.107 245.324C297.071 245.324 291.331 251.044 291.331 258.055ZM308.428 254.673C310.31 254.673 311.853 256.21 311.853 258.086C311.853 259.962 310.31 261.5 308.428 261.5C306.545 261.5 305.002 259.962 305.002 258.086C305.002 256.21 306.545 254.673 308.428 254.673Z" fill="white"/>
<path d="M381.494 387.153C378.038 386.815 374.118 385.984 369.86 384.57C367.699 389.429 365.138 393.088 365.015 393.273L364.12 394.534L362.731 393.826C362.453 393.673 362.175 393.611 361.898 393.457C361.28 396.994 359.953 403.79 358.349 407.88C360.324 411.017 367.699 423.134 372.329 435.866C377.297 410.371 380.507 392.658 381.494 387.153ZM370.477 415.692C369.181 415.692 368.224 415.384 367.082 414.677C367.082 414.677 366.558 414.4 366.064 414.031C365.879 413.908 365.292 413.477 364.984 413.231C364.027 411.971 363.317 410.31 363.163 408.742C364.397 409.603 365.817 409.818 367.144 410.402C367.422 410.617 367.977 411.017 368.162 411.14C368.502 411.386 368.841 411.571 368.872 411.571C369.181 411.755 369.428 411.878 369.675 411.971C369.458 410.617 369.242 408.649 369.181 406.158C369.181 405.113 369.582 403.514 369.983 402.529L371.218 399.054C371.619 401.176 372.329 404.006 372.699 406.097C372.791 410.802 373.501 413.262 373.501 413.262L374.088 415.23L372.02 415.507C371.434 415.599 370.94 415.63 370.477 415.63V415.692Z" fill="#5A3714"/>
<path d="M318.22 398.839L315.782 400.223L315.566 397.425C315.257 393.642 314.362 390.167 313.436 387.461C305.69 389.552 301.339 394.472 301.277 394.534L299.981 396.041L298.623 394.626C293.099 388.783 287.668 383.801 278.286 381.556C287.143 391.336 311.43 418.306 334.607 445.83C334.792 439.741 335.162 431.56 335.502 424.641C333.465 424.456 331.675 423.872 330.132 422.826C327.972 421.35 326.398 419.044 325.503 416.03C323.991 416.83 321.861 417.66 319.392 417.66C317.88 417.66 316.245 417.352 314.547 416.522L312.727 415.63L313.868 413.939C313.868 413.939 315.782 411.079 317.016 408.803C317.849 407.973 319.855 405.451 320.195 404.282C320.72 406.343 320.534 408.342 320.133 410.464C319.485 411.663 318.714 412.955 318.065 413.97C321.121 414.523 323.775 413.016 324.917 412.217C325.225 409.941 326.213 407.758 327.787 406.128C327.293 408.219 327.879 410.372 328.342 412.309C328.682 414.8 329.607 418.121 332.138 419.874C333.619 420.889 335.502 421.289 337.847 421.104C335.625 418.091 332.755 412.924 335.317 409.018L327.941 394.472C322.139 396.594 318.251 398.778 318.158 398.839H318.22Z" fill="#5A3714"/>
<path d="M355.265 406.068C356.778 401.947 358.043 395.12 358.537 392.137C349.371 389.184 339.218 390.906 331.41 393.336L338.909 408.159C346.254 405.299 352.488 405.668 355.265 406.068Z" fill="#C1571A"/>
<path d="M360.173 495.711C360.883 492.329 361.593 488.977 362.272 485.655C332.183 446.046 277.992 386.416 272.622 380.542C268.795 380.204 265.74 380.542 262.129 381.003C258.426 381.434 254.167 381.926 248.118 381.895C239.045 381.803 231.052 378.42 226.146 375.775C222.103 382.264 218.863 390.137 217.721 393.058C224.016 398.286 260.339 428.209 284.688 440.787C286.818 440.387 294.687 438.726 299.748 434.821L302.618 432.607V456.379C308.852 459.977 344.095 480.489 360.204 495.711H360.173Z" fill="#1F3521"/>
<path d="M346.339 566.472C346.491 566.442 346.644 566.381 346.797 566.351C346.644 566.381 346.491 566.411 346.339 566.472Z" fill="#EC00D1"/>
<path d="M344.361 566.966C344.792 566.874 345.253 566.751 345.684 566.629C345.838 566.598 345.992 566.567 346.146 566.537C345.561 566.69 344.946 566.843 344.361 566.966Z" fill="#EC00D1"/>
<path d="M398.773 446.109L386.769 434.084L390.132 433.5C399.391 431.901 403.156 430.086 404.297 429.441C409.575 410.282 407.661 396.627 407.26 394.321C404.297 390.323 398.094 386.756 396.428 385.833C393.65 386.725 390.102 387.401 385.75 387.401C385.534 387.401 385.256 387.401 385.04 387.371C383.004 398.78 368.839 477.446 348.224 566.014C348.224 566.014 348.224 566.014 348.224 565.983C349.674 565.614 351.094 565.214 352.513 564.815C352.513 564.815 352.513 564.814 352.513 564.845C371.863 524.744 395.626 455.427 398.773 446.139V446.109Z" fill="#1F3521"/>
<path d="M407.551 431.038L407.396 431.561L406.995 431.899C406.687 432.176 403.94 434.359 394.065 436.389L402.86 445.215L402.52 446.261C402.273 447.029 377.678 519.944 357.155 563.429C356.26 563.736 355.365 564.044 354.439 564.321C354.47 564.321 354.501 564.321 354.563 564.29C355.921 563.859 357.279 563.429 358.637 562.937C359.439 562.66 360.241 562.383 361.044 562.107C396.595 549.006 427.703 520.775 450.57 482.61C450.57 482.61 450.663 482.487 450.694 482.395C450.756 482.272 450.848 482.18 450.91 482.057C451.126 481.688 451.342 481.288 451.589 480.888C443.256 454.533 419.679 421.505 411.285 410.249C410.853 416.061 409.834 423.104 407.581 431.099L407.551 431.038Z" fill="#921A1D"/>
<path d="M471.434 350.251C472.73 346.776 473.07 343.024 473.162 338.442L472.946 332.138C472.792 326.94 467.854 323.711 458.287 322.481L456.683 322.389C449.924 322.327 446.591 323.127 445.11 328.14L441.654 338.319C440.388 342.224 437.919 343.332 436.068 343.608C429.433 344.5 422.397 336.197 421.594 335.244C413.941 326.233 407.738 320.667 399.56 315.5C389.067 308.858 376.568 309.38 374.686 309.995C374.593 310.026 374.47 310.088 374.408 310.118C374.624 310.118 374.871 310.118 375.118 310.118C378.05 310.118 382 310.303 384.901 311.103C391.135 312.855 400.701 317.53 410.731 329.862C413.57 333.368 415.607 335.889 417.027 337.673C421.378 343.116 425.976 347.821 430.76 351.727C436.808 356.648 442.271 359.723 446.53 360.553C453.597 361.937 458.874 361.968 464.861 358.093C468.009 356.032 470.354 353.265 471.465 350.282L471.434 350.251ZM458.812 332.045C453.195 331.215 448.844 329.185 449.091 327.525C449.338 325.833 454.06 325.157 459.676 325.956C465.293 326.756 469.644 328.816 469.397 330.477C469.15 332.168 464.429 332.845 458.812 332.045Z" fill="#C1571A"/>
<path d="M370.933 443.033C366.952 428.733 357.293 412.865 355.256 409.636C353.312 409.297 347.109 408.652 339.764 411.604L339.486 417.078C340.505 418.8 341.77 420.338 342.511 421.137L344.64 423.351L341.647 424.089C340.752 424.305 339.918 424.459 339.085 424.551C338.653 433.192 338.19 443.894 338.098 449.922C347.109 460.685 355.812 471.418 363.249 481.074C366.119 467.297 368.681 454.504 370.933 443.033Z" fill="#C1571A"/>
<path d="M471.964 142.269C471.964 128.276 478.29 114.93 489.03 105.95H488.937C476.253 105.95 465.915 116.252 465.915 128.891C465.915 134.673 468.106 140.178 471.995 144.391C471.964 143.653 471.933 142.945 471.933 142.269H471.964Z" fill="#BDA888"/>
<path fill-rule="evenodd" clip-rule="evenodd" d="M531.903 130.368C531.903 152.357 514.004 170.193 491.938 170.193C469.873 170.193 451.974 152.357 451.974 130.368C451.974 108.38 469.873 90.5435 491.938 90.5435C514.004 90.5435 531.903 108.38 531.903 130.368ZM472.063 144.392C472.002 143.653 472.002 142.946 472.002 142.27H472.032C472.032 128.308 478.359 114.961 489.098 105.95H489.006C476.322 105.95 465.984 116.253 465.984 128.892C465.984 134.674 468.175 140.178 472.063 144.392Z" fill="white"/>
<path d="M499.636 221.181C499.636 225.117 501.117 228.839 503.771 231.699C503.771 231.206 503.74 230.714 503.74 230.253C503.74 220.751 508.03 211.709 515.313 205.589H515.251C506.641 205.589 499.636 212.57 499.636 221.15V221.181Z" fill="#BDA888"/>
<path fill-rule="evenodd" clip-rule="evenodd" d="M488.284 221.274C488.284 206.329 500.443 194.243 515.411 194.243C530.409 194.243 542.537 206.329 542.537 221.274C542.537 236.22 530.409 248.306 515.411 248.306C500.412 248.306 488.284 236.22 488.284 221.274ZM503.746 231.699C503.715 231.207 503.715 230.715 503.715 230.254V230.285C503.715 220.782 508.005 211.741 515.288 205.621H515.226C506.616 205.621 499.611 212.602 499.611 221.182C499.611 225.118 501.092 228.839 503.746 231.699Z" fill="white"/>
<path d="M459.322 285.946C459.322 288.837 460.402 291.574 462.347 293.696C462.347 293.327 462.347 292.989 462.347 292.62C462.347 285.639 465.494 278.966 470.895 274.476H470.864C464.507 274.476 459.353 279.611 459.353 285.946H459.322Z" fill="#BDA888"/>
<path fill-rule="evenodd" clip-rule="evenodd" d="M449.715 285.395C449.715 274.416 458.664 265.498 469.682 265.498C480.699 265.498 489.648 274.416 489.648 285.395C489.648 296.374 480.699 305.292 469.682 305.292C458.664 305.292 449.715 296.374 449.715 285.395ZM462.307 293.729V292.652H462.276C462.276 285.672 465.455 278.998 470.824 274.508H470.794C464.436 274.508 459.283 279.644 459.283 285.979C459.283 288.87 460.363 291.607 462.307 293.729Z" fill="white"/>
<path d="M244.647 492.912H244.678C260.201 494.511 275.354 495.31 289.704 495.31C306.832 495.31 318.219 494.142 322.385 493.619C322.478 493.619 322.54 493.619 322.632 493.711C322.725 493.803 322.787 493.926 322.787 494.08L323.25 505.397C323.25 505.705 323.034 506.012 322.725 506.043C311.245 507.642 299.24 508.472 287.05 508.472C265.972 508.472 250.017 506.043 244.123 505.028C243.907 504.997 243.753 504.782 243.753 504.536L243.999 493.527C243.999 493.373 244.092 493.188 244.215 493.065C244.308 492.973 244.462 492.912 244.617 492.912M244.647 489.375C243.66 489.375 242.672 489.744 241.901 490.39C241.037 491.159 240.512 492.266 240.481 493.404L240.234 504.413C240.173 506.412 241.561 508.134 243.536 508.472C249.523 509.518 265.725 511.978 287.081 511.978C298.006 511.978 310.288 511.332 323.25 509.518C325.348 509.241 326.922 507.335 326.829 505.213L326.366 493.896C326.305 492.758 325.811 491.681 324.947 490.943C324.237 490.328 323.342 490.021 322.416 490.021C322.262 490.021 322.077 490.021 321.923 490.052C317.602 490.574 306.523 491.712 289.735 491.712C277.668 491.712 262.639 491.128 245.08 489.313C244.956 489.313 244.802 489.313 244.678 489.313L244.647 489.375Z" fill="black"/>
<path d="M299.935 458.932L299.04 458.409V439.496C292.714 443.094 285.029 444.293 284.659 444.355L284.104 444.447L283.579 444.201C259.199 431.777 222.691 401.793 215.655 395.95C192.293 417.046 172.882 445.585 167.234 454.226C167.358 454.503 167.481 454.811 167.605 455.087C167.944 455.856 168.284 456.564 168.623 457.332C199.638 525.112 254.107 570.134 316.137 570.134C325.735 570.134 335.147 568.965 344.313 566.874C349.775 543.502 354.774 520.775 359.249 499.771C343.263 483.657 300.305 459.147 299.873 458.901L299.935 458.932ZM323.204 509.581C310.273 511.396 297.991 512.042 287.035 512.042C265.68 512.042 249.478 509.581 243.491 508.536C241.547 508.198 240.158 506.475 240.189 504.476L240.436 493.467C240.436 492.298 240.991 491.222 241.855 490.453C242.627 489.777 243.614 489.438 244.602 489.438C244.725 489.438 244.88 489.438 245.003 489.438C262.563 491.253 277.592 491.837 289.659 491.837C306.447 491.837 317.526 490.699 321.846 490.176C322.031 490.176 322.186 490.146 322.34 490.146C323.266 490.146 324.161 490.453 324.87 491.068C325.735 491.806 326.259 492.852 326.29 494.02L326.753 505.338C326.846 507.459 325.272 509.366 323.173 509.643L323.204 509.581Z" fill="#921A1D"/>
<path d="M322.319 493.621C318.153 494.144 306.765 495.313 289.637 495.313C275.287 495.313 260.166 494.513 244.612 492.914H244.581C244.581 492.914 244.303 492.976 244.18 493.068C244.056 493.191 243.964 493.345 243.964 493.529L243.717 504.539C243.717 504.815 243.84 505 244.087 505.031C249.982 506.076 265.936 508.475 287.014 508.475C299.204 508.475 311.178 507.675 322.689 506.046C322.967 506.015 323.214 505.707 323.214 505.4L322.751 494.083C322.751 494.083 322.689 493.775 322.597 493.714C322.504 493.652 322.442 493.621 322.35 493.621H322.319Z" fill="#1F3521"/>
<path d="M308.462 261.468C310.344 261.468 311.887 259.931 311.887 258.055C311.887 256.179 310.344 254.641 308.462 254.641C306.579 254.641 305.036 256.179 305.036 258.055C305.036 259.931 306.579 261.468 308.462 261.468Z" fill="black"/>
<path d="M376.703 261.5C378.595 261.5 380.128 259.972 380.128 258.087C380.128 256.202 378.595 254.673 376.703 254.673C374.811 254.673 373.277 256.202 373.277 258.087C373.277 259.972 374.811 261.5 376.703 261.5Z" fill="black"/>
<path d="M320.614 238.926L286.575 239.664L286.668 243.2L298.241 242.954C292.161 245.322 287.81 251.196 287.81 258.085C287.81 267.065 295.124 274.353 304.135 274.353C313.146 274.353 320.46 267.065 320.46 258.085C320.46 250.919 315.739 244.892 309.289 242.708L320.707 242.462L320.614 238.926ZM316.911 258.054C316.911 265.066 311.171 270.786 304.135 270.786C297.099 270.786 291.359 265.066 291.359 258.054C291.359 251.042 297.099 245.322 304.135 245.322C311.171 245.322 316.911 251.042 316.911 258.054Z" fill="black"/>
<path d="M349.003 273.953H332.462C330.58 273.953 328.821 274.783 327.617 276.229C326.413 277.674 325.95 279.55 326.29 281.395L327.185 286.131L330.672 285.455L329.777 280.719C329.623 279.919 329.839 279.12 330.364 278.474C330.888 277.859 331.66 277.49 332.462 277.49H349.003C349.806 277.49 350.577 277.859 351.102 278.474C351.627 279.089 351.843 279.919 351.688 280.719L350.793 285.455L354.281 286.131L355.176 281.395C355.546 279.55 355.052 277.674 353.848 276.229C352.645 274.783 350.886 273.953 349.003 273.953Z" fill="black"/>
<path d="M295.48 303.601C292.302 305.169 291.87 310.151 295.48 311.719L295.82 311.658C295.542 308.644 296.869 305.6 299.245 303.724C298.319 302.678 296.313 303.139 295.48 303.57V303.601Z" fill="black"/>
<path d="M459.696 325.956C454.079 325.126 449.357 325.833 449.111 327.525C448.864 329.216 453.246 331.215 458.832 332.046C464.448 332.876 469.17 332.169 469.417 330.477C469.664 328.786 465.282 326.787 459.696 325.956Z" fill="black"/>
<path d="M369.122 406.162C369.153 408.683 369.369 410.621 369.616 411.974C369.369 411.882 369.122 411.759 368.814 411.574C368.814 411.574 368.443 411.39 368.104 411.144C367.919 411.021 367.394 410.621 367.086 410.405C365.759 409.821 364.339 409.606 363.104 408.745C363.259 410.313 363.969 411.974 364.925 413.235C365.234 413.481 365.82 413.911 366.005 414.034C366.499 414.403 367.024 414.68 367.024 414.68C368.166 415.387 369.153 415.695 370.418 415.695C370.881 415.695 371.406 415.664 371.962 415.572L374.029 415.295L373.443 413.327C373.443 413.327 372.702 410.836 372.64 406.162C372.27 404.07 371.56 401.241 371.159 399.119L369.925 402.594C369.493 403.578 369.122 405.208 369.122 406.223V406.162Z" fill="black"/>
<path d="M476.508 332.046C476.292 324.85 470.305 320.483 458.64 319.007L456.85 318.884C451.82 318.822 444.228 318.73 441.728 327.095L438.272 337.243C437.5 339.611 436.358 340.011 435.587 340.103C431.575 340.657 426.113 335.183 424.323 332.999C418.367 325.988 413.275 321.037 407.534 316.7C408.121 308.674 407.349 302.8 406.763 299.848C413.953 298.833 414.91 293.513 414.972 293.267L415.095 292.467L414.571 291.852C405.004 280.412 401.702 265.804 400.097 258.793C399.819 257.532 399.572 256.486 399.356 255.687C398.863 253.811 398.492 251.32 398.122 248.644C397.443 243.755 396.672 238.219 394.604 233.114C393.277 229.793 391.271 226.656 389.172 223.304C386.055 218.384 382.537 212.787 379.729 204.791C375.532 192.859 381.889 189.537 382.136 189.414L384.142 188.492L382.784 186.739C370.779 171.24 361.953 166.381 351.738 160.784C350.01 159.83 348.189 158.846 346.338 157.77C333.747 150.574 317.668 132.983 317.483 132.829L315.199 130.307L314.459 133.629C314.088 135.259 313.872 136.858 313.749 138.457C295.48 128.339 282.271 113.117 282.148 112.963L280.697 111.241L279.37 113.055C273.846 120.62 271.007 131.907 269.865 137.411C268.26 136.151 267.18 135.781 266.995 135.72L265.082 135.166L264.773 137.135C264.711 137.473 259.218 170.009 231.259 195.442L228.203 198.24L232.339 198.517C232.339 198.517 233.11 198.579 234.159 198.579C234.9 198.579 235.795 198.579 236.844 198.487C232.184 206.482 218.883 232.069 215.427 269.003L215.057 273.124L218.328 270.54C218.328 270.54 221.63 268.049 225.796 270.048C221.969 282.35 216.291 305.998 217.001 336.874L217.063 339.365L224.315 336.628C223.482 345.393 221.908 354.465 219.655 357.817L218.791 359.047L219.902 360.093C219.902 360.093 223.05 362.922 228.944 363.383C225.704 367.043 221.383 369.595 221.321 369.626L219.038 370.979L221.167 372.578C221.167 372.578 222 373.193 223.204 373.931C218.513 381.435 214.995 390.446 214.223 392.537C191.757 412.588 172.778 439.65 165.68 450.321C166.235 451.613 166.791 452.905 167.377 454.196C173.025 445.555 192.436 417.016 215.797 395.92C222.834 401.763 259.342 431.747 283.722 444.171L284.246 444.417L284.802 444.325C285.172 444.263 292.856 443.064 299.183 439.466V458.379L300.078 458.902C300.51 459.148 343.468 483.658 359.454 499.772C354.979 520.776 349.979 543.533 344.517 566.936C345.813 566.629 347.109 566.321 348.375 565.983C368.99 477.415 383.185 398.718 385.191 387.34C385.438 387.34 385.685 387.37 385.901 387.37C390.253 387.37 393.802 386.663 396.579 385.802C398.245 386.725 404.448 390.292 407.411 394.29C407.812 396.627 409.695 410.251 404.448 429.41C403.307 430.055 399.542 431.87 390.283 433.469L386.92 434.053L398.924 446.078C395.777 455.365 372.014 524.682 352.664 564.784C353.312 564.599 353.93 564.415 354.578 564.23C355.473 563.953 356.368 563.646 357.293 563.338C377.816 519.854 402.381 446.939 402.659 446.17L402.998 445.124L394.203 436.298C404.078 434.269 406.825 432.085 407.133 431.808L407.534 431.47L407.689 430.947C409.942 422.951 410.991 415.878 411.392 410.097C419.817 421.383 443.364 454.381 451.696 480.736C452.498 479.352 453.301 477.999 454.072 476.615C443.395 446.17 415.682 409.789 411.608 404.531C411.67 397.611 410.867 393.49 410.806 393.183L410.528 392.537C408.09 389 403.615 385.894 400.683 384.08C402.597 383.096 403.646 382.265 403.8 382.142L405.621 380.605L403.615 379.313C397.906 375.592 395.869 371.656 395.19 369.841C402.628 364.398 403.43 358.955 403.461 358.709L403.584 357.725L402.813 357.11C399.943 354.834 398.492 351.882 397.752 349.329C398.894 349.514 399.943 349.637 400.838 349.637C405.004 349.637 406.485 347.853 406.794 347.392L407.349 346.592L406.979 345.7C404.294 339.427 404.819 335.521 405.899 329.555C406.64 330.385 407.349 331.154 408.09 332.077C410.929 335.583 412.935 338.074 414.386 339.857C418.891 345.485 423.675 350.406 428.643 354.434C435.247 359.816 441.08 363.014 445.987 363.968C448.857 364.521 451.511 364.89 454.072 364.89C458.455 364.89 462.528 363.845 466.941 360.985C470.706 358.524 473.545 355.141 474.934 351.451C476.508 347.269 476.817 342.717 476.878 338.443L476.662 332.015L476.508 332.046ZM360.194 495.713C344.054 480.49 308.842 459.978 302.608 456.38V432.608L299.738 434.822C294.708 438.728 286.839 440.388 284.678 440.788C260.329 428.21 224.006 398.318 217.711 393.06C218.853 390.138 222.093 382.235 226.136 375.777C231.043 378.421 239.035 381.773 248.108 381.896C254.157 381.927 258.416 381.466 262.119 381.005C265.73 380.574 268.816 380.205 272.612 380.543C277.951 386.417 332.173 446.047 362.262 485.657C361.583 488.947 360.873 492.299 360.163 495.713H360.194ZM335.382 409.02C332.821 412.926 335.691 418.093 337.913 421.106C335.567 421.291 333.654 420.86 332.204 419.876C329.642 418.123 328.716 414.802 328.408 412.311C327.945 410.404 327.359 408.252 327.852 406.13C326.278 407.76 325.322 409.912 324.982 412.219C323.84 413.018 321.186 414.525 318.131 413.972C318.779 412.957 319.582 411.665 320.199 410.466C320.6 408.344 320.785 406.345 320.261 404.285C319.921 405.422 317.915 407.944 317.082 408.805C315.848 411.081 313.934 413.91 313.934 413.941L312.792 415.632L314.613 416.524C316.28 417.354 317.915 417.662 319.458 417.662C321.927 417.662 324.056 416.832 325.569 416.032C326.464 419.046 328.037 421.352 330.198 422.828C331.71 423.874 333.531 424.458 335.567 424.643C335.228 431.562 334.858 439.743 334.673 445.832C311.496 418.308 287.209 391.338 278.352 381.558C287.734 383.803 293.134 388.816 298.689 394.628L300.047 396.043L301.343 394.536C301.343 394.536 305.725 389.554 313.502 387.463C314.397 390.169 315.323 393.644 315.632 397.427L315.848 400.225L318.286 398.841C318.286 398.841 322.267 396.596 328.068 394.474L335.444 409.02H335.382ZM331.401 393.337C339.24 390.876 349.362 389.185 358.528 392.137C358.034 395.12 356.769 401.947 355.257 406.068C352.479 405.668 346.245 405.299 338.9 408.159L331.401 393.337ZM363.249 481.074C355.812 471.418 347.109 460.685 338.098 449.922C338.191 443.894 338.684 433.192 339.086 424.551C339.919 424.458 340.752 424.305 341.647 424.089L344.641 423.351L342.511 421.137C341.74 420.338 340.505 418.8 339.487 417.078L339.765 411.604C347.109 408.651 353.312 409.297 355.257 409.636C357.263 412.865 366.953 428.733 370.934 443.033C368.681 454.504 366.089 467.297 363.249 481.074ZM372.353 435.868C367.693 423.136 360.318 411.019 358.373 407.883C360.009 403.792 361.305 396.996 361.922 393.46C362.2 393.583 362.478 393.675 362.756 393.829L364.144 394.536L365.039 393.275C365.163 393.09 367.724 389.431 369.885 384.572C374.174 385.987 378.063 386.786 381.519 387.155C380.531 392.66 377.353 410.374 372.353 435.868ZM396.486 345.547C395.715 343.917 395.499 341.949 395.653 340.103C394.018 342.502 393.678 345.547 393.616 347.638C394.141 350.959 395.622 355.511 399.572 359.139C399.017 360.708 397.227 364.183 392.012 367.689L391.055 368.334L391.24 369.472C391.271 369.718 392.351 375.346 399.356 380.789C395.499 382.881 386.117 386.202 371.026 381.281C371.119 379.129 370.718 377.407 372.076 375.469C369.73 376.422 368.527 379.159 367.693 380.513C366.212 384.572 364.083 388.17 362.941 390.015C346.06 382.419 325.692 391.122 318.81 394.536C317.977 388.877 316.094 384.111 314.953 381.589C313.44 379.375 311.28 377.468 309.243 375.715C310.262 378.052 311.126 380.605 311.712 383.065C311.836 383.373 312.021 383.742 312.175 384.172C306.096 385.864 301.929 389.062 299.923 390.907C294.153 384.941 288.196 379.959 277.796 377.806C271.069 376.422 266.748 376.945 261.718 377.53C258.107 377.96 254.003 378.483 248.139 378.391C238.079 378.268 229.253 373.655 225.302 371.256C228.512 368.98 234.067 364.337 235.517 358.77C235.61 355.541 235.27 352.681 234.067 349.821C234.098 352.497 233.11 355.541 232.092 357.878C231.907 358.586 231.598 359.293 231.259 360C227.308 360.154 224.654 359.17 223.327 358.401C226.475 351.912 227.74 338.135 228.142 332.138C227.802 329.494 227.278 327.525 227.586 324.727C226.012 327.064 225.148 329.463 224.593 331.923C224.593 332.231 224.562 332.538 224.531 332.846L220.396 334.414C219.964 300.063 227.494 275.215 230.796 265.958L230.888 264.851C231.289 262.083 231.845 259.193 233.295 256.702C230.641 258.824 229.098 262.206 227.432 264.759C227.216 265.343 227 266.02 226.753 266.758C223.914 265.528 221.229 265.651 219.161 266.297C223.667 225.672 240.023 199.932 241.227 198.087C243.109 197.748 245.084 197.195 246.967 196.395L246.843 196.149L246.936 196.395C249.405 194.765 251.657 192.582 253.231 190.091C250.886 191.598 248.17 192.397 245.516 193.166C242.646 194.396 239.406 194.919 236.875 195.104C258.879 173.361 265.915 148.39 267.705 140.425C268.662 141.194 269.927 142.455 271.377 144.454L271.902 144.884C272.704 145.715 274.957 148.759 275.79 150.635C275.698 147.867 275.297 144.977 274.278 142.363C273.785 141.686 273.322 141.102 272.859 140.548C273.414 137.411 275.79 125.418 280.944 117.115C285.141 121.666 297.424 134.029 313.595 142.578C313.656 144.423 313.842 146.237 314.243 147.96C314.829 149.436 315.693 150.604 316.866 151.465C317.915 152.265 318.964 153.003 320.045 153.741C319.119 151.65 317.884 149.405 317.699 147.16C317.699 147.16 317.175 147.283 316.897 147.345L317.699 147.16C317.205 145.069 316.804 141.932 317.267 137.965C322.328 143.254 334.302 155.156 344.517 160.999C346.4 162.075 348.22 163.059 349.979 164.043C359.917 169.487 367.848 173.823 378.772 187.6C376.273 189.783 372.446 195.134 376.304 206.113C379.235 214.478 382.877 220.26 386.117 225.334C388.216 228.686 390.067 231.577 391.271 234.56C393.153 239.265 393.925 244.585 394.573 249.259C394.974 252.027 395.314 254.641 395.9 256.732C396.116 257.47 396.332 258.485 396.61 259.685C398.215 266.819 401.548 281.488 411.176 293.451C410.651 294.558 409.078 296.496 404.51 296.588H402.196L402.844 298.833C402.844 298.895 404.479 304.83 404.078 314.363C403.214 313.779 402.35 313.195 401.424 312.61C397.536 310.15 393.4 308.612 389.481 307.659C388.37 304.861 387.938 302.277 387.753 300.893C395.931 296.25 396.672 287.454 395.9 283.303L395.653 282.011L394.326 281.888C388.432 281.335 387.537 278.352 387.043 276.752C386.642 275.43 385.994 270.786 385.593 267.588C387.506 264.913 388.679 261.684 388.679 258.147C388.679 251.012 384.019 244.985 377.569 242.801L387.475 243.263L387.629 239.726L380.13 239.388C379.05 224.411 369.452 214.263 369.02 213.801L368.558 213.463C366.274 212.233 363.157 212.11 361.089 212.172C361.336 210.818 361.583 209.373 362.478 208.235C360.472 209.096 358.744 211.249 357.602 213.033C355.812 219.029 354.917 224.903 354.547 228.009C351.276 226.441 349.115 223.396 349.084 223.366L346.616 219.829L345.875 224.073C344.455 232.407 345.998 242.279 347.048 247.353C324.211 237.358 314.922 218.015 314.829 217.799L313.595 215.185L311.805 217.461C310.293 219.398 309.243 222.289 308.626 224.38C306.188 222.074 303.966 218.168 301.929 214.632C301.466 213.832 301.034 213.063 300.602 212.325C297.053 206.267 290.665 206.452 290.388 206.482L288.567 206.544L288.814 209.865C289.338 215.216 291.066 218.876 292.548 221.121C292.424 221.121 292.301 221.121 292.177 221.121C282.641 221.121 277.673 214.847 277.457 214.539L276.068 212.725L274.649 214.509C274.494 214.724 270.544 219.737 271.717 225.549C272.365 228.778 274.463 231.546 277.92 233.76C275.698 238.311 269.896 252.058 273.815 265.036C271.995 265.189 268.97 265.097 265.421 263.467L262.798 262.268L262.891 265.128C262.891 265.681 263.477 278.198 274.247 290.068C273.414 290.745 271.995 291.606 269.773 292.129L268.137 292.498L268.446 294.159C268.476 294.374 269.31 298.833 272.056 302.523L262.15 312.087L263.446 313.348C263.847 313.748 273.229 322.636 291.591 324.973C290.943 326.449 289.832 328.602 287.95 330.908C286.808 332.63 285.141 334.199 283.351 335.46C286.005 335.613 288.598 335.06 290.696 333.122C291.499 332.138 292.177 331.154 292.764 330.232C298.134 332.692 317.576 340.811 340.351 340.811C352.325 340.811 365.163 338.566 377.322 332.046C376.828 333.153 376.149 334.445 375.193 335.859C374.205 338.074 372.631 340.226 372.045 342.594C374.112 340.903 376.365 339.857 378.124 337.858C378.834 336.813 379.42 335.829 379.883 334.906C388.092 332.231 392.444 326.265 392.166 318.207C395.375 320.083 398.924 322.728 402.659 326.418L402.381 328.048C401.239 334.353 400.406 338.996 402.998 345.823C402.041 346.162 400.066 346.469 396.456 345.577L396.486 345.547ZM384.204 299.879C384.204 299.879 384.327 302.985 385.5 306.767C379.667 305.875 374.977 306.214 373.619 306.675C371.489 307.352 370.347 309.289 369.854 310.765C362.54 311.872 355.133 312.334 348.004 312.364L341.647 302.8C341.061 301.939 340.135 301.386 339.086 301.324C338.005 301.232 337.049 301.662 336.37 302.431L329.488 310.242L322.668 297.265C322.143 296.25 321.156 295.604 320.014 295.512C318.903 295.419 317.792 295.881 317.082 296.773L307.762 308.674C304.275 308.028 302.238 307.567 302.145 307.536L301.343 310.98C301.621 311.042 322.544 315.87 347.233 315.87C355.75 315.87 364.762 315.286 373.495 313.748V313.687C376.149 313.625 380.902 313.687 383.988 314.517C385.346 314.886 386.889 315.44 388.555 316.208C389.265 321.098 388.37 326.972 381.766 330.324C382.074 329.155 382.136 328.448 382.136 328.387L382.352 324.942L379.42 326.757C345.103 348.038 303.195 330.97 294.615 327.064C295.51 325.157 295.85 323.866 295.85 323.774L296.344 321.775L294.307 321.59C279.802 320.237 270.76 314.425 267.458 311.872L277.087 302.585L275.883 301.324C274.001 299.356 272.951 296.65 272.457 294.958C276.562 293.544 278.136 291.206 278.321 290.93L279.062 289.761L278.105 288.777C270.297 280.75 267.767 272.017 266.964 267.68C272.55 269.341 276.655 268.08 276.871 268.019L278.66 267.434L277.982 265.681C272.365 251.228 281.87 234.037 281.963 233.883L282.827 232.315L281.253 231.454C277.858 229.608 275.883 227.363 275.328 224.78C274.834 222.351 275.667 219.983 276.439 218.414C279.37 221.151 286.098 225.857 296.436 224.227L300.232 223.612L297.331 221.121C297.177 220.998 293.535 217.769 292.579 210.142C294.091 210.542 296.22 211.495 297.701 213.986L298.998 216.262C301.775 221.121 304.923 226.625 309.027 228.778L311.126 229.885L311.589 227.579C311.805 226.533 312.422 224.165 313.317 222.074C317.113 228.471 327.976 243.816 349.023 251.812L352.232 253.042L351.368 249.721C351.368 249.721 348.436 238.373 349.084 228.317C350.72 229.793 353.004 231.361 355.781 232.038L357.787 232.53L357.972 230.469C357.972 230.469 358.62 223.243 360.657 215.647C362.355 215.554 365.039 215.585 366.768 216.385C368.095 217.861 375.625 226.748 376.674 239.142L356.275 238.188L356.121 241.725L368.588 242.309C361.46 244.062 356.121 250.428 356.121 258.055C356.121 267.035 363.435 274.323 372.446 274.323C376.273 274.323 379.76 272.939 382.537 270.725C382.877 273.247 383.371 276.383 383.741 277.675C384.574 280.412 386.426 284.072 392.66 285.117C392.814 287.916 392.413 294.712 385.222 298.187L384.204 298.679V299.817V299.879ZM343.715 312.334C339.95 312.272 336.277 312.088 332.79 311.841L338.839 304.984L343.715 312.334ZM325.97 311.257C320.415 310.704 315.539 309.996 311.65 309.381L319.613 299.233L325.97 311.257ZM385.161 258.055C385.161 265.066 379.42 270.786 372.384 270.786C365.348 270.786 359.608 265.066 359.608 258.055C359.608 251.043 365.348 245.323 372.384 245.323C379.42 245.323 385.161 251.043 385.161 258.055ZM471.447 350.252C470.336 353.235 467.99 356.033 464.843 358.063C458.856 361.969 453.579 361.907 446.511 360.523C442.253 359.693 436.79 356.648 430.742 351.697C425.989 347.822 421.36 343.086 417.009 337.643C415.589 335.859 413.552 333.338 410.713 329.832C400.683 317.531 391.147 312.826 384.883 311.073C382.013 310.273 378.032 310.089 375.1 310.089C374.853 310.089 374.637 310.089 374.39 310.089C374.483 310.027 374.575 309.996 374.668 309.966C376.55 309.351 389.049 308.828 399.542 315.47C407.72 320.637 413.923 326.172 421.576 335.214C422.348 336.167 429.415 344.44 436.05 343.578C437.901 343.332 440.401 342.195 441.635 338.289L445.092 328.11C446.604 323.066 449.906 322.267 456.665 322.359L458.269 322.451C467.836 323.651 472.774 326.91 472.928 332.108L473.144 338.412C473.052 342.994 472.712 346.746 471.416 350.221L471.447 350.252Z" fill="black"/>
</svg>
