<svg width="135" height="30" viewBox="0 0 135 30" fill="none" xmlns="http://www.w3.org/2000/svg">
<path d="M48.3239 16.058C48.2655 15.6558 48.2931 14.5906 48.2931 13.8475V11.9838C48.2931 10.8046 47.6807 10.0145 46.564 10.0145C45.6955 10.0145 44.504 10.6491 44.027 11.2817C43.8972 10.3567 42.9567 9.98028 42.2589 9.98028C41.3022 9.98028 40.3867 10.5011 39.8936 11.2244V10.0657C39.3646 10.1126 38.0827 10.1824 37.6978 10.1934V10.5741C38.1582 10.5741 38.2353 10.5556 38.3914 10.7589C38.5456 10.9627 38.5904 11.4447 38.5904 13.7119C38.5904 14.2481 38.5904 15.9074 38.4895 16.1636C38.4308 16.308 38.3238 16.5296 37.7825 16.5296C36.8975 16.5296 36.544 15.2311 36.2137 14.4303L33.1553 6.71017C33.0557 6.76461 32.8678 6.8425 32.7269 6.87836L29.4084 15.3527C29.1025 16.146 28.776 16.5221 28.1471 16.5221L28.1445 16.8562C28.3463 16.864 29.127 16.8373 29.6734 16.8373C30.2769 16.8327 30.8811 16.853 31.1826 16.8562V16.5221C29.6293 16.5221 30.0472 15.7119 30.3242 14.9514L31.087 12.8524H34.0908L35.0726 15.3093C35.4638 16.2777 35.3985 16.5221 34.3691 16.5221V16.8562C34.4503 16.8562 35.4816 16.8373 36.1039 16.8373C36.6744 16.8327 37.3865 16.8562 37.8174 16.8562C38.4663 16.8562 38.5672 16.8373 39.2583 16.8373C39.867 16.8327 40.3318 16.853 40.6964 16.8562V16.5299C40.275 16.5299 40.0535 16.4752 39.9514 16.2079C39.8762 15.9387 39.8762 14.7852 39.8762 13.7279V11.6862C40.6571 10.7378 41.1537 10.7925 41.5313 10.7925C42.0546 10.7925 42.3855 11.0611 42.5207 11.2866C42.793 11.7332 42.7977 12.7576 42.7977 13.8475C42.7977 14.5362 42.8126 15.6711 42.6848 16.1792C42.6061 16.4592 42.2316 16.5296 41.7985 16.5296V16.8559C42.1802 16.8526 42.6822 16.837 43.3302 16.837C43.9356 16.8324 44.549 16.8526 44.9136 16.8559V16.5296C44.4192 16.5296 44.286 16.4488 44.173 16.192C44.1003 16.029 44.0861 15.472 44.0861 13.8472V11.6859C44.6195 11.0872 45.3515 10.9366 45.8177 10.9209C46.2067 10.9134 46.4837 11.092 46.6579 11.2814C47.0067 11.6703 47.0067 12.7009 47.0067 13.8315C47.0067 14.516 47.0067 15.7598 46.9032 16.1789C46.8318 16.4589 46.4558 16.5293 46.0201 16.5293V16.8556C46.4038 16.8523 46.9016 16.8367 47.5531 16.8367C48.1468 16.8321 48.7389 16.8523 49.1061 16.8556V16.5293C48.5987 16.5296 48.3972 16.4335 48.3239 16.058ZM31.2733 12.2146C31.2733 12.2146 32.0923 9.9881 32.5347 8.81735C32.5347 8.81735 33.2007 10.6132 33.8465 12.2146H31.2733Z" fill="#007A53"/>
<path d="M55.2264 15.1658C54.7041 15.7 53.9527 16.2697 53.226 16.2697C51.5258 16.2697 50.8712 14.8969 50.9829 12.956H55.3943L55.3876 12.7982C55.3702 12.3673 55.1931 11.8028 55.1931 11.8028C54.9097 10.9479 54.1342 10.0304 52.9398 10.0304C51.3884 10.0304 49.54 11.2246 49.54 13.6981C49.54 15.4415 50.6938 17.0376 52.4857 17.0376C53.7096 17.0376 54.6936 16.4572 55.4926 15.5938L55.2264 15.1658ZM52.6666 10.5245C53.6801 10.5245 54.1139 11.4606 54.1139 12.4012H51.0486C51.1492 11.4452 51.7933 10.5245 52.6666 10.5245Z" fill="#007A53"/>
<path d="M59.9308 10.0609C59.3374 10.0498 58.4775 10.5042 58.2274 11.5971C58.2274 11.5971 58.2338 10.0655 58.2274 10.0655C57.7251 10.1072 56.3882 10.1776 56.036 10.19V10.5743C56.6291 10.5743 56.7582 10.7063 56.8319 10.8898C56.888 11.0172 56.928 11.3125 56.928 13.1785C56.928 14.5204 56.928 15.915 56.8265 16.1559C56.7525 16.3313 56.6234 16.5216 55.9561 16.5216V16.8557C56.2981 16.8557 56.9972 16.8326 57.655 16.8326C58.2665 16.8293 58.8837 16.8528 59.2457 16.8557V16.5216C58.7374 16.5216 58.3902 16.4512 58.2871 16.1996C58.2154 15.9307 58.2154 15.184 58.2154 14.3802V12.2502C58.3642 11.7695 58.613 10.8927 59.4789 10.8927C59.9188 10.8927 59.8851 11.6825 60.3468 11.6825C60.7543 11.6825 60.9726 11.3715 60.9726 11.0296C60.9726 10.5942 60.5394 10.0762 59.9308 10.0609Z" fill="#007A53"/>
<path d="M63.1351 8.68975C62.7286 8.68975 62.3957 8.34295 62.3957 7.91207C62.3957 7.49552 62.7286 7.13797 63.1351 7.13797C63.5701 7.13797 63.9039 7.49552 63.9039 7.91207C63.9039 8.34295 63.5701 8.68975 63.1351 8.68975ZM63.817 16.1996C63.7418 15.9307 63.7418 14.6944 63.7418 13.7274C63.7418 12.7711 63.7278 11.499 63.7573 10.0655H63.7561C63.2379 10.1125 61.8531 10.1822 61.5602 10.1933V10.574C62.1228 10.574 62.2545 10.8041 62.3278 10.9827C62.4439 11.2604 62.4538 13.2017 62.4538 13.6215C62.4538 14.1423 62.4538 15.8988 62.3522 16.1556C62.2818 16.331 62.1504 16.5213 61.4844 16.5213V16.8554C61.961 16.8554 62.6099 16.8521 63.1475 16.8521C63.6282 16.8521 64.0912 16.8554 64.6722 16.8554V16.5213C64.2949 16.5216 63.917 16.4666 63.817 16.1996Z" fill="#007A53"/>
<path d="M70.5429 15.4739C69.9238 16.0163 69.2942 16.3116 68.7221 16.3116C67.1012 16.3116 66.4932 14.7171 66.4932 13.1826C66.4932 11.5112 67.3462 10.5269 68.2763 10.5269C69.0293 10.5269 69.4199 11.4519 69.9162 11.4519C70.1611 11.4519 70.4515 11.1843 70.4515 10.9467C70.4515 10.4379 69.7124 10.0213 68.7675 10.0213C67.0276 10.0213 65.0723 11.1452 65.0723 13.6907C65.0723 15.3592 66.2178 17.0257 68.0405 17.0257C69.0775 17.0257 69.9085 16.6574 70.6736 15.9341L70.5429 15.4739Z" fill="#007A53"/>
<path d="M77.1332 16.5218C76.6372 16.4888 76.5239 16.3063 76.4592 16.1482C76.4052 16.0166 76.3583 15.8451 76.3462 15.379C76.3462 15.379 76.3519 12.9968 76.3519 11.5972C76.3519 10.8616 75.6437 10.0269 74.5384 10.0269C73.1689 10.0269 72.2061 10.6751 71.8501 11.1696C71.5153 11.6314 71.7365 11.9733 71.924 12.0666C72.2604 12.2344 72.4689 12.0043 72.6126 11.7445C72.7795 11.4369 72.9337 11.076 73.2866 10.8071C73.5516 10.6096 73.8543 10.4962 74.1773 10.4962C74.7853 10.4962 75.0744 10.9082 75.0744 12.0402C75.0744 12.3123 75.0636 12.65 75.0636 12.9498C75.0636 12.9498 74.2611 13.09 73.4672 13.3491C72.6405 13.6183 71.4855 13.9837 71.3811 15.1437C71.3113 15.9149 71.7505 17.0175 73.0312 17.0345C73.9739 17.0475 74.7885 16.3506 75.0782 15.8138C75.0839 15.9041 75.0379 16.3428 75.3609 16.6616C75.5878 16.8865 75.9965 16.8526 76.1679 16.8526C76.3389 16.8526 77.1335 16.8526 77.1335 16.8526V16.5218H77.1332ZM75.0636 15.2747C74.8399 15.7568 74.236 16.2245 73.6055 16.187C73.0699 16.1535 72.5254 15.7258 72.6082 14.9511C72.6688 14.4195 73.0394 14.0026 73.6268 13.7976C74.3468 13.544 75.0633 13.4508 75.0633 13.4508V15.2747H75.0636Z" fill="#007A53"/>
<path d="M82.5101 11.2666C82.7785 11.7177 82.7877 12.7405 82.7877 13.8288C82.7877 14.5162 82.8017 15.6329 82.6729 16.1394C82.6005 16.4207 82.22 16.522 81.7872 16.522V16.8561C82.1242 16.8561 82.9185 16.833 83.3351 16.833C83.9329 16.8297 84.5384 16.8532 84.8998 16.8561V16.522C84.4124 16.522 84.2772 16.4106 84.1624 16.1537C84.0884 15.9901 84.0745 15.4539 84.0745 13.8288V11.7842C84.0745 11.442 84.043 11.2354 83.9485 10.9909C83.6591 10.2399 82.8763 9.9603 82.2476 9.9603C81.2897 9.9603 80.3656 10.4815 79.869 11.2041V10.0656C79.3591 10.1073 78.1003 10.1777 77.6865 10.1933V10.574C78.3529 10.574 78.3503 10.7526 78.4287 10.93C78.4861 11.0561 78.5797 11.28 78.5797 13.6916C78.5797 14.2327 78.5797 15.8682 78.4766 16.1224C78.4081 16.3023 78.2757 16.5217 77.6094 16.5217V16.8558C77.9568 16.8558 78.6026 16.8326 79.169 16.8326C79.8033 16.8294 80.4392 16.8528 80.7965 16.8558V16.5217C80.3764 16.5217 80.0413 16.436 79.9398 16.1687C79.8671 15.8988 79.8671 14.7643 79.8671 13.7118V11.6672C80.6471 10.7217 81.1459 10.7745 81.5248 10.7745C82.0446 10.7751 82.3739 11.046 82.5101 11.2666Z" fill="#007A53"/>
<path d="M95.7285 16.0387C95.4353 16.1534 94.6782 16.4077 93.7878 16.4181C91.161 16.4491 89.9022 14.4664 89.9022 11.8619C89.9022 11.0894 90.1126 7.68206 93.394 7.68206C94.9213 7.68206 95.5585 8.1664 95.646 9.50143H96.0627C96.0475 9.06305 96.1141 7.88447 96.1379 7.4614C95.7596 7.34765 94.59 6.95914 93.415 6.95914C89.544 6.95914 88.2852 9.83551 88.2852 12.0095C88.2852 14.412 89.6192 17.0348 93.5965 17.0348C94.728 17.0348 95.5775 16.729 95.8897 16.6L95.7285 16.0387Z" fill="#007A53"/>
<path d="M101.655 15.1659C101.133 15.7001 100.382 16.2698 99.6554 16.2698C97.9559 16.2698 97.2993 14.897 97.4129 12.956H101.823L101.818 12.7983C101.799 12.3674 101.621 11.8029 101.621 11.8029C101.338 10.9479 100.564 10.0304 99.3692 10.0304C97.8172 10.0304 95.9707 11.2247 95.9707 13.6982C95.9707 15.4416 97.1226 17.0377 98.9151 17.0377C100.139 17.0377 101.125 16.4572 101.921 15.5938L101.655 15.1659ZM99.0969 10.5245C100.111 10.5245 100.543 11.4606 100.543 12.4013H97.477C97.5795 11.4453 98.2224 10.5245 99.0969 10.5245Z" fill="#007A53"/>
<path d="M107.281 11.2668C107.55 11.7179 107.561 12.7407 107.561 13.829C107.561 14.5164 107.573 15.633 107.444 16.1395C107.371 16.4208 106.993 16.5222 106.559 16.5222V16.8563C106.895 16.8563 107.692 16.8331 108.108 16.8331C108.704 16.8299 109.309 16.8533 109.671 16.8563V16.5222C109.183 16.5222 109.049 16.4107 108.933 16.1539C108.86 15.9902 108.848 15.4541 108.848 13.829V11.7844C108.848 11.4422 108.814 11.2355 108.721 10.9911C108.429 10.2401 107.646 9.96045 107.018 9.96045C106.06 9.96045 105.137 10.4816 104.642 11.2042V10.0657C104.131 10.1074 102.87 10.1778 102.458 10.1935C102.457 10.1935 102.458 10.5742 102.458 10.5742C103.124 10.5742 103.121 10.7528 103.2 10.9301C103.257 11.0562 103.351 11.2802 103.351 13.6918C103.351 14.2328 103.351 15.8683 103.247 16.1226C103.179 16.3025 103.047 16.5218 102.381 16.5218V16.8559C102.727 16.8559 103.374 16.8328 103.94 16.8328C104.576 16.8295 105.21 16.853 105.568 16.8559V16.5218C105.147 16.5218 104.812 16.4361 104.71 16.1689C104.638 15.899 104.638 14.7644 104.638 13.712V11.6674C105.418 10.7218 105.917 10.7746 106.296 10.7746C106.816 10.7753 107.144 11.0461 107.281 11.2668Z" fill="#007A53"/>
<path d="M113.89 15.8968C113.451 16.2077 113.244 16.2892 113.012 16.2892C112.3 16.2892 112.186 15.6184 112.186 14.7853C112.186 14.7853 112.186 11.8027 112.214 10.7737H113.586V10.1903H112.214L112.24 8.55539C111.887 8.65871 111.324 8.75519 110.946 8.83276C110.946 8.83276 110.937 9.39239 110.927 10.1958L110.186 10.4109V10.7734H110.921C110.902 12.1804 110.885 14.0184 110.885 15.1116C110.885 16.0679 111.314 17.0349 112.432 17.0349C112.999 17.0349 113.633 16.635 114.016 16.3355L113.89 15.8968Z" fill="#007A53"/>
<path d="M119.461 15.8269L119.455 16.8559C119.771 16.85 120.148 16.8327 120.6 16.8327C121.037 16.8295 121.486 16.85 121.836 16.8559V16.5234C121.329 16.5234 120.98 16.4563 120.876 16.2046C120.782 15.9537 120.761 14.0822 120.761 13.2038C120.761 12.121 120.78 10.065 120.78 10.065C120.397 10.1149 118.966 10.1928 118.528 10.1895V10.5738C119.196 10.5738 119.312 10.7029 119.395 10.8769C119.503 11.0946 119.476 12.5897 119.476 13.2041V15.3631C118.928 16.086 118.273 16.3158 117.675 16.2724C116.892 16.2151 116.53 15.3709 116.53 14.7396C116.53 14.3546 116.489 12.6265 116.491 10.0653C116.059 10.1152 114.697 10.1898 114.284 10.1898V10.5741C114.95 10.5741 115 10.6954 115.079 10.8694C115.221 11.1751 115.172 12.6757 115.172 13.2044V15.0662C115.172 16.2887 115.908 17.0348 116.892 17.0348C118.257 17.0348 119.047 16.5029 119.461 15.8269Z" fill="#007A53"/>
<path d="M126.305 10.0611C125.711 10.05 124.852 10.5044 124.602 11.5972C124.602 11.5972 124.608 10.0657 124.602 10.0657C124.099 10.1074 122.762 10.1778 122.409 10.1902V10.5745C123.003 10.5745 123.134 10.7065 123.205 10.89C123.263 11.0174 123.302 11.3127 123.302 13.1787C123.302 14.5206 123.302 15.9152 123.2 16.1561C123.127 16.3314 122.998 16.5218 122.33 16.5218V16.8559C122.672 16.8559 123.371 16.8327 124.028 16.8327C124.641 16.8295 125.257 16.8529 125.621 16.8559V16.5218C125.112 16.5218 124.764 16.4514 124.661 16.1998C124.59 15.9309 124.59 15.1842 124.59 14.3804V12.2504C124.739 11.7697 124.986 10.8929 125.853 10.8929C126.294 10.8929 126.258 11.6826 126.722 11.6826C127.128 11.6826 127.346 11.3717 127.346 11.0298C127.346 10.5943 126.914 10.0764 126.305 10.0611Z" fill="#007A53"/>
<path d="M134.855 10.5744C134.057 10.5744 133.763 11.193 132.793 13.3546C132.531 13.9328 131.924 15.4383 131.239 16.9601C130.066 19.5819 128.903 20.7458 128.266 20.7458C127.975 20.7458 127.746 20.5073 127.745 20.2243C127.735 19.3772 128.771 19.8179 129.602 18.9082C130.164 18.2942 130.433 17.5442 130.681 16.9637C130.463 16.4422 129.985 15.0961 129.597 14.085C129.216 13.0978 128.898 12.2504 128.608 11.5352C128.274 10.7009 128.115 10.5741 127.475 10.5741V10.1898C127.955 10.1898 128.52 10.1953 129.15 10.1953C129.835 10.1953 130.373 10.1898 130.835 10.1898V10.5741C130.079 10.5741 130.021 10.8042 130.021 11.1184C130.021 11.3716 130.312 12.3234 130.674 13.3233C131.196 14.7848 131.414 15.29 131.414 15.29C131.414 15.29 131.82 14.337 132.301 13.1731C132.721 12.1467 132.94 11.5815 132.94 11.1461C132.94 10.7165 132.794 10.5741 132.153 10.5741V10.1898C132.665 10.1898 133.057 10.1953 133.666 10.1953C134.159 10.1953 134.462 10.1898 134.856 10.1898V10.5744H134.855Z" fill="#007A53"/>
<path d="M30.0552 20.8574C30.1389 21.1096 30.1389 22.078 30.1389 24.5193C30.1389 28.0126 30.1389 28.6811 30.0222 29.0103C29.8781 29.4262 29.5176 29.4516 29.1403 29.4516V29.7857C29.4837 29.7857 30.3062 29.7671 30.8161 29.7671C31.3041 29.7671 32.1419 29.7857 32.5188 29.7857V29.4516C32.1136 29.4516 31.7769 29.4262 31.5916 28.982C31.5044 28.7717 31.5044 27.7923 31.5044 24.4876C31.5044 21.8837 31.5171 21.1406 31.6338 20.814C31.7506 20.4715 32.0533 20.4405 32.5188 20.4405V20.0565C31.7769 20.0565 31.5196 20.0719 30.8161 20.0719C30.1224 20.0719 29.8505 20.0565 29.1289 20.0565V20.4405C29.5751 20.4405 29.9219 20.4845 30.0552 20.8574Z" fill="#007A53"/>
<path d="M38.3222 24.196C38.59 24.6448 38.5999 25.6676 38.5999 26.7579C38.5999 27.4437 38.6138 28.5616 38.485 29.0668C38.4111 29.35 38.0322 29.4514 37.5994 29.4514V29.7855C37.9364 29.7855 38.7306 29.7624 39.1473 29.7624C39.7451 29.7591 40.3486 29.7796 40.712 29.7855V29.4517C40.222 29.4517 40.0894 29.3367 39.9745 29.0828C39.9006 28.9195 39.8866 28.3833 39.8866 26.7582V24.7136C39.8866 24.3717 39.8546 24.1634 39.7606 23.9183C39.4693 23.168 38.6859 22.89 38.0604 22.89C37.1018 22.89 36.1765 23.4105 35.6812 24.1338V22.993C35.1706 23.0377 33.9124 23.1074 33.498 23.1227V23.5021C34.165 23.5021 34.1606 23.6827 34.2409 23.858C34.2989 23.9858 34.3913 24.2084 34.3913 26.6213C34.3913 27.1601 34.3913 28.7982 34.2888 29.0518C34.2205 29.2304 34.0885 29.4521 33.4209 29.4521V29.7861C33.769 29.7861 34.4141 29.763 34.9812 29.763C35.6155 29.7597 36.252 29.7829 36.6087 29.7861V29.4517C36.1892 29.4517 35.8538 29.3657 35.7519 29.0981C35.6786 28.8276 35.6786 27.6943 35.6786 26.6396V24.5969C36.4592 23.6504 36.9574 23.7035 37.3376 23.7035C37.8554 23.7032 38.1861 23.9728 38.3222 24.196Z" fill="#007A53"/>
<path d="M46.3073 23.1204C45.7584 23.1204 45.2107 23.105 44.9562 23.105V23.489C45.5918 23.489 45.7438 23.6471 45.7546 24.0799C45.7647 24.5121 45.4179 25.0747 45.0336 26.1014C44.589 27.264 44.26 28.0058 44.26 28.0058C44.26 28.0058 44.1124 27.7154 43.5628 26.2568C43.1475 25.1529 42.7775 24.2432 42.7752 24.0072C42.7689 23.6754 42.945 23.4893 43.5857 23.4893V23.1054C43.1893 23.1054 42.6616 23.1207 41.9629 23.1207C41.3146 23.1207 40.6644 23.1054 40.3135 23.1054V23.4893C40.8377 23.4893 41.1011 23.6184 41.4679 24.4655C41.7719 25.1809 42.1076 26.028 42.5039 27.0081C43.1056 28.5165 43.6057 29.7867 43.6057 29.7867C43.75 29.776 43.9243 29.776 44.0718 29.7867C44.0718 29.7867 45.1158 27.2959 45.5448 26.2803C46.4708 24.1079 46.8531 23.4893 47.6521 23.4893V23.1054C47.3329 23.1047 46.8953 23.1204 46.3073 23.1204Z" fill="#007A53"/>
<path d="M53.1084 28.1275C52.5845 28.663 51.8337 29.2321 51.1071 29.2321C49.4075 29.2321 48.7529 27.8573 48.8659 25.9187H53.2753L53.2703 25.7586C53.2518 25.3277 53.0741 24.7632 53.0741 24.7632C52.7908 23.9083 52.0165 22.9927 50.8205 22.9927C49.2688 22.9927 47.4224 24.185 47.4224 26.6605C47.4224 28.4039 48.5755 30 50.3661 30C51.591 30 52.576 29.4169 53.374 28.5542L53.1084 28.1275ZM50.5483 23.4849C51.5618 23.4849 51.9943 24.4229 51.9943 25.3642H48.9303C49.0321 24.4073 49.675 23.4849 50.5483 23.4849Z" fill="#007A53"/>
<path d="M57.8199 24.7634C57.83 23.9808 57.5022 23.4287 56.5757 23.4287C55.8528 23.4287 55.3565 23.7576 55.3492 24.3227C55.3451 24.9036 56.0844 25.2324 56.8308 25.6913C58.0963 26.4661 58.6681 27.0153 58.6579 27.8643C58.6474 29.1003 57.3509 29.963 56.0038 29.963C55.2356 29.963 54.5886 29.7069 54.1158 29.3959L54.1263 28.6805C54.1288 28.4901 54.1044 28.1456 54.0933 27.7438H54.4391C54.4255 28.9644 55.2267 29.4543 56.0987 29.4543C56.8635 29.4543 57.4064 29.0537 57.4156 28.3542C57.4229 27.5805 56.5922 27.3008 55.704 26.7646C54.7663 26.1995 54.124 25.6627 54.1348 24.6653C54.1494 23.5046 55.5402 22.9512 56.5531 22.9512C56.8736 22.9512 57.1399 22.99 57.3245 23.033C57.6498 23.1067 58.0909 23.2736 58.193 23.3612C58.1692 23.592 58.148 24.5773 58.1648 24.7637H57.8199V24.7634Z" fill="#007A53"/>
<path d="M63.2045 28.8185C62.7657 29.1308 62.5559 29.21 62.3271 29.21C61.6148 29.21 61.5005 28.5418 61.5005 27.7068C61.5005 27.7068 61.5005 24.7241 61.5281 23.6965H62.8986V23.113H61.5281L61.5554 21.4768C61.2003 21.5798 60.6393 21.676 60.2614 21.7542C60.2614 21.7542 60.2522 22.3135 60.2417 23.1169L59.4995 23.3324V23.6961H60.2341C60.217 25.1012 60.1992 26.9395 60.1992 28.0343C60.1992 28.9893 60.6282 29.9564 61.7455 29.9564C62.3138 29.9564 62.9469 29.5568 63.3296 29.2563L63.2045 28.8185Z" fill="#007A53"/>
<path d="M74.5419 28.9846C74.4816 28.585 74.5114 27.5198 74.5114 26.7741V24.9107C74.5114 23.7341 73.9002 22.9437 72.7842 22.9437C71.9126 22.9437 70.7242 23.5786 70.2473 24.2116C70.1162 23.2866 69.1754 22.9052 68.4763 22.9052C67.5221 22.9052 66.6044 23.431 66.112 24.149V22.991C65.6452 23.0343 64.625 23.0943 63.9224 23.1148V23.5007C64.4375 23.5007 64.4752 23.5118 64.6098 23.6872C64.7652 23.8928 64.8106 24.3729 64.8106 26.6414C64.8106 27.1783 64.8106 28.8376 64.7084 29.0925C64.6482 29.2336 64.5431 29.4562 63.8247 29.4562V29.7857C64.2074 29.7857 64.7881 29.7626 65.4792 29.7626C66.0878 29.7626 66.6603 29.7779 66.917 29.7857V29.4562C66.6047 29.4562 66.2693 29.4047 66.1707 29.1374C66.0951 28.8653 66.0951 27.7151 66.0951 26.6574V24.6125C66.8773 23.6673 67.3727 23.7214 67.7509 23.7214C68.2735 23.7214 68.6051 23.9906 68.7428 24.2162C69.0119 24.662 69.0167 25.6851 69.0167 26.7744C69.0167 27.4615 69.0316 28.599 68.9031 29.1062C68.8304 29.3894 68.4541 29.4565 68.0162 29.4565V29.7861C68.4024 29.7786 68.9006 29.7629 69.5514 29.7629C70.1568 29.7629 70.7699 29.7782 71.1332 29.7861V29.4565C70.6407 29.4565 70.5065 29.3741 70.3929 29.1198C70.3206 28.9539 70.3056 28.3992 70.3056 26.7747V24.6128C70.8384 24.0147 71.5724 23.8619 72.0366 23.8508C72.4292 23.841 72.7055 24.0173 72.8769 24.2119C73.225 24.6001 73.225 25.6268 73.225 26.7617C73.225 27.4455 73.225 28.6903 73.1254 29.1062C73.0514 29.3894 72.6751 29.4565 72.2384 29.4565V29.7861C72.6221 29.7786 73.1254 29.7629 73.773 29.7629C74.3651 29.7629 74.9585 29.7828 75.3266 29.7861V29.4565C74.8189 29.4559 74.6161 29.3581 74.5419 28.9846Z" fill="#007A53"/>
<path d="M81.3722 28.1275C80.8477 28.663 80.0969 29.2321 79.3703 29.2321C77.6713 29.2321 77.0161 27.8573 77.1287 25.9187H81.5385L81.5331 25.7586C81.5131 25.3277 81.3361 24.7632 81.3361 24.7632C81.054 23.9083 80.2797 22.9927 79.0834 22.9927C77.532 22.9927 75.6855 24.185 75.6855 26.6605C75.6855 28.4039 76.8381 30 78.6293 30C79.8539 30 80.8385 29.4169 81.6369 28.5542L81.3722 28.1275ZM78.8102 23.4849C79.8244 23.4849 80.2575 24.4229 80.2575 25.3642H77.1922C77.2925 24.4073 77.9382 23.4849 78.8102 23.4849Z" fill="#007A53"/>
<path d="M87.0343 24.1962C87.3034 24.645 87.312 25.6678 87.312 26.758C87.312 27.4438 87.3259 28.5618 87.1971 29.067C87.1232 29.3502 86.7443 29.4516 86.3115 29.4516V29.7856C86.6485 29.7856 87.4427 29.7625 87.8594 29.7625C88.4572 29.7592 89.0607 29.7798 89.4241 29.7856V29.4519C88.9341 29.4519 88.8021 29.3368 88.6866 29.0829C88.6127 28.9196 88.5994 28.3835 88.5994 26.7584V24.7138C88.5994 24.3719 88.5673 24.1636 88.4727 23.9185C88.1811 23.1682 87.398 22.8902 86.7725 22.8902C85.8139 22.8902 84.8892 23.4107 84.3933 24.1339V22.9932C83.8827 23.0378 82.6245 23.1076 82.2098 23.1229V23.5023C82.8774 23.5023 82.872 23.6828 82.953 23.8582C83.011 23.986 83.1034 24.2086 83.1034 26.6215C83.1034 27.1602 83.1034 28.7984 83.0009 29.052C82.9323 29.2306 82.8006 29.4522 82.1343 29.4522V29.7863C82.4811 29.7863 83.1262 29.7632 83.6939 29.7632C84.3276 29.7599 84.9641 29.783 85.3208 29.7863V29.4519C84.9013 29.4519 84.5656 29.3658 84.464 29.0982C84.3901 28.8277 84.3901 27.6944 84.3901 26.6397V24.5971C85.1714 23.6506 85.6695 23.7037 86.0494 23.7037C86.5688 23.7034 86.8979 23.9729 87.0343 24.1962Z" fill="#007A53"/>
<path d="M93.6046 28.8185C93.1661 29.1308 92.9576 29.21 92.7288 29.21C92.0155 29.21 91.9 28.5418 91.9 27.7068C91.9 27.7068 91.9 24.7241 91.9282 23.6965H93.3V23.113H91.9282L91.9571 21.4768C91.603 21.5798 91.0413 21.676 90.6608 21.7542C90.6608 21.7542 90.6532 22.3135 90.6418 23.1169L89.8999 23.3324V23.6961H90.6354C90.6189 25.1012 90.5996 26.9395 90.5996 28.0343C90.5996 28.9893 91.0292 29.9564 92.1462 29.9564C92.7158 29.9564 93.3476 29.5568 93.7293 29.2563L93.6046 28.8185Z" fill="#007A53"/>
<path d="M98.3141 24.7632C98.3233 23.9806 97.9981 23.4285 97.0712 23.4285C96.3483 23.4285 95.8517 23.7574 95.8444 24.3226C95.8393 24.9034 96.5812 25.2322 97.3244 25.6912C98.5899 26.4659 99.1633 27.0151 99.1547 27.8642C99.1407 29.1001 97.8451 29.9629 96.4978 29.9629C95.7289 29.9629 95.0825 29.7067 94.6091 29.3957L94.6212 28.6803C94.6243 28.49 94.5986 28.1454 94.5859 27.7436H94.9328C94.9194 28.9642 95.7216 29.4541 96.592 29.4541C97.3584 29.4541 97.8997 29.0535 97.9111 28.354C97.9168 27.5803 97.088 27.3006 96.1982 26.7645C95.2599 26.1993 94.6186 25.6625 94.63 24.6651C94.644 23.5045 96.0364 22.951 97.0483 22.951C97.3685 22.951 97.6351 22.9898 97.8185 23.0328C98.1463 23.1065 98.5873 23.2734 98.6889 23.361C98.6644 23.5918 98.6429 24.5771 98.6581 24.7635H98.3141V24.7632Z" fill="#007A53"/>
<path d="M19.1831 23.2129L19.997 23.7472C20.6237 22.7742 21.8299 21.8284 22.766 21.5161L22.6552 20.48C21.3377 20.8929 19.9456 22.0129 19.1831 23.2129Z" fill="#007A53"/>
<path d="M17.5166 22.5461L18.4536 22.8841C19.6699 20.8545 21.6798 19.3679 23.897 18.941L23.7097 17.9403C21.0918 18.4648 18.8557 20.1137 17.5166 22.5461Z" fill="#007A53"/>
<path d="M14.1884 22.8192L15.1245 22.5884C13.0695 15.9791 8.179 10.9832 1.51719 9.01062L1.27539 9.99005C7.80996 11.8642 12.3832 17.0087 14.1884 22.8192Z" fill="#007A53"/>
<path d="M8.81043 22.8777L9.76652 22.6003C8.18849 19.1164 5.0375 16.6758 1.35437 15.9933L1.21729 16.978C4.52249 17.6034 7.35171 19.7758 8.81043 22.8777Z" fill="#007A53"/>
<path d="M1.31762 18.1629L1.17578 19.1563C3.50269 19.5047 5.531 20.8544 6.79901 22.8801L7.6929 22.462C6.27828 20.1227 3.972 18.5615 1.31762 18.1629Z" fill="#007A53"/>
<path d="M2.06672 20.4709L1.94678 21.4657C3.30427 21.832 4.50945 22.6723 5.37098 23.8424L6.19252 23.3535C5.17773 21.9148 3.71457 20.8917 2.06672 20.4709Z" fill="#007A53"/>
<path d="M16.4142 20.8918L16.0674 19.986C18.1354 16.7899 21.4492 14.686 25.1085 14.2026L24.8635 13.2072C21.1715 13.7294 17.8136 15.7854 15.5968 18.9036L15.1897 18.0663C17.4871 14.8359 20.865 12.6404 24.6163 11.9146L24.3777 10.9416C20.5499 11.6991 17.0889 13.8887 14.6683 17.11L14.1257 16.2055C16.5513 13.0938 19.8464 10.8686 23.5409 9.80804L23.2217 8.84164C19.4443 9.93874 16.0687 12.1929 13.5466 15.3343C13.5466 15.3343 13.0329 14.6306 13.0303 14.626C15.573 11.4439 18.9607 9.02156 22.7305 7.66599L22.3887 6.71035C21.2445 7.12331 20.1339 7.63373 19.0686 8.22628C19.6477 6.97794 20.3512 5.76253 21.1728 4.73975L20.4179 4.09505C19.2584 5.5435 18.3201 7.33582 17.6264 9.10076C17.1968 9.38204 16.7785 9.67897 16.3689 9.98861C17.0448 7.49814 18.1728 5.0621 19.6877 3.10649L18.8674 2.54001C17.0397 4.93629 15.7536 7.97465 15.118 11.0065C14.7401 11.3367 14.3717 11.6792 14.015 12.0348C14.4367 8.61544 15.8275 5.07155 17.3135 2.60585L16.4695 2.08859C14.887 4.73258 13.2376 8.79275 12.9161 13.2085C12.7387 13.4106 12.5652 13.6163 12.3951 13.8255C12.2964 13.7049 12.1955 13.5856 12.0939 13.4667C12.2434 9.04665 13.5463 4.61231 15.8688 1.00062L15.0072 0.498681C12.7857 3.99336 11.472 8.20183 11.1718 12.4589C11.095 12.38 10.3614 11.6509 10.3614 11.6509C10.6939 7.62004 11.8239 3.74304 13.6469 0.498681L12.7933 0C11.0112 3.18373 9.86761 6.94046 9.45637 10.8634C9.20886 10.6568 8.95691 10.4563 8.70146 10.2601C9.09145 6.90852 9.85778 3.87374 11.0125 1.21997L10.1856 0.656759C9.72704 1.69421 9.32722 2.78707 8.98388 3.93175C8.58882 3.11887 8.12775 2.34575 7.60259 1.61957L6.87053 2.31121C7.55975 3.27369 8.13061 4.32483 8.572 5.44475C8.42222 6.05001 8.28704 6.66798 8.16741 7.29834C7.6432 5.68463 6.82928 4.12536 5.75578 2.84281L5.02976 3.52662C6.36599 5.16672 7.40077 7.4512 7.82598 9.40062C7.81805 9.46776 7.80884 9.53425 7.80028 9.6014C7.45313 9.36151 7.09963 9.12977 6.74106 8.90976C6.17496 7.17122 5.09703 5.31828 4.0413 4.06017L3.37588 4.8196C4.1511 5.7596 4.81937 6.8919 5.37214 8.13567C4.33832 7.59689 3.26609 7.137 2.16404 6.76674L1.92383 7.74715C8.13854 9.86866 13.6323 14.9477 15.8964 22.4556L16.704 22.4211C18.1763 19.4234 20.8834 17.3443 24.028 16.6983L23.8421 15.6977C20.5473 16.3786 17.9745 18.4013 16.4142 20.8918Z" fill="#007A53"/>
<path d="M13.7571 26.6352C13.7095 26.1022 13.6793 24.3618 13.6667 23.8067C12.0074 17.5836 7.42465 12.6284 0.596244 11.2025L0.41442 12.1874C4.95241 13.0828 10.3161 16.3656 12.4789 23.221L11.9071 23.426C10.1825 18.0934 5.57722 14.1962 0.174843 13.4824L0 14.4758C6.34513 15.2864 10.6708 20.7012 11.1135 24.6535C11.1452 24.9374 11.1605 26.2652 11.1072 26.7632C10.9974 27.7942 10.6426 27.9477 10.4227 28.0794C9.51198 28.6266 6.97247 28.9079 6.97247 28.9079V29.7879C8.24715 29.7827 10.2377 29.5751 12.6541 29.5751C15.0635 29.5751 17.003 29.7853 18.1196 29.7853V28.9079C18.1196 28.9079 16.0957 28.5402 14.6691 28.0807C13.8802 27.741 13.8313 27.4676 13.7571 26.6352Z" fill="#007A53"/>
</svg>
