<svg width="99" height="32" viewBox="0 0 99 32" fill="none" xmlns="http://www.w3.org/2000/svg">
<g clip-path="url(#clip0_2639_23226)">
<path d="M0 0.207275H17.1851C19.3825 0.207275 20.5828 0.412119 21.58 0.905607C23.1203 1.72033 23.7501 3.03086 23.7501 5.50529C23.7501 7.97971 22.8944 9.34844 21.0963 9.6976C23.6657 10.1934 24.5214 11.327 24.5214 14.1529C24.5214 16.5994 23.8368 18.1427 22.3239 18.9574C21.4385 19.423 20.1835 19.6278 17.986 19.6278H0V0.207275ZM15.3846 7.95178C16.4982 7.95178 16.8975 7.89358 17.2695 7.719C17.7259 7.45596 18.0111 6.93221 18.0111 6.26414C18.0111 5.47735 17.6392 4.89541 17.0116 4.66263C16.6397 4.54624 16.3544 4.51598 15.2409 4.51598H5.65229V7.95178H15.3869H15.3846ZM16.0144 15.3191C17.1851 15.3191 17.4133 15.2912 17.7852 15.1748C18.3557 14.97 18.698 14.388 18.698 13.5733C18.698 12.7586 18.3557 12.1464 17.7282 11.9136C17.3859 11.7972 17.1577 11.7694 15.873 11.7694H5.65229V15.3215H16.0144V15.3191Z" fill="#333333"/>
<path d="M49.2389 0.293299C52.178 0.847309 53.6065 2.39062 54.0058 5.50518C54.1199 6.29197 54.177 7.86322 54.177 10.2212C54.177 14.9094 53.6909 16.8019 52.0639 18.1706C50.923 19.1599 49.3234 19.6255 46.5554 19.7418C45.5286 19.8 42.9865 19.8303 41.1313 19.8303C36.5926 19.8303 34.281 19.7418 33.1378 19.5091C31.0247 19.1296 29.7971 18.3149 29.0851 16.888C28.3435 15.4611 28.1724 14.0341 28.1724 9.78363C28.1724 6.52242 28.2294 5.7077 28.5717 4.39716C29.1148 2.3301 30.2284 1.22441 32.3688 0.581943C33.9684 0.116389 35.7095 0 40.732 0C46.2131 0 47.8972 0.0581943 49.2389 0.290972V0.293299ZM35.0226 5.44699C34.2514 6.05919 34.0232 7.01823 34.0232 9.81389C34.0232 12.6095 34.2514 13.7152 34.9656 14.3274C35.7369 14.9676 36.6793 15.084 41.0446 15.084C46.0397 15.084 47.0666 14.9094 47.7238 13.9783C48.2668 13.2799 48.4083 12.2883 48.4083 9.6975C48.4083 4.80452 48.3216 4.74633 41.1861 4.74633C36.9326 4.74633 35.762 4.89298 35.0204 5.44466L35.0226 5.44699Z" fill="#333333"/>
<path d="M58.7432 0.207275H75.1844C79.2097 0.207275 81.0922 0.67283 82.4066 2.01363C83.4632 3.06113 83.8899 4.28553 84.0907 6.75996C84.1477 7.66313 84.2048 9.0016 84.2048 9.93504C84.2048 11.6808 84.0907 13.692 83.9195 14.7977C83.6046 17.1278 82.0073 18.9318 79.9239 19.3392C78.84 19.572 77.982 19.6302 75.9557 19.6302H58.7432V0.207275ZM74.242 14.9979C75.8119 14.9979 75.926 14.9979 76.6106 14.7651C78.0094 14.3275 78.3813 13.3103 78.3813 9.96064C78.3813 5.88471 77.6968 5.03973 74.356 5.03973H64.537V14.9979H74.242Z" fill="#333333"/>
<path d="M94.3298 15.7681C94.7017 16.2663 94.51 16.8413 94.0217 17.3138C91.8128 19.4367 89.6678 19.6322 88.3078 19.6322C87.0619 19.6322 86.3819 18.8059 86.9843 16.8692C87.7031 14.6555 88.5771 12.2835 89.1407 10.4375C89.3985 9.62515 89.3598 9.39004 89.0243 9.39004C88.6387 9.39004 87.7784 9.78343 86.9569 10.2932C86.6101 9.7555 87.0345 9.14097 88.1115 8.41936C90.268 7.00407 91.7831 6.68982 93.004 6.68982C94.2887 6.68982 94.5967 7.54179 93.7616 10.1093C93.1956 11.8249 92.3627 14.1969 91.7968 15.9125C91.539 16.6061 91.539 16.9995 91.8356 16.9995C92.1323 16.9995 93.0816 16.6061 94.2887 15.703L94.3275 15.7681H94.3298Z" fill="#333333"/>
<path d="M95.0507 2.26258C95.0507 3.6639 93.8047 4.9884 91.9678 4.9884C90.4663 4.9884 89.4258 4.17601 89.4258 2.8259C89.4258 1.64804 90.5439 0.139648 92.6752 0.139648C94.3182 0.139648 95.0507 1.108 95.0507 2.26258Z" fill="#333333"/>
<path d="M1.885 25.9312C2.24554 25.9312 2.55818 25.9685 2.8206 26.0406C3.08301 26.1128 3.2975 26.2175 3.46637 26.3502C3.63523 26.4852 3.75846 26.6482 3.83833 26.8437C3.91819 27.0392 3.95698 27.2557 3.95698 27.5001C3.95698 27.6491 3.93417 27.7888 3.88853 27.9261C3.84289 28.0611 3.77443 28.1868 3.68544 28.3055C3.59416 28.4219 3.48006 28.529 3.34314 28.6221C3.20395 28.7152 3.04194 28.792 2.85711 28.8502C3.29067 28.934 3.6147 29.09 3.83148 29.3204C4.04826 29.5509 4.15778 29.8535 4.15778 30.2283C4.15778 30.482 4.11215 30.7148 4.02087 30.9243C3.92959 31.1338 3.79496 31.313 3.61925 31.4643C3.44355 31.6156 3.22448 31.732 2.96891 31.8135C2.71105 31.895 2.41897 31.9369 2.09037 31.9369H0.00927734V25.9335H1.88728L1.885 25.9312ZM0.8011 26.5714V28.6198H1.85306C2.07668 28.6198 2.27293 28.5942 2.43722 28.5453C2.6038 28.4941 2.74073 28.4243 2.84798 28.3358C2.95523 28.2473 3.03508 28.1379 3.08757 28.0099C3.14005 27.8819 3.16515 27.7445 3.16515 27.5932C3.16515 27.2394 3.0602 26.9787 2.85254 26.8158C2.64489 26.6528 2.32085 26.5714 1.88273 26.5714H0.8011ZM2.0744 31.2897C2.30259 31.2897 2.49656 31.2641 2.66086 31.2106C2.82516 31.1571 2.95978 31.0826 3.06475 30.9871C3.16972 30.8917 3.2473 30.7753 3.2975 30.6426C3.34771 30.5099 3.37053 30.3633 3.37053 30.205C3.37053 29.8954 3.26328 29.6487 3.04649 29.4694C2.82971 29.2902 2.50568 29.1994 2.07212 29.1994H0.8011V31.2897H2.0744Z" fill="#333333"/>
<path d="M10.2985 29.5418V31.9348H9.5021V29.5418L7.3457 25.9291H8.04396C8.1147 25.9291 8.17175 25.9478 8.21283 25.9804C8.2539 26.0153 8.29041 26.0618 8.32008 26.1154L9.6664 28.4501C9.7166 28.5479 9.75996 28.6387 9.80104 28.7248C9.84211 28.8109 9.87862 28.8971 9.90828 28.9832C9.93795 28.8971 9.97218 28.8109 10.0109 28.7248C10.0497 28.6387 10.0908 28.5479 10.1387 28.4501L11.4828 26.1154C11.5079 26.0688 11.5421 26.0246 11.5855 25.985C11.6288 25.9454 11.6859 25.9268 11.7543 25.9268H12.4571L10.3007 29.5395L10.2985 29.5418Z" fill="#333333"/>
<path d="M22.785 25.9312C23.1456 25.9312 23.4582 25.9685 23.7206 26.0406C23.983 26.1128 24.1975 26.2175 24.3664 26.3502C24.5352 26.4852 24.6585 26.6482 24.7383 26.8437C24.8182 27.0392 24.857 27.2557 24.857 27.5001C24.857 27.6491 24.8342 27.7888 24.7885 27.9261C24.7429 28.0611 24.6744 28.1868 24.5854 28.3055C24.4942 28.4219 24.3801 28.529 24.2431 28.6221C24.104 28.7152 23.9419 28.792 23.7571 28.8502C24.1907 28.934 24.5147 29.09 24.7315 29.3204C24.9483 29.5509 25.0578 29.8535 25.0578 30.2283C25.0578 30.482 25.0122 30.7148 24.9209 30.9243C24.8296 31.1338 24.695 31.313 24.5193 31.4643C24.3436 31.6156 24.1245 31.732 23.8689 31.8135C23.6111 31.895 23.319 31.9369 22.9904 31.9369H20.9116V25.9335H22.7896L22.785 25.9312ZM21.7011 26.5714V28.6198H22.7531C22.9767 28.6198 23.1729 28.5942 23.3372 28.5453C23.5038 28.4941 23.6407 28.4243 23.748 28.3358C23.8552 28.2473 23.9351 28.1379 23.9876 28.0099C24.0401 27.8819 24.0652 27.7445 24.0652 27.5932C24.0652 27.2394 23.9602 26.9787 23.7525 26.8158C23.5449 26.6528 23.2209 26.5714 22.7827 26.5714H21.6988H21.7011ZM22.9744 31.2897C23.2026 31.2897 23.3966 31.2641 23.5609 31.2106C23.7252 31.1571 23.8598 31.0826 23.9648 30.9871C24.0697 30.8917 24.1473 30.7753 24.1975 30.6426C24.2477 30.5099 24.2705 30.3633 24.2705 30.205C24.2705 29.8954 24.1633 29.6487 23.9465 29.4694C23.7297 29.2902 23.4057 29.1994 22.9721 29.1994H21.6988V31.2897H22.9744Z" fill="#333333"/>
<path d="M32.8068 31.2734L32.8022 31.9345H29.1763V25.9312H32.8022V26.5923H29.9727V28.5872H32.2637V29.225H29.9727V31.2734H32.8068Z" fill="#333333"/>
<path d="M41.6632 31.9345H41.047C40.9763 31.9345 40.9193 31.9159 40.8736 31.881C40.8303 31.8438 40.796 31.7995 40.7755 31.7437L40.2256 30.2935H37.5854L37.0354 31.7437C37.0195 31.7949 36.9875 31.8391 36.9419 31.8787C36.8962 31.9183 36.8369 31.9369 36.7685 31.9369H36.1523L38.505 25.9336H39.3105L41.6632 31.9369V31.9345ZM40.0019 29.7069L39.0778 27.265C39.0504 27.1929 39.0207 27.1091 38.991 27.0113C38.9614 26.9159 38.9317 26.8135 38.9043 26.704C38.8473 26.9298 38.7879 27.1184 38.7286 27.2697L37.8044 29.7092H40.0019V29.7069Z" fill="#333333"/>
<path d="M49.3761 30.6941C49.4194 30.6941 49.4582 30.7127 49.4902 30.7477L49.8073 31.0945C49.5655 31.3785 49.2734 31.6019 48.9311 31.7602C48.5865 31.9185 48.1712 32 47.6852 32C47.263 32 46.8796 31.9255 46.5351 31.7765C46.1905 31.6276 45.8961 31.4181 45.652 31.148C45.4078 30.878 45.2184 30.5545 45.0861 30.1774C44.9537 29.8003 44.8853 29.3859 44.8853 28.932C44.8853 28.4781 44.956 28.0637 45.0952 27.6866C45.2344 27.3095 45.4306 26.986 45.6839 26.7136C45.9372 26.4413 46.2407 26.2318 46.5944 26.0828C46.9481 25.9338 47.3383 25.8593 47.765 25.8593C48.1917 25.8593 48.5546 25.9268 48.874 26.0642C49.1935 26.2015 49.4765 26.3877 49.7206 26.6205L49.4582 26.993C49.4422 27.0209 49.4194 27.0442 49.3943 27.0628C49.3692 27.0814 49.3327 27.0907 49.2893 27.0907C49.2391 27.0907 49.1798 27.0628 49.1091 27.0093C49.0383 26.9557 48.9448 26.8929 48.8307 26.8277C48.7166 26.7602 48.5728 26.6997 48.3994 26.6461C48.226 26.5926 48.0138 26.5646 47.7627 26.5646C47.4592 26.5646 47.1809 26.6182 46.9298 26.7253C46.6788 26.8323 46.4621 26.9883 46.2795 27.1931C46.0969 27.398 45.9555 27.6447 45.8551 27.938C45.7547 28.2313 45.7022 28.5619 45.7022 28.932C45.7022 29.3021 45.7547 29.6396 45.8596 29.9329C45.9646 30.2262 46.1084 30.4753 46.2909 30.6778C46.4735 30.8803 46.688 31.034 46.9367 31.1411C47.1854 31.2481 47.4524 31.2993 47.7399 31.2993C47.9156 31.2993 48.0731 31.29 48.2146 31.2691C48.356 31.2481 48.4861 31.2155 48.6048 31.1713C48.7234 31.1271 48.8352 31.0712 48.9379 31.0014C49.0406 30.9339 49.1433 30.8501 49.2437 30.757C49.2893 30.7151 49.3373 30.6941 49.3829 30.6941H49.3761Z" fill="#333333"/>
<path d="M58.4578 25.9312V31.9345H57.6614V29.2017H54.4873V31.9345H53.6909V25.9312H54.4873V28.6082H57.6614V25.9312H58.4578Z" fill="#333333"/>
<path d="M64.7949 25.9312C65.1555 25.9312 65.4681 25.9685 65.7305 26.0406C65.9929 26.1128 66.2074 26.2175 66.3763 26.3502C66.5451 26.4852 66.6684 26.6482 66.7482 26.8437C66.8281 27.0369 66.8669 27.2557 66.8669 27.5001C66.8669 27.6491 66.8441 27.7888 66.7984 27.9261C66.7528 28.0611 66.6843 28.1868 66.5953 28.3055C66.5041 28.4219 66.39 28.529 66.2531 28.6221C66.1139 28.7152 65.9518 28.792 65.767 28.8502C66.2006 28.934 66.5246 29.09 66.7437 29.3204C66.9627 29.5509 67.07 29.8535 67.07 30.2283C67.07 30.482 67.0243 30.7148 66.9331 30.9243C66.8418 31.1338 66.7072 31.313 66.5314 31.4643C66.3557 31.6156 66.1367 31.732 65.8811 31.8135C65.6232 31.895 65.3312 31.9369 65.0026 31.9369H62.9238V25.9335H64.8018L64.7949 25.9312ZM63.711 26.5714V28.6198H64.763C64.9866 28.6198 65.1828 28.5942 65.3494 28.5453C65.516 28.4941 65.6529 28.4243 65.7602 28.3358C65.8674 28.2473 65.9473 28.1379 65.9998 28.0099C66.0523 27.8819 66.0774 27.7445 66.0774 27.5932C66.0774 27.2394 65.9724 26.9787 65.7647 26.8158C65.5571 26.6528 65.233 26.5714 64.7949 26.5714H63.711ZM64.9843 31.2897C65.2125 31.2897 65.4065 31.2641 65.5708 31.2106C65.7351 31.1571 65.8697 31.0826 65.9747 30.9871C66.0796 30.8917 66.1572 30.7753 66.2074 30.6426C66.2576 30.5099 66.2804 30.3633 66.2804 30.205C66.2804 29.8954 66.1732 29.6487 65.9564 29.4694C65.7396 29.2902 65.4156 29.1994 64.982 29.1994H63.7087V31.2897H64.9843Z" fill="#333333"/>
<path d="M76.6243 28.9343C76.6243 29.3836 76.5535 29.7979 76.4143 30.1727C76.2751 30.5475 76.0766 30.871 75.8233 31.1434C75.5677 31.4134 75.262 31.6252 74.906 31.7742C74.5477 31.9232 74.153 31.9977 73.7217 31.9977C73.2904 31.9977 72.8956 31.9232 72.5397 31.7742C72.1837 31.6252 71.8779 31.4157 71.6246 31.1434C71.369 30.8734 71.1728 30.5498 71.0336 30.1727C70.8944 29.7979 70.8237 29.3836 70.8237 28.9343C70.8237 28.4851 70.8944 28.0707 71.0336 27.696C71.1728 27.3212 71.3713 26.9953 71.6246 26.723C71.8779 26.4506 72.1837 26.2388 72.5397 26.0875C72.8956 25.9362 73.2904 25.8617 73.7217 25.8617C74.153 25.8617 74.55 25.9362 74.906 26.0875C75.2643 26.2388 75.57 26.4506 75.8233 26.723C76.0766 26.9953 76.2751 27.3189 76.4143 27.696C76.5535 28.0731 76.6243 28.4851 76.6243 28.9343ZM75.8073 28.9343C75.8073 28.5666 75.7571 28.2337 75.659 27.9404C75.5609 27.6471 75.4217 27.4003 75.2392 27.1978C75.0566 26.9953 74.8398 26.8393 74.582 26.7299C74.3241 26.6205 74.0366 26.567 73.7194 26.567C73.4022 26.567 73.1192 26.6205 72.8614 26.7299C72.6035 26.8393 72.3845 26.9953 72.2019 27.1978C72.0194 27.4003 71.8802 27.6471 71.7821 27.9404C71.6839 28.2337 71.6337 28.5642 71.6337 28.9343C71.6337 29.3045 71.6839 29.6327 71.7821 29.926C71.8802 30.2169 72.0217 30.466 72.2019 30.6685C72.3845 30.871 72.6035 31.027 72.8614 31.1341C73.1192 31.2412 73.4045 31.2947 73.7194 31.2947C74.0343 31.2947 74.3241 31.2412 74.582 31.1341C74.8398 31.027 75.0589 30.871 75.2392 30.6685C75.4194 30.466 75.5586 30.2193 75.659 29.926C75.7571 29.635 75.8073 29.3045 75.8073 28.9343Z" fill="#333333"/>
<path d="M85.8203 28.934C85.8203 29.3833 85.7495 29.793 85.6103 30.1608C85.4711 30.5286 85.2726 30.8451 85.0193 31.1082C84.7637 31.3712 84.458 31.5737 84.102 31.7181C83.7437 31.8624 83.3489 31.9345 82.9177 31.9345H80.7202V25.9312H82.9177C83.3512 25.9312 83.746 26.0034 84.102 26.1477C84.4602 26.292 84.766 26.4945 85.0193 26.7599C85.2749 27.0229 85.4711 27.3395 85.6103 27.7096C85.7495 28.0774 85.8203 28.4871 85.8203 28.9364V28.934ZM85.0033 28.934C85.0033 28.5662 84.9531 28.2357 84.855 27.9447C84.7569 27.6538 84.6177 27.4093 84.4351 27.2068C84.2549 27.0066 84.0358 26.853 83.778 26.7459C83.5201 26.6389 83.2326 26.5876 82.9154 26.5876H81.5143V31.2758H82.9154C83.2326 31.2758 83.5201 31.2222 83.778 31.1175C84.0358 31.0127 84.2549 30.8591 84.4351 30.6589C84.6154 30.4587 84.7546 30.2143 84.855 29.9233C84.9554 29.6324 85.0033 29.3042 85.0033 28.934Z" fill="#333333"/>
<path d="M91.8127 29.5418V31.9348H91.0163V29.5418L88.8599 25.9291H89.5582C89.6289 25.9291 89.686 25.9478 89.727 25.9804C89.7681 26.0153 89.8046 26.0618 89.8343 26.1154L91.1806 28.4501C91.2308 28.5479 91.2742 28.6387 91.3152 28.7248C91.3563 28.8109 91.3928 28.8971 91.4225 28.9832C91.4522 28.8971 91.4864 28.8109 91.5252 28.7248C91.564 28.6387 91.605 28.5479 91.653 28.4501L92.997 26.1154C93.0221 26.0688 93.0563 26.0246 93.0997 25.985C93.143 25.9454 93.2001 25.9268 93.2686 25.9268H93.9714L91.815 29.5395L91.8127 29.5418Z" fill="#333333"/>
<path d="M96.5864 0.802894C96.6435 0.677206 96.7188 0.570138 96.8123 0.481691C96.9059 0.393244 97.0154 0.325745 97.1409 0.276866C97.2641 0.227988 97.3942 0.204712 97.5311 0.204712C97.668 0.204712 97.7957 0.227988 97.9212 0.276866C98.0467 0.325745 98.154 0.393244 98.2498 0.481691C98.3433 0.570138 98.4186 0.677206 98.4757 0.802894C98.5327 0.928582 98.5601 1.06823 98.5601 1.22418C98.5601 1.38012 98.5327 1.5221 98.4757 1.64779C98.4186 1.77348 98.3433 1.88055 98.2498 1.96899C98.1562 2.05744 98.0467 2.12727 97.9212 2.17382C97.7957 2.22037 97.668 2.24365 97.5311 2.24365C97.3942 2.24365 97.2664 2.22037 97.1409 2.17382C97.0177 2.12727 96.9082 2.05744 96.8123 1.96899C96.7188 1.88055 96.6435 1.77348 96.5864 1.64779C96.5294 1.5221 96.502 1.38245 96.502 1.22418C96.502 1.0659 96.5294 0.928582 96.5864 0.802894ZM96.8328 1.54538C96.8716 1.64314 96.9264 1.72926 96.9926 1.80141C97.061 1.87356 97.1409 1.92943 97.2322 1.96899C97.3234 2.00856 97.4215 2.02951 97.5288 2.02951C97.636 2.02951 97.7296 2.00856 97.8208 1.96899C97.9121 1.92943 97.992 1.87356 98.0604 1.80141C98.1289 1.72926 98.1813 1.64546 98.2224 1.54538C98.2635 1.44762 98.2817 1.34055 98.2817 1.22418C98.2817 1.1078 98.2612 1.00073 98.2224 0.902979C98.1836 0.805222 98.1289 0.72143 98.0604 0.651603C97.992 0.581776 97.9121 0.525915 97.8208 0.486346C97.7296 0.446778 97.6314 0.42583 97.5288 0.42583C97.4261 0.42583 97.3257 0.446778 97.2322 0.486346C97.1409 0.525915 97.061 0.581776 96.9926 0.651603C96.9241 0.723757 96.8716 0.807549 96.8328 0.902979C96.7941 0.998409 96.7735 1.1078 96.7735 1.22418C96.7735 1.34055 96.7941 1.44762 96.8328 1.54538ZM97.5516 0.651603C97.693 0.651603 97.8003 0.677206 97.8756 0.728412C97.9509 0.779618 97.9897 0.865738 97.9897 0.991426C97.9897 1.04495 97.9828 1.08918 97.9669 1.12642C97.9509 1.16366 97.9304 1.19392 97.903 1.21719C97.8756 1.24047 97.8459 1.25909 97.8094 1.27073C97.7729 1.28237 97.7364 1.29168 97.6953 1.294L97.9942 1.7921H97.7615L97.4877 1.30331H97.3484V1.7921H97.1272V0.651603H97.5516ZM97.5493 1.12875C97.6132 1.12875 97.6656 1.11944 97.7066 1.10082C97.7477 1.0822 97.7683 1.03797 97.7683 0.970478C97.7683 0.94022 97.7615 0.914617 97.7478 0.895996C97.7341 0.877376 97.7159 0.863411 97.693 0.8541C97.6702 0.84479 97.6451 0.837807 97.6178 0.833152C97.5904 0.828497 97.563 0.828497 97.5379 0.828497H97.3508V1.12875H97.5493Z" fill="#333333"/>
</g>
<defs>
<clipPath id="clip0_2639_23226">
<rect width="99" height="32" fill="white"/>
</clipPath>
</defs>
</svg>
