<svg width="240" height="90" viewBox="0 0 240 90" fill="none" xmlns="http://www.w3.org/2000/svg">
<g clip-path="url(#clip0_2639_20983)">
<path d="M91.7089 46.7793L92.4515 43.932L92.8132 43.8741L94.9348 46.2349L94.9735 46.2783L97.8715 45.835L98.0784 45.4737C97.9339 45.3099 97.7609 45.1267 97.5776 44.9292C97.023 44.3463 96.3569 43.6766 95.909 43.166C97.3074 42.5878 98.5225 41.5424 98.8211 40.3813C98.9515 39.885 98.9326 39.4755 98.788 39.1431C98.7776 39.1142 98.7682 39.0853 98.754 39.0564C98.7294 39.013 98.7058 38.9696 98.6765 38.931C98.6283 38.8636 98.5754 38.8058 98.5131 38.748C98.4791 38.7143 98.445 38.6806 98.4016 38.6517C98.325 38.5939 98.2334 38.5457 98.137 38.5023C98.0983 38.483 98.0643 38.4637 98.0255 38.4445C97.8809 38.3915 97.7222 38.353 97.5436 38.3241C97.5096 38.3192 97.4661 38.3241 97.4331 38.3144C97.2876 38.2999 97.1335 38.2903 96.9654 38.2903C96.7093 38.2903 96.4391 38.3144 96.131 38.3578L90.9326 39.1527L88.8398 47.2033L91.6944 46.7648L91.7089 46.7793ZM93.3194 40.6029L95.1521 40.3234C95.2872 40.3042 95.3883 40.3138 95.4847 40.3234C95.5282 40.3282 95.5764 40.3331 95.6094 40.3476C95.668 40.3668 95.7115 40.3908 95.755 40.4197C95.7786 40.4342 95.8032 40.4535 95.8221 40.4728C95.8561 40.5114 95.875 40.5499 95.8891 40.598C95.8948 40.6174 95.909 40.6366 95.9137 40.6558C95.9232 40.7233 95.9232 40.7907 95.9043 40.8534C95.8466 41.0654 95.5906 41.3448 95.1852 41.5182C95.0501 41.5761 94.9008 41.6194 94.7326 41.6483L92.9723 41.9181L93.3146 40.6077L93.3194 40.6029Z" fill="#1F3521"/>
<path d="M99.4582 45.5893C99.5981 45.6183 99.7568 45.623 99.9307 45.5893C100.364 45.5123 100.799 45.2617 101.127 44.9292C101.237 44.8185 101.339 44.6932 101.421 44.5679C101.542 44.3849 101.638 44.1874 101.686 43.985C101.73 43.8019 101.73 43.6381 101.7 43.4936C101.691 43.4454 101.662 43.4117 101.648 43.3683C101.613 43.2816 101.579 43.1949 101.517 43.1323C101.483 43.0937 101.44 43.0696 101.396 43.0358C101.329 42.9877 101.256 42.9443 101.17 42.9154C101.112 42.8962 101.054 42.8865 100.992 42.8817C100.861 42.8673 100.731 42.848 100.577 42.8817C99.8003 43.0166 99.0141 43.7104 98.8318 44.4861C98.6919 45.0786 98.9612 45.4978 99.4535 45.5941" fill="#1F3521"/>
<path d="M82.9428 48.1234C83.6179 48.0223 84.2303 47.8392 84.7993 47.6175C86.9692 46.7745 88.382 45.1653 88.8594 43.349C89.3416 41.5086 88.681 39.9909 86.5062 39.938H86.434C86.1302 39.938 85.8071 39.9525 85.4454 40.0103L80.5897 40.7522L78.4873 48.8075L82.938 48.1283L82.9428 48.1234ZM82.938 42.3758L84.0567 42.2024C84.3268 42.159 84.5582 42.1445 84.7704 42.1398C84.9295 42.1398 85.0694 42.1445 85.1946 42.1638C85.2092 42.1638 85.2285 42.1638 85.2429 42.1638C85.3828 42.1879 85.5033 42.2265 85.6045 42.2698C85.6384 42.2842 85.6625 42.3036 85.6914 42.3228C85.754 42.3565 85.8119 42.3951 85.8601 42.4385C86.1784 42.7372 86.1928 43.2237 86.0385 43.8115C85.9131 44.3029 85.5997 44.7606 85.1561 45.1509C84.6305 45.6086 83.9169 45.9699 83.0007 46.1096L81.9157 46.2734C82.1134 45.5025 82.205 45.1894 82.9428 42.3662" fill="#1F3521"/>
<path d="M216.339 39.702L216.349 39.6586L217.452 33.2461L217.949 30.2976C218.027 29.7194 218.07 29.2232 218.08 28.7896C218.089 28.3513 218.065 27.9706 218.012 27.6141C217.979 27.3877 217.926 27.1757 217.862 26.9685C217.843 26.901 217.814 26.8432 217.79 26.7758C217.742 26.6457 217.694 26.5108 217.636 26.3904C217.602 26.3229 217.564 26.2603 217.525 26.1929C217.467 26.0917 217.404 25.9857 217.332 25.8942C217.289 25.8315 217.236 25.7737 217.188 25.7159C217.115 25.634 217.038 25.5521 216.956 25.4798C216.899 25.4268 216.84 25.3786 216.778 25.3353C216.691 25.2679 216.594 25.21 216.498 25.157C216.431 25.1185 216.367 25.0847 216.296 25.051C216.189 25.0029 216.074 24.9691 215.953 24.9306C215.881 24.9113 215.808 24.8872 215.736 24.868C215.596 24.8391 215.446 24.8246 215.297 24.8149C215.23 24.8149 215.172 24.8005 215.104 24.8005C214.877 24.8005 214.641 24.8149 214.391 24.8535C211.56 25.3016 209.496 28.0718 209.496 28.0718L211.661 15.0685L206.27 15.9213L202.76 36.4644C201.453 40.4439 199.143 42.8528 196.539 43.7152C196.169 43.8404 195.792 43.9272 195.411 43.9898C195.291 44.0091 195.146 44.0284 194.982 44.0476C194.934 44.0525 194.876 44.0525 194.828 44.0573C194.707 44.0669 194.587 44.0765 194.452 44.0765C194.292 44.0765 194.124 44.0765 193.96 44.0573C193.926 44.0573 193.893 44.0428 193.859 44.0428C193.719 44.0236 193.579 43.9947 193.444 43.9561C193.391 43.9416 193.343 43.9272 193.294 43.9127C193.15 43.8646 193.015 43.8019 192.88 43.7297C192.85 43.7152 192.822 43.7055 192.793 43.6863C192.639 43.59 192.494 43.4695 192.364 43.3298C192.33 43.2961 192.301 43.2479 192.267 43.2093C192.171 43.0889 192.084 42.954 192.007 42.7999C191.978 42.742 191.944 42.6842 191.921 42.6216C191.829 42.4048 191.751 42.1639 191.708 41.8796C191.341 39.5719 192.436 33.4725 194.904 33.0823C194.968 33.0727 195.025 33.0678 195.078 33.0678C195.078 33.0678 195.078 33.0678 195.083 33.0678C195.175 33.0678 195.252 33.0871 195.319 33.1209C195.324 33.1209 195.33 33.1209 195.334 33.1257C195.397 33.1642 195.445 33.2221 195.488 33.2942C195.488 33.3039 195.498 33.3087 195.503 33.3184C195.541 33.3954 195.56 33.4966 195.575 33.6171C195.575 33.6315 195.58 33.6508 195.585 33.6701C195.594 33.7953 195.594 33.9447 195.585 34.1133C195.585 34.1422 195.585 34.1711 195.58 34.2048C195.566 34.3831 195.541 34.5854 195.507 34.8168C195.503 34.8552 195.498 34.8938 195.488 34.9323C195.45 35.1733 195.402 35.4431 195.344 35.7465C195.334 35.7899 195.324 35.8381 195.315 35.8862C195.252 36.2043 195.175 36.5463 195.093 36.9366C195.083 36.9703 195.074 37.0136 195.069 37.0473C194.977 37.4617 194.871 37.9049 194.755 38.4011L200.147 37.5436C200.248 37.1293 200.335 36.7294 200.402 36.3439C200.426 36.2138 200.441 36.0934 200.459 35.9682C200.498 35.7128 200.537 35.4623 200.566 35.2214C200.58 35.0817 200.59 34.942 200.599 34.8071C200.619 34.5951 200.633 34.3783 200.638 34.176C200.638 34.0362 200.638 33.9013 200.638 33.7664C200.638 33.5737 200.638 33.3858 200.624 33.2076C200.614 33.0726 200.605 32.9474 200.59 32.8173C200.576 32.6439 200.551 32.4801 200.527 32.3163C200.508 32.191 200.484 32.0705 200.459 31.9549C200.426 31.8008 200.392 31.6466 200.349 31.5021C200.315 31.3913 200.287 31.2804 200.253 31.1744C200.204 31.0299 200.151 30.895 200.094 30.765C200.055 30.6686 200.016 30.5723 199.968 30.4807C199.906 30.3506 199.828 30.2253 199.756 30.1049C199.707 30.0278 199.664 29.9459 199.611 29.8688C199.524 29.7436 199.428 29.6279 199.331 29.5123C199.283 29.4545 199.24 29.3918 199.187 29.334C199.042 29.1799 198.883 29.0353 198.719 28.9053C198.71 28.9004 198.705 28.8908 198.7 28.8859C198.526 28.7511 198.343 28.6306 198.15 28.5246C198.088 28.4862 198.02 28.462 197.953 28.4283C197.818 28.3608 197.682 28.2982 197.543 28.2452C197.46 28.2163 197.373 28.1922 197.287 28.1633C197.157 28.12 197.022 28.0814 196.882 28.0525C196.786 28.0332 196.685 28.014 196.587 27.9995C196.447 27.9754 196.308 27.9562 196.169 27.9417C196.062 27.932 195.956 27.9272 195.846 27.9225C195.725 27.9176 195.599 27.9176 195.47 27.9225C195.122 27.9272 194.76 27.9514 194.384 28.0092C193.396 28.1633 192.518 28.4765 191.737 28.9101C191.476 29.0546 191.231 29.2136 190.99 29.3822C188.13 31.4202 186.809 35.2165 186.49 38.6228C186.119 39.7983 185.743 40.8438 185.362 41.7495C184.981 42.6553 184.605 43.431 184.229 44.0621C183.477 45.3243 182.734 46.0277 182.04 46.1434C181.996 46.153 181.948 46.153 181.905 46.153C181.886 46.153 181.861 46.153 181.842 46.153C181.827 46.153 181.808 46.153 181.794 46.153C181.77 46.153 181.746 46.1434 181.722 46.1386C181.707 46.1386 181.692 46.1337 181.678 46.1289C181.65 46.1192 181.62 46.1048 181.591 46.0903C181.582 46.0856 181.577 46.0808 181.567 46.0808C181.533 46.0566 181.499 46.0326 181.466 45.9988C181.456 45.9892 181.447 45.9796 181.442 45.9651C181.418 45.941 181.398 45.9121 181.375 45.8833C181.364 45.8688 181.355 45.8447 181.345 45.8254C181.327 45.7965 181.311 45.7627 181.293 45.7242C181.283 45.7001 181.273 45.6712 181.263 45.6472C181.249 45.6086 181.235 45.57 181.225 45.5267C181.215 45.4978 181.21 45.4592 181.201 45.4255C181.191 45.3774 181.181 45.334 181.172 45.281C181.167 45.2425 181.162 45.1991 181.153 45.1558C181.143 45.0979 181.139 45.0401 181.133 44.9823C181.128 44.9341 181.123 44.886 181.123 44.8329C181.123 44.7703 181.119 44.7028 181.114 44.6305C181.114 44.5728 181.114 44.515 181.114 44.4523C181.114 44.3752 181.114 44.2934 181.119 44.2066C181.119 44.1391 181.119 44.0765 181.128 44.0042C181.128 43.9127 181.139 43.8164 181.148 43.7152C181.153 43.6429 181.157 43.5706 181.162 43.4936C181.172 43.3828 181.187 43.2672 181.196 43.1467C181.206 43.0696 181.21 42.9925 181.22 42.9058C181.235 42.771 181.259 42.6216 181.278 42.477C181.288 42.4 181.297 42.3277 181.307 42.2506C181.341 42.0193 181.379 41.7737 181.428 41.5087L183.356 30.2494L187.71 29.5316L188.322 26.1398L183.911 26.8673L184.682 22.9794L179.291 23.8321L178.519 27.7249L176.143 28.1007L175.525 31.4924L177.96 31.107L176.336 40.5547C174.869 45.175 173.322 47.4972 172.227 47.6706C172.198 47.6755 172.164 47.6802 172.131 47.6802C172.116 47.6802 172.097 47.6802 172.083 47.6802C172.072 47.6802 172.058 47.6802 172.049 47.6802C172.029 47.6802 172.01 47.6707 171.991 47.6658C171.981 47.6658 171.971 47.661 171.967 47.6562C171.937 47.6418 171.909 47.6273 171.884 47.608C171.88 47.608 171.875 47.5984 171.87 47.5935C171.851 47.5743 171.827 47.555 171.808 47.5309C171.797 47.5213 171.788 47.5068 171.783 47.4924C171.769 47.4683 171.749 47.449 171.735 47.4201C171.726 47.4008 171.721 47.3815 171.711 47.3623C171.696 47.3334 171.687 47.3045 171.673 47.2708C171.663 47.2466 171.658 47.2225 171.648 47.1936C171.639 47.1599 171.629 47.1214 171.62 47.0781C171.609 47.0443 171.605 47.0106 171.6 46.9769C171.59 46.9335 171.586 46.8853 171.581 46.8372C171.576 46.7986 171.572 46.7552 171.567 46.7119C171.561 46.6589 171.556 46.6011 171.556 46.5433C171.556 46.4951 171.556 46.4469 171.552 46.3939C171.552 46.3264 171.552 46.259 171.552 46.1867C171.552 46.1289 171.552 46.0711 171.552 46.0085C171.552 45.9314 171.556 45.8495 171.561 45.7627C171.561 45.6953 171.567 45.6327 171.572 45.5604C171.576 45.4689 171.586 45.3677 171.595 45.2713C171.6 45.1942 171.605 45.122 171.615 45.0449C171.625 44.9341 171.639 44.8185 171.653 44.698C171.663 44.6161 171.673 44.539 171.682 44.4523C171.701 44.3126 171.721 44.168 171.744 44.0187C171.755 43.9368 171.764 43.8646 171.779 43.7778C171.813 43.5417 171.856 43.2912 171.899 43.0214L173.828 31.7574L168.432 32.615L167.969 35.207C167.969 35.207 167.955 35.1733 167.931 35.125C167.926 35.1154 167.921 35.1106 167.916 35.101C167.887 35.0432 167.844 34.9612 167.786 34.8697C167.776 34.8552 167.767 34.8408 167.757 34.8215C167.699 34.7251 167.622 34.6144 167.535 34.4939C167.521 34.4747 167.507 34.4506 167.492 34.4313C167.395 34.3109 167.289 34.1808 167.168 34.0507C167.15 34.0314 167.131 34.0122 167.106 33.9881C166.976 33.8579 166.831 33.7231 166.668 33.5978C166.648 33.5834 166.629 33.5737 166.609 33.5592C166.436 33.4291 166.242 33.3087 166.031 33.2027C166.026 33.2027 166.021 33.2027 166.017 33.1979C165.804 33.0967 165.573 33.0149 165.322 32.9474C165.298 32.9474 165.279 32.9329 165.254 32.9282C165.008 32.8703 164.738 32.8414 164.454 32.8366C164.406 32.8366 164.362 32.8366 164.314 32.8366C164.107 32.8366 163.89 32.8511 163.663 32.8896C162.404 33.092 161.373 33.7423 160.538 34.6866C160.206 35.0672 159.902 35.4912 159.627 35.9489C159.352 36.4114 159.107 36.9076 158.889 37.428C158.128 39.2539 157.688 41.3978 157.482 43.3973C156.922 45.1847 156.377 46.6251 155.856 47.7428C154.988 49.6025 154.178 50.5565 153.45 50.6721C153.412 50.6769 153.373 50.6818 153.334 50.6818C153.316 50.6818 153.291 50.6818 153.272 50.6818C153.257 50.6818 153.247 50.6818 153.233 50.6818C153.204 50.6769 153.18 50.6673 153.151 50.6577C153.146 50.6577 153.137 50.6577 153.132 50.6529C153.098 50.6384 153.069 50.6191 153.036 50.5998C153.025 50.595 153.016 50.5806 153.007 50.5758C152.988 50.5565 152.963 50.542 152.944 50.518C152.934 50.5035 152.924 50.4891 152.915 50.4746C152.896 50.4505 152.881 50.4312 152.867 50.4023C152.857 50.3831 152.848 50.3637 152.837 50.3397C152.823 50.3108 152.809 50.2819 152.794 50.2433C152.784 50.2193 152.775 50.1904 152.77 50.1615C152.761 50.1229 152.75 50.0844 152.736 50.041C152.727 50.0072 152.722 49.9735 152.717 49.9398C152.708 49.8964 152.702 49.8483 152.693 49.7953C152.688 49.7568 152.683 49.7134 152.679 49.67C152.674 49.6122 152.669 49.5544 152.665 49.4966C152.665 49.4484 152.66 49.3954 152.66 49.3424C152.66 49.2798 152.66 49.2075 152.66 49.1352C152.66 49.0774 152.66 49.0244 152.66 48.9667C152.66 48.8847 152.664 48.8028 152.669 48.7161C152.669 48.6534 152.674 48.5908 152.679 48.5185C152.683 48.427 152.693 48.321 152.702 48.2247C152.708 48.1524 152.713 48.0849 152.722 48.0078C152.732 47.8971 152.746 47.7718 152.761 47.6513C152.77 47.5743 152.775 47.502 152.785 47.4201C152.804 47.2756 152.823 47.1214 152.848 46.9672C152.857 46.8949 152.867 46.8323 152.876 46.76C152.91 46.524 152.954 46.2783 152.997 46.0133L154.926 34.754L149.535 35.6069L147.794 45.6905C147.264 47.2997 146.835 48.4945 146.459 49.3665C145.826 50.8167 145.335 51.3755 144.746 51.467C144.703 51.4719 144.659 51.4767 144.616 51.4767C144.607 51.4767 144.597 51.4767 144.592 51.4767C144.529 51.4767 144.471 51.467 144.414 51.443C144.414 51.443 144.404 51.443 144.404 51.4381C144.346 51.4189 144.293 51.3804 144.249 51.3321C144.249 51.3321 144.245 51.3321 144.245 51.3273C144.196 51.2743 144.158 51.2069 144.125 51.1202C144.12 51.1105 144.114 51.1009 144.11 51.0912C144.076 51.0045 144.052 50.8937 144.033 50.7685C144.033 50.7492 144.024 50.7299 144.024 50.7107C144.004 50.5806 143.994 50.4264 143.99 50.253C143.99 50.2241 143.99 50.1904 143.99 50.1615C143.99 49.9783 143.994 49.7712 144.013 49.5351C144.013 49.5013 144.018 49.4629 144.024 49.4243C144.042 49.1737 144.072 48.9039 144.11 48.5908C144.11 48.5571 144.12 48.5234 144.125 48.4897C144.168 48.1572 144.226 47.7959 144.293 47.3912L146.222 36.132L140.831 36.9847L139.187 46.5528C139.104 46.8131 139.018 47.0732 138.926 47.3286C138.902 47.4057 138.868 47.4779 138.845 47.555C138.781 47.7333 138.719 47.9115 138.651 48.0898C138.618 48.1813 138.579 48.2729 138.545 48.3644C138.483 48.5185 138.425 48.6775 138.362 48.8317C138.318 48.9329 138.281 49.0293 138.237 49.1256C138.179 49.2701 138.116 49.4098 138.059 49.5496C138.015 49.6507 137.967 49.7519 137.919 49.8531C137.861 49.9832 137.798 50.1133 137.74 50.2385C137.692 50.3397 137.639 50.4408 137.591 50.542C137.527 50.6624 137.47 50.7781 137.407 50.8985C137.355 50.9949 137.302 51.0912 137.248 51.1828C137.185 51.2936 137.123 51.4044 137.06 51.5104C137.002 51.6019 136.944 51.6935 136.892 51.7802C136.828 51.8814 136.761 51.9826 136.699 52.0789C136.64 52.1656 136.583 52.2476 136.52 52.3294C136.452 52.4209 136.385 52.5126 136.317 52.5992C136.255 52.6764 136.197 52.7534 136.135 52.8257C136.067 52.9076 135.995 52.9846 135.927 53.0617C135.865 53.1292 135.801 53.1967 135.734 53.2593C135.661 53.3316 135.594 53.399 135.522 53.4616C135.459 53.5194 135.392 53.5772 135.329 53.6303C135.257 53.6881 135.179 53.7458 135.108 53.7989C135.04 53.847 134.977 53.8904 134.909 53.929C134.833 53.9771 134.755 54.0157 134.678 54.059C134.611 54.0928 134.543 54.1265 134.471 54.1554C134.393 54.1891 134.312 54.2132 134.235 54.2421C134.167 54.2662 134.095 54.2855 134.027 54.3048C133.945 54.324 133.863 54.3337 133.781 54.3433C133.709 54.3529 133.641 54.3626 133.569 54.3626C133.434 54.3674 133.294 54.3626 133.159 54.3433L136.053 37.7508L130.633 38.6083L130.198 41.1907C130.208 41.2147 130.208 41.2292 130.208 41.2292C130.208 41.2292 130.189 41.1858 130.155 41.1184C130.126 41.0606 130.087 40.9787 130.035 40.8824C130.025 40.8679 130.015 40.8438 130.001 40.8245C129.943 40.7185 129.87 40.6029 129.779 40.4777C129.769 40.4632 129.76 40.4488 129.745 40.4343C129.659 40.309 129.553 40.179 129.432 40.0489C129.418 40.0344 129.407 40.0247 129.393 40.0103C129.267 39.8803 129.127 39.7502 128.969 39.6201C128.939 39.5959 128.911 39.5719 128.882 39.5527C128.723 39.4321 128.545 39.3166 128.352 39.2154C128.318 39.1961 128.279 39.1817 128.246 39.1672C128.038 39.066 127.816 38.9793 127.566 38.9215C127.551 38.9215 127.536 38.9167 127.522 38.9119C127.281 38.8541 127.016 38.8252 126.736 38.8203C126.688 38.8203 126.644 38.8155 126.596 38.8155C126.385 38.8155 126.158 38.8299 125.922 38.8733C123.978 39.1817 122.575 40.5499 121.586 42.4C120.993 43.508 120.545 44.7896 120.222 46.1241C119.792 47.8971 119.58 49.7568 119.518 51.4093C119.459 53.0617 119.556 54.4975 119.744 55.4321C119.802 55.7212 119.874 56.0006 119.966 56.2704C119.995 56.3572 120.034 56.439 120.067 56.5257C120.135 56.6992 120.197 56.8775 120.28 57.0413C120.328 57.1376 120.381 57.2243 120.434 57.3159C120.511 57.4555 120.593 57.6001 120.685 57.7302C120.747 57.8217 120.814 57.9037 120.882 57.9855C120.974 58.1012 121.07 58.2168 121.172 58.3179C121.249 58.395 121.326 58.4625 121.408 58.5348C121.514 58.6263 121.625 58.713 121.74 58.7949C121.827 58.8527 121.919 58.9058 122.011 58.9587C122.132 59.0262 122.256 59.084 122.382 59.1322C122.478 59.1708 122.579 59.2045 122.685 59.2334C122.82 59.2719 122.96 59.296 123.105 59.3152C123.212 59.3297 123.317 59.349 123.428 59.3538C123.659 59.3634 123.896 59.3635 124.142 59.3201C125.574 59.0936 126.693 58.0674 127.43 57.2099L126.254 64.7401C126.201 65.0484 126.158 65.3471 126.124 65.641C126.114 65.7422 126.11 65.8385 126.1 65.935C126.08 66.1277 126.066 66.3204 126.057 66.5082C126.052 66.6239 126.057 66.7299 126.052 66.8455C126.052 67.0093 126.046 67.1731 126.052 67.3369C126.052 67.4526 126.061 67.5633 126.071 67.6741C126.08 67.8235 126.085 67.9777 126.1 68.1222C126.11 68.233 126.124 68.3438 126.138 68.4499C126.158 68.5895 126.177 68.7244 126.201 68.8593C126.22 68.9653 126.245 69.0665 126.268 69.1725C126.298 69.2977 126.326 69.4278 126.36 69.5483C126.389 69.6494 126.418 69.7458 126.452 69.8422C126.49 69.9578 126.529 70.0735 126.568 70.1795C126.601 70.271 126.64 70.3625 126.678 70.454C126.727 70.56 126.775 70.6612 126.828 70.7624C126.871 70.8442 126.915 70.931 126.958 71.008C127.016 71.1045 127.073 71.1912 127.132 71.2827C127.18 71.355 127.228 71.4272 127.281 71.4947C127.348 71.5814 127.416 71.6585 127.483 71.7356C127.536 71.7982 127.595 71.8609 127.653 71.9186C127.73 71.9909 127.807 72.0584 127.889 72.1258C127.946 72.174 128.004 72.227 128.067 72.2703C128.154 72.333 128.251 72.3908 128.342 72.4438C128.405 72.4775 128.462 72.5209 128.526 72.5546C128.636 72.6124 128.751 72.651 128.868 72.6991C128.921 72.7184 128.969 72.7425 129.026 72.7618C129.2 72.8148 129.379 72.8581 129.562 72.8822C129.586 72.8822 129.61 72.8822 129.639 72.887C129.798 72.9063 129.967 72.9208 130.136 72.9208C130.348 72.9208 130.565 72.9014 130.796 72.8677C133.29 72.4727 134.953 69.2111 135.86 65.8241C136.037 65.1448 136.192 64.4655 136.312 63.8006C136.559 62.4709 136.679 61.2086 136.688 60.1873C136.708 58.9636 136.583 58.0723 136.289 57.3206C136.188 57.0702 136.071 56.8341 135.932 56.6028C136.559 56.2704 137.133 55.7982 137.653 55.2153C138.174 54.6324 138.651 53.9434 139.081 53.1822C139.157 53.476 139.259 53.7458 139.365 53.9964C139.398 54.0783 139.442 54.1506 139.481 54.2277C139.558 54.3866 139.636 54.5408 139.727 54.6853C139.78 54.7673 139.833 54.8395 139.891 54.9118C139.978 55.0323 140.065 55.143 140.156 55.249C140.219 55.3165 140.281 55.3791 140.349 55.4417C140.445 55.5332 140.546 55.6152 140.647 55.6923C140.716 55.7453 140.787 55.7935 140.86 55.8368C140.971 55.9042 141.082 55.962 141.193 56.0151C141.265 56.0536 141.342 56.0874 141.415 56.1163C141.539 56.1644 141.665 56.1981 141.796 56.2318C141.867 56.2512 141.935 56.2752 142.007 56.2849C142.167 56.3138 142.33 56.3282 142.499 56.333C142.543 56.333 142.586 56.3427 142.63 56.3427C142.851 56.3427 143.073 56.3282 143.3 56.2945C145.31 55.9765 146.752 54.4493 147.866 52.2042C147.958 52.4692 148.064 52.7052 148.18 52.9317C148.218 53.004 148.261 53.0666 148.3 53.134C148.382 53.2785 148.469 53.4134 148.556 53.5387C148.609 53.6109 148.667 53.6737 148.72 53.7363C148.807 53.8422 148.898 53.9386 148.995 54.0301C149.057 54.0879 149.12 54.1457 149.183 54.1988C149.279 54.2806 149.38 54.3529 149.481 54.4204C149.549 54.4638 149.616 54.5071 149.684 54.5456C149.795 54.6035 149.911 54.6564 150.022 54.7046C150.089 54.7287 150.152 54.7625 150.219 54.7817C150.354 54.8251 150.494 54.8588 150.634 54.8877C150.682 54.8974 150.73 54.9118 150.783 54.9214C150.976 54.9503 151.174 54.9648 151.372 54.9648C151.589 54.9648 151.81 54.9455 152.037 54.9118C152.91 54.772 153.715 54.3915 154.458 53.8133C154.955 53.4327 155.423 52.9606 155.866 52.4258C156.526 51.6164 157.129 50.6529 157.67 49.5881C157.67 49.593 157.67 49.5978 157.674 49.6025C157.741 49.882 157.819 50.1518 157.91 50.412C157.94 50.5035 157.978 50.5806 158.016 50.6673C158.084 50.8407 158.151 51.0094 158.234 51.1683C158.282 51.2599 158.335 51.3466 158.388 51.4333C158.465 51.5731 158.543 51.708 158.633 51.8332C158.697 51.9199 158.759 51.997 158.827 52.0789C158.919 52.1897 159.01 52.3005 159.107 52.3969C159.179 52.4692 159.256 52.5366 159.333 52.6041C159.435 52.6956 159.54 52.7775 159.651 52.8497C159.738 52.9076 159.82 52.9606 159.907 53.004C160.022 53.0666 160.143 53.1195 160.263 53.1678C160.355 53.2063 160.451 53.24 160.549 53.2641C160.678 53.2978 160.813 53.3219 160.948 53.3412C161.049 53.3556 161.15 53.3701 161.257 53.3749C161.478 53.3845 161.705 53.3797 161.946 53.3412C164.685 52.9076 166.397 49.5255 166.397 49.5255C166.397 49.5255 166.412 49.5592 166.431 49.6122C166.431 49.6218 166.436 49.6267 166.441 49.6362C166.464 49.6989 166.503 49.7808 166.556 49.882L166.581 49.9301C166.634 50.0313 166.705 50.1518 166.783 50.2771C166.797 50.2963 166.812 50.3204 166.826 50.3397C166.913 50.4649 167.014 50.6047 167.13 50.7396C167.15 50.7589 167.168 50.7781 167.188 50.8022C167.313 50.9419 167.453 51.0817 167.617 51.2117C167.631 51.2261 167.651 51.2358 167.67 51.2503C167.844 51.3852 168.032 51.5153 168.248 51.6212C168.248 51.6212 168.254 51.6212 168.259 51.6212C168.47 51.732 168.711 51.814 168.967 51.8814C168.991 51.891 169.016 51.8958 169.039 51.9055C169.291 51.9633 169.57 51.9922 169.864 52.0018C169.912 52.0018 169.965 52.0018 170.013 52.0018C170.236 52.0018 170.467 51.9826 170.713 51.944C173.047 51.5731 174.821 49.7616 176.215 47.2419C176.297 47.5357 176.393 47.8056 176.504 48.0609C176.538 48.1427 176.581 48.215 176.625 48.2921C176.702 48.4511 176.784 48.6101 176.875 48.7498C176.928 48.8317 176.987 48.9039 177.04 48.9811C177.127 49.1015 177.218 49.2171 177.315 49.3183C177.377 49.3858 177.444 49.4484 177.512 49.511C177.613 49.6025 177.714 49.6893 177.826 49.7663C177.898 49.8194 177.97 49.8675 178.047 49.9157C178.163 49.988 178.278 50.0458 178.404 50.0988C178.482 50.1325 178.553 50.171 178.631 50.1999C178.766 50.2482 178.91 50.2867 179.05 50.3204C179.117 50.3348 179.185 50.359 179.257 50.3686C179.475 50.4071 179.697 50.4265 179.923 50.4265C180.164 50.4265 180.415 50.4071 180.665 50.3637C183.482 49.9157 185.521 47.3768 187.002 44.1777C187.122 44.5294 187.267 44.8571 187.426 45.1702C187.479 45.2713 187.542 45.3629 187.595 45.4545C187.71 45.6567 187.836 45.8591 187.971 46.0422C188.048 46.1434 188.13 46.2397 188.212 46.3361C188.347 46.4951 188.492 46.6493 188.641 46.7889C188.737 46.8757 188.834 46.9624 188.936 47.0443C189.094 47.1744 189.268 47.29 189.441 47.4008C189.548 47.4683 189.654 47.5357 189.764 47.5984C189.967 47.7044 190.184 47.7959 190.406 47.8777C190.512 47.9163 190.608 47.9645 190.715 47.9983C191.052 48.1043 191.404 48.1861 191.781 48.2392C191.8 48.2392 191.819 48.2392 191.834 48.2392C192.19 48.2873 192.566 48.3018 192.957 48.3018C193.439 48.297 193.945 48.2632 194.48 48.1765C195.238 48.056 195.947 47.8682 196.612 47.6273C197.277 47.3863 197.9 47.0828 198.478 46.7408C199.636 46.0471 200.629 45.1702 201.472 44.1729L201.048 46.6589L206.44 45.8061L208.561 33.5882C209.54 31.6948 210.813 30.6782 211.516 30.5626C211.613 30.5481 211.7 30.5529 211.787 30.5626C211.83 30.5626 211.869 30.5723 211.908 30.5818C211.965 30.5963 212.018 30.6204 212.071 30.6445C212.105 30.6638 212.139 30.6782 212.167 30.6975C212.216 30.7361 212.259 30.7842 212.298 30.8324C212.317 30.8565 212.341 30.8757 212.356 30.9047C212.404 30.9914 212.442 31.0829 212.462 31.1937C212.476 31.2949 212.476 31.4298 212.472 31.584L210.952 41.4219C210.914 41.6725 210.909 41.923 210.929 42.1639C210.933 42.2457 210.957 42.318 210.972 42.4C210.996 42.5541 211.02 42.7131 211.069 42.8576C211.097 42.9443 211.136 43.0263 211.174 43.113C211.227 43.243 211.28 43.3683 211.353 43.4888C211.401 43.5706 211.464 43.6477 211.516 43.7249C211.594 43.8309 211.671 43.9368 211.763 44.0331C211.83 44.1054 211.903 44.1729 211.975 44.2355C212.071 44.3223 212.172 44.4041 212.279 44.4764C212.36 44.5342 212.447 44.5824 212.534 44.6305C212.65 44.6933 212.766 44.751 212.882 44.7992C212.978 44.8377 213.07 44.8666 213.166 44.8955C213.291 44.9341 213.421 44.9582 213.556 44.9775C213.658 44.992 213.759 45.0112 213.865 45.016C214.072 45.0257 214.29 45.0256 214.506 44.9919L215.471 44.8329C215.471 44.8329 215.519 44.8281 215.538 44.8233L228.35 42.6649L228.504 42.1976L229.633 35.7899L216.372 39.6923L216.339 39.702ZM129.441 45.5123L128.477 51.0142C128.487 50.9901 128.492 50.9756 128.496 50.9756C128.496 50.9756 128.487 51.019 128.462 51.0817C128.462 51.0817 128.462 51.0865 128.462 51.0912C128.439 51.1539 128.4 51.2454 128.356 51.3515C128.352 51.3659 128.342 51.3804 128.338 51.3948C128.289 51.5056 128.226 51.6308 128.159 51.7609C128.149 51.7851 128.139 51.8043 128.125 51.8235C128.052 51.9633 127.971 52.103 127.879 52.2523C127.864 52.2765 127.845 52.3005 127.831 52.3246C127.735 52.474 127.628 52.6185 127.513 52.763C127.493 52.7871 127.474 52.8064 127.455 52.8305C127.334 52.9751 127.204 53.1147 127.064 53.2352C127.045 53.2496 127.025 53.2689 127.006 53.2785C126.857 53.4038 126.703 53.5146 126.534 53.6062C126.52 53.6158 126.505 53.6206 126.49 53.6254C126.312 53.7121 126.124 53.7844 125.926 53.8133C125.81 53.8326 125.704 53.8326 125.603 53.8278C125.56 53.8278 125.516 53.8181 125.477 53.8085C125.41 53.7989 125.342 53.7747 125.28 53.7458C125.241 53.7266 125.207 53.7121 125.174 53.688C125.111 53.6447 125.058 53.5869 125.005 53.5194C124.981 53.4857 124.952 53.4616 124.933 53.4279C124.865 53.3122 124.807 53.1773 124.764 53.004C124.658 52.4932 124.653 51.6935 124.739 50.7685C124.807 50.0795 124.923 49.3183 125.087 48.5668C125.145 48.3162 125.202 48.0657 125.27 47.82C125.406 47.3237 125.56 46.8468 125.733 46.3987C126.085 45.5026 126.524 44.751 127.04 44.3029C127.3 44.0814 127.575 43.9368 127.875 43.8887C128.009 43.8693 128.125 43.8887 128.24 43.9031C128.284 43.9127 128.332 43.9127 128.375 43.9272C128.477 43.9609 128.568 44.0091 128.655 44.0669C128.675 44.0814 128.694 44.0862 128.714 44.1006C128.81 44.1777 128.897 44.2741 128.973 44.3752C128.993 44.4041 129.012 44.4379 129.031 44.4667C129.079 44.5439 129.127 44.6161 129.166 44.698C129.186 44.7366 129.205 44.7751 129.219 44.8185C129.253 44.8908 129.282 44.9582 129.301 45.0256C129.316 45.0642 129.326 45.0979 129.34 45.1316C129.359 45.1942 129.379 45.2568 129.393 45.3099C129.398 45.3388 129.407 45.358 129.413 45.3822C129.427 45.44 129.436 45.4882 129.441 45.5074C129.446 45.5315 129.451 45.5315 129.446 45.4929V45.5123H129.441ZM134.061 60.1969C133.843 61.8349 133.516 64.2631 133.019 66.1228C132.908 66.5371 132.788 66.9178 132.658 67.2599C132.465 67.7705 132.252 68.1849 132.016 68.4499C131.857 68.6281 131.688 68.7341 131.51 68.763C131.447 68.7726 131.394 68.7774 131.341 68.7726C131.317 68.7726 131.298 68.7678 131.279 68.763C131.25 68.7581 131.22 68.7534 131.197 68.7389C131.177 68.7292 131.163 68.7197 131.149 68.7052C131.129 68.6907 131.105 68.6714 131.091 68.6474C131.081 68.628 131.066 68.6088 131.057 68.5896C131.042 68.5606 131.032 68.5269 131.023 68.4931C131.013 68.4691 131.009 68.4354 131.004 68.4065C130.999 68.3631 130.994 68.3101 130.989 68.2572C130.989 68.2186 130.984 68.1849 130.984 68.1415C130.984 68.0789 130.984 68.0066 130.989 67.9343C130.989 67.8862 130.989 67.8428 130.999 67.7946C131.004 67.7079 131.018 67.6019 131.028 67.5007C131.032 67.4526 131.037 67.4092 131.042 67.3562C131.062 67.1924 131.085 67.0141 131.115 66.8166L132.624 57.3834C133.424 57.5183 134.336 58.3324 134.07 60.1921M166.276 45.0593C166.276 45.0593 166.146 45.4111 165.9 45.8688C165.737 46.1723 165.52 46.5191 165.249 46.842C165.114 47.001 164.97 47.1551 164.811 47.29C164.493 47.5598 164.126 47.767 163.716 47.8345C163.596 47.8537 163.495 47.844 163.388 47.8345C163.34 47.8296 163.287 47.82 163.239 47.8103C163.167 47.7911 163.104 47.7525 163.041 47.7139C163.002 47.6899 162.959 47.6658 162.925 47.6321C162.863 47.5743 162.814 47.4924 162.766 47.4057C162.743 47.3623 162.713 47.3334 162.693 47.2803C162.631 47.131 162.578 46.9527 162.544 46.7311C162.482 46.3313 162.472 45.7869 162.511 45.1558C162.573 44.1102 162.78 42.8431 163.113 41.658C163.243 41.1858 163.398 40.7233 163.571 40.2994C163.658 40.0873 163.75 39.8802 163.846 39.6876C164.232 38.9118 164.695 38.3144 165.23 38.0495C165.366 37.982 165.505 37.9386 165.645 37.9146C165.761 37.8953 165.862 37.9097 165.964 37.9242C166.021 37.9338 166.084 37.9386 166.137 37.9579C166.205 37.982 166.267 38.0109 166.325 38.0446C166.373 38.0687 166.421 38.0977 166.464 38.1314C166.522 38.1747 166.571 38.2229 166.619 38.2711C166.657 38.3096 166.696 38.3482 166.73 38.3916C166.773 38.4493 166.812 38.5071 166.851 38.5698C166.879 38.6131 166.909 38.6565 166.932 38.6998C166.966 38.7625 166.996 38.8252 167.024 38.8878C167.044 38.9311 167.063 38.9696 167.082 39.0082C167.106 39.0708 167.125 39.1286 167.145 39.1865C167.154 39.2202 167.168 39.2539 167.179 39.2828C167.198 39.3455 167.212 39.3936 167.221 39.4321C167.221 39.4466 167.232 39.4659 167.232 39.4755C167.241 39.5238 167.251 39.5478 167.251 39.5478L166.281 45.069L166.276 45.0593Z" fill="#1F3521"/>
<path d="M118.129 33.1787C118.959 32.5041 124.267 31.4298 125.29 31.2612C125.343 30.9191 125.425 30.4758 125.517 29.9604C125.608 29.4449 125.705 28.8619 125.792 28.2308C126.303 24.4488 126.312 19.0288 121.08 17.6219C120.617 17.4967 120.169 17.41 119.73 17.3474C119.586 17.3281 119.45 17.3232 119.311 17.3088C119.017 17.2799 118.728 17.2558 118.443 17.251C118.231 17.251 118.024 17.251 117.816 17.2606C117.696 17.2654 117.57 17.2703 117.454 17.2799C117.194 17.2992 116.938 17.3377 116.688 17.3763C116.615 17.3858 116.543 17.3955 116.47 17.4052C116.152 17.463 115.839 17.5401 115.54 17.6268C115.463 17.6508 115.386 17.6798 115.308 17.7039C115.087 17.7713 114.87 17.8436 114.657 17.9255C114.551 17.9689 114.45 18.0122 114.349 18.0555C114.17 18.1327 113.992 18.2098 113.824 18.2916C113.722 18.3398 113.62 18.3928 113.519 18.4458C113.356 18.5325 113.192 18.6241 113.038 18.7156C112.946 18.7686 112.854 18.8264 112.763 18.8794C112.598 18.9806 112.444 19.0866 112.29 19.1926C112.213 19.2455 112.135 19.2938 112.063 19.3467C111.871 19.4864 111.692 19.6262 111.509 19.7659C111.479 19.79 111.446 19.814 111.417 19.8381C111.215 20.0067 111.016 20.1754 110.828 20.344C110.771 20.3971 110.718 20.4452 110.665 20.4982C110.539 20.6138 110.415 20.7342 110.298 20.8499C110.236 20.9125 110.173 20.9751 110.115 21.0426C110.014 21.1486 109.913 21.2498 109.821 21.351C109.763 21.4136 109.705 21.4762 109.652 21.534C109.56 21.6352 109.479 21.7315 109.397 21.8231C109.349 21.8809 109.3 21.9387 109.252 21.9917C109.165 22.0928 109.088 22.1893 109.016 22.2808C108.982 22.3241 108.948 22.3675 108.92 22.4012C108.818 22.5313 108.726 22.6518 108.645 22.7625C107.226 24.656 106.398 27.6671 106.123 30.9721C105.838 34.2964 106.436 38.4686 107.916 43.5032C108.177 44.2452 108.457 45.1027 108.712 46.0085C109.248 47.6899 109.797 49.9446 109.695 51.8477C109.677 52.2331 109.628 52.6089 109.56 52.9654C109.537 53.0858 109.498 53.1918 109.473 53.3075C109.416 53.5388 109.363 53.77 109.291 53.9868C109.248 54.112 109.184 54.2277 109.131 54.3481C109.054 54.5312 108.977 54.7191 108.881 54.8925C108.813 55.0081 108.732 55.1141 108.654 55.225C108.553 55.3743 108.452 55.5285 108.336 55.6633C108.244 55.7645 108.143 55.8513 108.047 55.9428C107.921 56.0585 107.795 56.1789 107.655 56.2801C107.545 56.3619 107.419 56.4246 107.299 56.492C107.15 56.5788 107.005 56.6606 106.841 56.7281C106.711 56.7811 106.566 56.8197 106.426 56.863C106.252 56.9112 106.084 56.9593 105.901 56.993C105.747 57.0172 105.587 57.0316 105.424 57.0413C105.163 57.0557 104.903 57.0798 104.613 57.0557C100.804 56.7185 99.3906 54.3192 98.9956 51.7658C98.9474 51.4622 98.9134 51.1539 98.8945 50.8456C98.87 50.4842 98.8652 50.1278 98.87 49.776C98.87 49.723 98.8699 49.67 98.8747 49.617C98.8803 49.4243 98.8851 49.2316 98.8945 49.0437C98.9134 48.7546 98.938 48.4704 98.9711 48.2006L96.5219 48.5715L90.7693 49.4436L86.0486 50.1615L78.1308 51.361L77.7884 52.8113L76.6504 57.629L88.8646 54.4252C88.9369 54.8058 89.0334 55.1912 89.1443 55.567C89.178 55.6923 89.2262 55.8176 89.2647 55.9428C89.3468 56.1981 89.4288 56.4487 89.5203 56.6992C89.5783 56.8486 89.6409 56.993 89.7036 57.1424C89.8 57.3689 89.8917 57.5905 89.9978 57.8121C90.0701 57.9663 90.1521 58.1156 90.2292 58.2698C90.3401 58.477 90.4511 58.6889 90.5667 58.8961C90.6584 59.0503 90.75 59.1997 90.8464 59.3538C90.9718 59.5513 91.0972 59.7488 91.2322 59.9368C91.3383 60.0909 91.4443 60.2355 91.5552 60.3848C91.6951 60.5678 91.8397 60.7558 91.9844 60.934C92.1002 61.0786 92.2207 61.2183 92.346 61.358C92.5004 61.5362 92.6595 61.7049 92.8283 61.8735C92.9585 62.0084 93.0887 62.1385 93.2237 62.2686C93.3973 62.4324 93.5757 62.5913 93.7589 62.7456C93.8987 62.866 94.0386 62.9864 94.1832 63.1021C94.3761 63.2562 94.5736 63.3959 94.772 63.5405C94.9213 63.6465 95.0659 63.7573 95.2199 63.8584C95.4325 63.9982 95.6592 64.1282 95.8803 64.2583C96.0296 64.3451 96.1799 64.4414 96.3339 64.5233C96.5843 64.6582 96.8451 64.7739 97.1059 64.8895C97.2447 64.9521 97.3799 65.0244 97.5197 65.0822C97.8911 65.2364 98.2775 65.3713 98.6677 65.4965C98.7065 65.5062 98.7405 65.5206 98.7783 65.5351C99.2082 65.6652 99.6514 65.7712 100.1 65.8579C100.245 65.8868 100.394 65.9012 100.539 65.9205C100.852 65.9686 101.165 66.0217 101.483 66.0506C101.667 66.065 101.86 66.0698 102.048 66.0794C102.332 66.0939 102.612 66.1035 102.902 66.1035C103.48 66.0988 104.064 66.065 104.666 65.9879C106.06 65.8096 107.362 65.4725 108.577 65.0003C109.792 64.5233 110.915 63.9115 111.958 63.1792C112.478 62.813 112.965 62.418 113.423 61.9988C114.335 61.1605 115.125 60.2258 115.786 59.1803C116.114 58.66 116.413 58.1156 116.683 57.5423C116.755 57.3881 116.798 57.2195 116.866 57.0653C117.772 54.8974 118.115 52.4981 117.836 49.8531C117.705 48.6052 117.401 47.3237 116.943 46.0181C116.88 45.835 116.823 45.6567 116.755 45.4737C116.181 43.9754 115.4 42.4385 114.402 40.8679C114.088 40.3668 113.794 39.8754 113.529 39.3936C112.999 38.4253 112.57 37.481 112.242 36.5704C112.078 36.1127 111.938 35.6647 111.827 35.2214C111.374 33.4485 111.215 31.82 111.34 30.3265C111.456 29.1365 111.634 28.12 111.889 27.2335C112.146 26.347 112.478 25.581 112.902 24.8969C113.114 24.5499 113.331 24.2368 113.558 23.9574C114.228 23.119 114.957 22.5698 115.738 22.3097C115.969 22.2326 116.191 22.194 116.408 22.1651C116.461 22.1603 116.514 22.1556 116.567 22.1507C116.779 22.1362 116.991 22.1411 117.194 22.1845C117.199 22.1845 117.208 22.1845 117.213 22.1892C117.41 22.2278 117.594 22.3 117.777 22.3916C117.825 22.4157 117.873 22.4398 117.922 22.4638C118.105 22.565 118.288 22.6903 118.462 22.8445C119.045 23.3696 119.45 24.0682 119.638 25.1233C119.702 25.475 119.74 25.8653 119.755 26.3036C119.792 27.6141 119.499 29.228 118.877 31.1504C118.669 31.7912 118.423 32.4656 118.144 33.1738" fill="#1F3521"/>
<path d="M238.106 38.3481C238.231 40.0537 236.987 41.4893 235.246 41.6098C233.52 41.7351 232.049 40.4969 231.929 38.7914C231.808 37.1244 233.085 35.6839 234.812 35.5634C236.553 35.4382 237.989 36.6811 238.11 38.3481M232.69 38.7384C232.787 40.0777 233.857 41.0702 235.212 40.969C236.533 40.8727 237.43 39.7405 237.334 38.4204C237.237 37.081 236.186 36.0693 234.846 36.1657C233.505 36.262 232.594 37.4135 232.69 38.7335M234.658 40.1838L233.958 40.2319L233.741 37.2256C234.016 37.1485 234.397 37.0859 234.894 37.0521C235.463 37.0087 235.723 37.0859 235.955 37.1967C236.129 37.3123 236.273 37.5435 236.297 37.8374C236.322 38.1698 236.085 38.4445 235.723 38.5794V38.6179C236.027 38.7095 236.21 38.9167 236.331 39.3117C236.457 39.7645 236.524 39.9428 236.606 40.0488L235.854 40.1018C235.752 40.0006 235.68 39.726 235.564 39.384C235.487 39.0564 235.29 38.9263 234.903 38.9504L234.575 38.9744L234.662 40.1838H234.658ZM234.557 38.4782L234.889 38.4541C235.275 38.4301 235.579 38.2759 235.554 37.9627C235.535 37.6881 235.318 37.5195 234.88 37.5532C234.696 37.5629 234.571 37.5918 234.499 37.6158L234.561 38.4782H234.557Z" fill="#1F3521"/>
<path d="M73.9131 27.4458C73.9131 24.385 71.42 21.9005 68.3484 21.9005C67.4627 21.9005 66.6232 22.1097 65.8809 22.477C65.5071 21.6557 65.1129 20.8496 64.6983 20.0589C68.8501 19.9314 72.1828 16.5389 72.1828 12.3659C72.1828 8.19294 68.7221 4.66784 64.4577 4.66784C61.1301 4.66784 58.2991 6.76454 57.2087 9.69784C51.1935 3.62714 43.581 0 35.3081 0C15.8085 0 0 20.1456 0 45C0 53.4633 1.83784 61.3757 5.0272 68.1351C5.09887 68.2932 5.17566 68.4463 5.25245 68.5993C5.29852 68.6912 5.33948 68.783 5.38555 68.8748C11.6312 81.5622 22.6941 90 35.3132 90C40.4428 90 45.3113 88.5971 49.7088 86.0871V86.0974C54.6848 83.2609 59.0465 79.0012 62.4816 73.7263H62.4918C62.6301 73.512 62.7632 73.2927 62.8963 73.0733C62.9628 72.9713 63.0294 72.8693 63.0908 72.7672C67.8057 65.1201 70.6214 55.4784 70.6214 45C70.6214 40.8117 70.1709 36.756 69.3313 32.9044C71.9422 32.4453 73.9233 30.1751 73.9233 27.4458H73.9131Z" fill="#BFAA89"/>
<path d="M62.4253 71.0837C66.7307 63.8295 69.2955 54.7999 69.2955 45C69.2955 40.827 68.8296 36.7917 67.9696 32.9758C65.0771 32.7769 62.7939 30.3792 62.7939 27.4458C62.7939 25.7725 63.5362 24.2727 64.7137 23.2575C64.1915 22.1148 63.6335 21.0078 63.0345 19.9314C59.451 19.2631 56.7377 16.1308 56.7377 12.3659C56.7377 12.0496 56.7582 11.7384 56.794 11.4323C50.9375 5.33613 43.4581 1.67838 35.3081 1.67838C16.5406 1.68348 1.3208 21.0792 1.3208 45C1.3208 53.2286 3.12793 60.9216 6.25585 67.477H6.25073C6.32752 67.6403 6.40943 67.7984 6.49134 67.9616C6.53741 68.0536 6.57837 68.1453 6.62444 68.2371C12.655 80.3072 23.247 88.3216 35.3081 88.3216C37.7398 88.3216 40.105 87.9849 42.3933 87.3676V87.3778C42.5059 87.3472 42.6134 87.3115 42.7261 87.2809C42.8745 87.2401 43.023 87.1891 43.1715 87.1482C50.8198 84.8373 57.4698 79.2359 62.1437 71.5735C62.1591 71.548 62.1745 71.5174 62.1898 71.4919C62.2717 71.3592 62.3588 71.2266 62.4356 71.0939H62.4202L62.4253 71.0837ZM42.7465 83.9802C42.6134 84.0313 42.4803 84.0721 42.3472 84.118C42.1169 84.1996 41.8865 84.2761 41.651 84.3475C39.6084 84.9852 37.489 85.327 35.3081 85.327C25.0131 85.327 15.9826 77.8585 10.8377 66.6149C10.7814 66.4924 10.7199 66.37 10.6636 66.2424C10.5407 65.9619 10.4179 65.6813 10.295 65.3956C7.76606 59.4116 6.31728 52.443 6.31728 45C6.31728 22.727 19.2999 4.67294 35.3133 4.67294C48.7157 4.67294 59.9936 17.3245 63.3161 34.5062C64.4423 35.3021 65.1744 36.6081 65.1744 38.0824C65.1744 39.1435 64.7905 40.123 64.1608 40.8831C64.258 42.235 64.3092 43.6073 64.3092 44.9949C64.3092 54.356 62.0158 62.9724 58.166 69.8135C57.9971 70.1094 57.8281 70.4053 57.6592 70.6909C57.649 70.7113 57.6336 70.7266 57.6234 70.747C57.6182 70.7572 57.608 70.7674 57.6029 70.7828C53.8095 77.1137 48.6492 81.8019 42.7517 83.97L42.7465 83.9802Z" fill="#1F3521"/>
<path d="M38.052 42.4748C38.6305 42.5156 39.2397 42.5462 39.8643 42.5564L39.0554 41.3372L38.052 42.4748Z" fill="white"/>
<path d="M47.9837 38.0467C46.9496 37.8733 46.6475 37.2662 46.5042 36.8122C46.4376 36.5979 46.3608 36.0775 46.3045 35.6592C45.8438 36.0265 45.2653 36.2561 44.6305 36.2561C43.1356 36.2561 41.9224 35.047 41.9224 33.5574C41.9224 32.2923 42.808 31.2311 43.9906 30.9455L41.9224 30.8485L41.948 30.2619L45.3318 30.42C45.1578 28.3692 43.9087 26.8898 43.6885 26.6449C43.4018 26.5123 42.9565 26.5072 42.6749 26.5225C42.3319 27.7826 42.2295 28.9661 42.2295 28.9814L42.1988 29.3232L41.866 29.2416C41.4053 29.1293 41.0265 28.8692 40.7551 28.6243C40.6476 30.2925 41.1289 32.1545 41.134 32.1749L41.2773 32.7259L40.7449 32.5218C37.2484 31.1954 35.4464 28.6498 34.8218 27.5887C34.6682 27.9356 34.571 28.3335 34.5351 28.5019L34.4584 28.8845L34.1102 28.7008C33.4294 28.3437 32.9072 27.4306 32.4464 26.6245L32.2314 26.247C31.9908 25.8338 31.6376 25.6757 31.3816 25.6093C31.5403 26.8745 32.1444 27.4102 32.17 27.4306L32.6512 27.8438L32.0215 27.9458C30.3066 28.2111 29.1905 27.4357 28.7042 26.9816C28.5762 27.2367 28.4329 27.6295 28.5199 28.0376C28.6069 28.4713 28.9397 28.8437 29.5028 29.1447L29.7639 29.2875L29.6206 29.5477C29.6052 29.5783 28.0336 32.43 28.9602 34.8226L29.0728 35.1134L28.7759 35.2103C28.7452 35.2205 28.0643 35.4297 27.1326 35.1542C27.2657 35.8735 27.6855 37.3223 28.9807 38.6538L29.1394 38.817L29.0165 39.0109C28.9858 39.0568 28.7247 39.4496 28.0438 39.6792C28.1257 39.9547 28.2998 40.4036 28.6121 40.7352L28.8117 40.9443L27.2145 42.485C27.7622 42.9033 29.2622 43.8726 31.6683 44.097L32.0062 44.1276L31.9243 44.4592C31.9243 44.4592 31.8628 44.6888 31.7195 45.0051C33.1427 45.653 40.0999 48.4843 45.7875 44.9541L46.2738 44.6531L46.238 45.2245C46.238 45.2245 46.2277 45.3571 46.1765 45.5459C47.2721 44.9847 47.4154 44.0154 47.3028 43.2043C47.0263 43.0818 46.7704 42.99 46.5451 42.9237C46.0383 42.7809 45.2448 42.7758 44.8045 42.786V42.7962C43.3558 43.0512 41.866 43.1482 40.448 43.1482C36.3474 43.1482 32.8816 42.3472 32.8355 42.337L32.9686 41.7657C32.9686 41.7657 33.3219 41.8473 33.9003 41.9544L35.4464 39.9802C35.5641 39.8322 35.7433 39.7557 35.9327 39.771C36.1221 39.7863 36.286 39.8985 36.373 40.0618L37.5044 42.2146L38.646 40.9188C38.7586 40.7913 38.9173 40.7199 39.0965 40.7352C39.2705 40.7454 39.4241 40.8372 39.5214 40.98L40.576 42.5666C41.7585 42.5615 42.9872 42.485 44.2005 42.3013C44.2824 42.0514 44.4718 41.7351 44.825 41.6228C45.0503 41.5514 45.8284 41.4902 46.796 41.6381C46.6014 41.0107 46.581 40.5209 46.581 40.4954V40.3067L46.7448 40.225C47.9376 39.6486 48.0041 38.5211 47.9785 38.0569L47.9837 38.0467ZM31.9243 42.4493L31.868 42.4595C31.2741 42.1993 31.3458 41.3729 31.868 41.1127C32.0062 41.0413 32.3389 40.9647 32.4925 41.1382C32.0983 41.4443 31.8782 41.9544 31.9243 42.4544V42.4493ZM36.0095 33.5523C36.0095 35.0419 34.7962 36.251 33.3014 36.251C31.8065 36.251 30.5932 35.0419 30.5932 33.5523C30.5932 32.4096 31.3151 31.4352 32.3236 31.0424L30.4038 31.0832L30.3885 30.4965L36.0351 30.3741L36.0505 30.9608L34.1563 31.0016C35.2314 31.3587 36.0095 32.3586 36.0095 33.5523ZM41.7739 37.4192L41.6254 38.2048L41.047 38.0926L41.1954 37.307C41.221 37.1744 41.1852 37.0417 41.0981 36.9346C41.0111 36.8326 40.8831 36.7713 40.75 36.7713H38.0061C37.873 36.7713 37.745 36.8326 37.6579 36.9346C37.5709 37.0366 37.5351 37.1744 37.5607 37.307L37.7091 38.0926L37.1307 38.2048L36.9822 37.4192C36.9208 37.1131 37.0027 36.8019 37.2023 36.5622C37.402 36.3224 37.6938 36.1847 38.0061 36.1847H40.75C41.0623 36.1847 41.3541 36.3224 41.5538 36.5622C41.7534 36.8019 41.8302 37.1131 41.7739 37.4192Z" fill="#E8C5AA"/>
<path d="M42.5056 33.5523C42.5056 34.7154 43.4578 35.6643 44.625 35.6643C45.7922 35.6643 46.7444 34.7154 46.7444 33.5523C46.7444 32.3892 45.7922 31.4403 44.625 31.4403C43.4578 31.4403 42.5056 32.3892 42.5056 33.5523ZM45.3417 32.9911C45.654 32.9911 45.91 33.2462 45.91 33.5574C45.91 33.8686 45.654 34.1237 45.3417 34.1237C45.0295 34.1237 44.7735 33.8686 44.7735 33.5574C44.7735 33.2462 45.0295 32.9911 45.3417 32.9911Z" fill="white"/>
<path d="M34.5554 42.0667C35.2005 42.1738 36.0093 42.286 36.9308 42.3778L35.8762 40.3832L34.5554 42.0667Z" fill="white"/>
<path d="M49.1045 53.9122C47.9424 53.0144 47.7632 52.0808 47.7581 52.0349L47.7274 51.8461L47.8861 51.739C48.7513 51.1575 49.0431 50.581 49.1403 50.3208C48.4851 49.7239 48.2393 48.9638 48.1523 48.4129C48.1625 48.066 48.2189 47.5609 48.4902 47.1579C48.4646 47.464 48.5004 47.7854 48.6284 48.0609C49.2274 48.2088 49.555 48.1629 49.7137 48.1017C49.2837 46.9692 49.4219 46.1988 49.6113 45.153L49.6574 44.8827C49.038 44.2705 48.4492 43.8267 47.9168 43.5206C47.9629 44.8571 47.2411 45.8468 45.8793 46.2907C45.7974 46.4437 45.7053 46.6069 45.5875 46.7804C45.2957 47.112 44.922 47.2854 44.579 47.566C44.6763 47.1732 44.9374 46.8161 45.1012 46.4488C45.2599 46.2141 45.3776 45.9999 45.4544 45.8162C43.4374 46.8977 41.3026 47.2701 39.3214 47.2701C35.5485 47.2701 32.3182 45.9234 31.4274 45.5152C31.3301 45.6683 31.2175 45.8264 31.0844 45.9948C30.7363 46.3111 30.3114 46.408 29.866 46.3825C30.1629 46.1733 30.4394 45.9132 30.6288 45.6275C30.9411 45.25 31.1254 44.8878 31.2329 44.6429C28.1869 44.2603 26.6306 42.7809 26.564 42.7145L26.349 42.5054L27.9923 40.9188C27.5367 40.3066 27.3985 39.5669 27.3934 39.5312L27.3422 39.2557L27.6135 39.1945C27.9821 39.1078 28.2176 38.965 28.3558 38.8527C26.5743 36.8887 26.477 34.8073 26.4719 34.7154L26.4565 34.241L26.8917 34.44C27.4804 34.7052 27.9821 34.7256 28.2841 34.7001C27.6289 32.5473 28.5913 30.267 28.965 29.5119C28.3916 29.1446 28.0435 28.6855 27.936 28.1499C27.7415 27.1908 28.3916 26.3541 28.4224 26.3184L28.6578 26.0225L28.8882 26.3235C28.9241 26.3745 29.7483 27.4152 31.3301 27.4152C31.3506 27.4152 31.3711 27.4152 31.3916 27.4152C31.1458 27.0428 30.8592 26.4307 30.7721 25.5481L30.7312 24.9972L31.0332 24.987C31.0742 24.9819 32.1339 24.9512 32.7277 25.9562C32.7994 26.0787 32.8762 26.2113 32.9479 26.3388C33.2857 26.9255 33.6543 27.5734 34.0588 27.956C34.1611 27.6091 34.3352 27.1296 34.586 26.8082L34.883 26.4307L35.0877 26.8643C35.1031 26.9 36.644 30.1088 40.4323 31.7668C40.2634 30.9251 40.0023 29.2824 40.2378 27.905L40.3607 27.201L40.7702 27.7877C40.7702 27.7877 41.1286 28.2978 41.6763 28.558C41.7378 28.0427 41.8914 27.0683 42.1832 26.0736C42.3675 25.7828 42.6593 25.4206 42.992 25.2777C42.8487 25.4665 42.8026 25.7063 42.7616 25.9307C43.1046 25.9205 43.6217 25.9409 44.0005 26.145L44.0773 26.2011C44.149 26.2725 45.7411 27.9611 45.9203 30.4455L47.1643 30.5016L47.1387 31.0883L45.4954 31.0118C46.5653 31.374 47.3383 32.3739 47.3383 33.5574C47.3383 34.1441 47.1489 34.6797 46.8264 35.1236C46.893 35.6541 47.0005 36.4295 47.067 36.6438C47.1489 36.9091 47.3025 37.4039 48.2752 37.4957L48.4953 37.5161L48.5363 37.7304C48.6694 38.4191 48.5363 39.8781 47.1848 40.6484C47.2104 40.878 47.2871 41.3014 47.4714 41.7708C48.1165 41.9289 48.8076 42.184 49.4526 42.5921C49.6011 42.689 49.7495 42.786 49.8929 42.8829C49.9594 41.2963 49.6932 40.3168 49.6881 40.3066L49.5806 39.9393H49.9646C50.7222 39.9189 50.9833 39.5975 51.0703 39.4139C49.4731 37.4294 48.9202 34.996 48.654 33.8125C48.6079 33.6135 48.5721 33.4452 48.5363 33.3227C48.4441 32.9758 48.3827 32.5422 48.3161 32.0831C48.2086 31.3077 48.0858 30.4251 47.7684 29.6446C47.5687 29.1446 47.2667 28.6651 46.9134 28.1141C46.381 27.2724 45.7769 26.3133 45.2855 24.9257C44.6456 23.1045 45.2804 22.2169 45.695 21.8547C43.8777 19.5692 42.5671 18.8499 40.9187 17.9469C40.6269 17.7888 40.3248 17.6204 40.0126 17.4419C38.3181 16.4726 36.3317 14.4983 35.4922 13.6209C35.4154 14.279 35.4819 14.7993 35.5638 15.1462L35.4307 15.1768C35.4768 15.1666 35.5638 15.1462 35.5638 15.1462C35.5946 15.5186 35.7993 15.891 35.9529 16.2379C35.7737 16.1155 35.5997 15.9931 35.4256 15.8604C35.226 15.7176 35.0826 15.5237 34.9905 15.2789C34.9239 14.9983 34.8932 14.6973 34.883 14.3861C32.2004 12.9679 30.1629 10.912 29.4667 10.1621C28.6118 11.5395 28.2176 13.524 28.1254 14.0494C28.2022 14.1412 28.279 14.2382 28.3609 14.3504C28.5299 14.784 28.6015 15.2636 28.6118 15.7227C28.4735 15.4115 28.0998 14.9065 27.9667 14.7687L27.8797 14.6973C27.6391 14.3657 27.4241 14.1565 27.2705 14.029C26.9787 15.3503 25.8115 19.4927 22.1563 23.0994C22.5761 23.0688 23.1187 22.9821 23.5897 22.778C24.03 22.6505 24.4805 22.5178 24.8695 22.2679C24.6084 22.6811 24.2347 23.0433 23.8252 23.3137C23.8252 23.3137 23.8201 23.2984 23.8098 23.2729L23.8303 23.3137C23.518 23.4463 23.1904 23.5381 22.8781 23.5943C22.6784 23.9003 19.9703 28.1703 19.2178 34.9093C19.5608 34.8073 20.001 34.7818 20.4771 34.9858C20.5181 34.8634 20.5539 34.7563 20.5898 34.6542C20.8662 34.2308 21.1222 33.6696 21.5624 33.3176C21.3218 33.7309 21.2297 34.2104 21.1631 34.6695L21.1478 34.8532C20.6 36.3887 19.3509 40.5107 19.4225 46.209L20.1085 45.9489C20.1085 45.8978 20.1188 45.8468 20.1188 45.7958C20.2058 45.3877 20.3543 44.9898 20.6154 44.6021C20.5642 45.0663 20.6512 45.3979 20.7075 45.8315C20.641 46.8212 20.4311 49.1118 19.9089 50.1882C20.1341 50.3157 20.5693 50.479 21.2246 50.4535C21.2809 50.3412 21.3321 50.2239 21.3628 50.1014C21.5317 49.7137 21.6955 49.2138 21.6904 48.7649C21.8901 49.2393 21.9464 49.7188 21.931 50.2494C21.6853 51.1728 20.7638 51.9431 20.2365 52.3206C20.8867 52.7185 22.3559 53.4888 24.0248 53.5041C24.9975 53.5245 25.6784 53.4327 26.2774 53.3613C27.1118 53.2593 27.8336 53.1776 28.9445 53.4072C30.6697 53.7643 31.6578 54.5958 32.6151 55.5804C32.9479 55.2743 33.639 54.7489 34.6475 54.4632C34.6168 54.3918 34.5912 54.3306 34.5707 54.2796C34.4734 53.8714 34.3301 53.448 34.1611 53.0603C34.4939 53.3511 34.8574 53.6674 35.1082 54.0347C35.2976 54.453 35.6099 55.2386 35.7481 56.1824C36.8898 55.611 40.2685 54.1673 43.0688 55.4325C43.2582 55.1315 43.6115 54.5295 43.8572 53.8561C43.9954 53.6317 44.2002 53.1827 44.5841 53.0195C44.364 53.3409 44.4254 53.6266 44.4101 53.9837C46.9083 54.7999 48.4697 54.2438 49.1096 53.902L49.1045 53.9122Z" fill="#5A3714"/>
<path d="M31.1819 33.5523C31.1819 34.7154 32.1341 35.6643 33.3013 35.6643C34.4685 35.6643 35.4207 34.7154 35.4207 33.5523C35.4207 32.3892 34.4685 31.4403 33.3013 31.4403C32.1341 31.4403 31.1819 32.3892 31.1819 33.5523ZM34.018 32.9911C34.3303 32.9911 34.5862 33.2462 34.5862 33.5574C34.5862 33.8686 34.3303 34.1237 34.018 34.1237C33.7057 34.1237 33.4498 33.8686 33.4498 33.5574C33.4498 33.2462 33.7057 32.9911 34.018 32.9911Z" fill="white"/>
<path d="M46.1405 54.9683C45.5672 54.9122 44.917 54.7744 44.2105 54.5398C43.8522 55.3458 43.4273 55.9529 43.4068 55.9835L43.2583 56.1926L43.028 56.0753C42.9819 56.0498 42.9358 56.0396 42.8898 56.0141C42.7874 56.6007 42.5672 57.7282 42.301 58.4067C42.6287 58.927 43.8522 60.937 44.6201 63.049C45.4443 58.8199 45.9767 55.8814 46.1405 54.9683ZM44.3129 59.7024C44.0979 59.7024 43.9392 59.6514 43.7498 59.5341C43.7498 59.5341 43.6628 59.4882 43.5809 59.427C43.5501 59.4066 43.4529 59.3351 43.4017 59.2943C43.243 59.0852 43.1252 58.8097 43.0996 58.5495C43.3044 58.6923 43.5399 58.7281 43.76 58.825C43.8061 58.8607 43.8983 58.927 43.929 58.9474C43.9853 58.9882 44.0416 59.0188 44.0467 59.0188C44.0979 59.0495 44.1389 59.0699 44.1798 59.0852C44.144 58.8607 44.1082 58.5342 44.0979 58.121C44.0979 57.9475 44.1645 57.6823 44.231 57.519L44.4358 56.9425C44.5023 57.2945 44.6201 57.7639 44.6815 58.1108C44.6969 58.8913 44.8146 59.2994 44.8146 59.2994L44.9119 59.6259L44.5689 59.6718C44.4716 59.6871 44.3897 59.6922 44.3129 59.6922V59.7024Z" fill="#5A3714"/>
<path d="M35.6408 56.9068L35.2364 57.1363L35.2005 56.6721C35.1493 56.0446 35.0009 55.4682 34.8473 55.0192C33.5623 55.3661 32.8405 56.1824 32.8303 56.1926L32.6153 56.4425L32.39 56.2079C31.4736 55.2386 30.5726 54.4122 29.0164 54.0398C30.4856 55.662 34.5145 60.136 38.3592 64.7018C38.3899 63.6917 38.4513 62.3347 38.5076 61.1869C38.1697 61.1563 37.8728 61.0594 37.6169 60.8859C37.2585 60.641 36.9974 60.2584 36.849 59.7585C36.5981 59.8911 36.2449 60.0289 35.8353 60.0289C35.5845 60.0289 35.3132 59.9779 35.0316 59.8401L34.7295 59.6922L34.919 59.4116C34.919 59.4116 35.2364 58.9372 35.4411 58.5597C35.5794 58.4219 35.9121 58.0036 35.9684 57.8097C36.0555 58.1515 36.0247 58.4831 35.9582 58.8351C35.8507 59.0341 35.7227 59.2484 35.6152 59.4167C36.122 59.5085 36.5623 59.2586 36.7517 59.1259C36.8029 58.7484 36.9667 58.3862 37.2278 58.1158C37.1459 58.4627 37.2431 58.8198 37.3199 59.1412C37.3762 59.5544 37.5298 60.1054 37.9496 60.3962C38.1953 60.5645 38.5076 60.6308 38.8967 60.6002C38.5281 60.1003 38.052 59.2433 38.4769 58.5954L37.2534 56.1824C36.2909 56.5344 35.6459 56.8966 35.6306 56.9068H35.6408Z" fill="#5A3714"/>
<path d="M41.789 58.1057C42.0399 57.4221 42.2498 56.2895 42.3317 55.7947C40.8112 55.3049 39.127 55.5906 37.8318 55.9936L39.0758 58.4526C40.2942 57.9781 41.3283 58.0393 41.789 58.1057Z" fill="#CC6328"/>
<path d="M42.6031 72.9764C42.7208 72.4153 42.8386 71.8592 42.9512 71.3082C37.9598 64.7376 28.9702 54.8458 28.0795 53.8714C27.4447 53.8153 26.9379 53.8714 26.3389 53.948C25.7246 54.0194 25.0181 54.101 24.0147 54.0959C22.5096 54.0806 21.1837 53.5194 20.3697 53.0807C19.6991 54.1571 19.1616 55.4631 18.9722 55.9477C20.0165 56.815 26.042 61.7787 30.0811 63.8652C30.4344 63.7989 31.7398 63.5234 32.5794 62.8755L33.0555 62.5082V66.4516C34.0896 67.0485 39.9359 70.4512 42.6082 72.9764H42.6031Z" fill="#1F3521"/>
<path d="M40.3044 84.7147C40.3298 84.7096 40.3551 84.6995 40.3804 84.6945C40.3551 84.6995 40.3298 84.7046 40.3044 84.7147Z" fill="#EC00D1"/>
<path d="M39.9819 84.7963C40.0534 84.781 40.1299 84.7607 40.2014 84.7403C40.2269 84.7353 40.2524 84.7302 40.2779 84.7251C40.181 84.7505 40.0789 84.7759 39.9819 84.7963Z" fill="#EC00D1"/>
<path d="M49.0073 64.7478L47.0159 62.7531L47.5739 62.6562C49.1097 62.3909 49.7343 62.0899 49.9237 61.9828C50.7991 58.8046 50.4817 56.5395 50.4151 56.1569C49.9237 55.4937 48.8947 54.9019 48.6182 54.7489C48.1575 54.8968 47.5688 55.0091 46.847 55.0091C46.8111 55.0091 46.765 55.0091 46.7292 55.004C46.3913 56.8966 44.0415 69.9462 40.6218 84.6384C40.6218 84.6384 40.6218 84.6384 40.6218 84.6333C40.8624 84.572 41.0979 84.5057 41.3334 84.4394C41.3334 84.4394 41.3334 84.4394 41.3334 84.4445C44.5432 77.7922 48.4851 66.2935 49.0073 64.7529V64.7478Z" fill="#1F3521"/>
<path d="M50.4613 62.248L50.4357 62.3347L50.3691 62.3909C50.3179 62.4368 49.8623 62.799 48.2241 63.1357L49.6831 64.5998L49.6268 64.7732C49.5859 64.9008 45.5057 76.9963 42.1014 84.2098C41.9529 84.2608 41.8045 84.3118 41.6509 84.3578C41.656 84.3578 41.6611 84.3578 41.6714 84.3527C41.8966 84.2812 42.1219 84.2098 42.3471 84.1282C42.4802 84.0823 42.6133 84.0364 42.7464 83.9904C48.6439 81.8172 53.8042 77.1341 57.5976 70.8032C57.5976 70.8032 57.613 70.7828 57.6181 70.7675C57.6284 70.7471 57.6437 70.7318 57.654 70.7113C57.6898 70.6501 57.7256 70.5838 57.7666 70.5175C56.3844 66.1455 52.4732 60.6666 51.0807 58.7994C51.009 59.7636 50.8401 60.9318 50.4664 62.2582L50.4613 62.248Z" fill="#921A1D"/>
<path d="M61.0584 48.8465C61.2734 48.27 61.3297 47.6477 61.345 46.8875L61.3092 45.8417C61.2836 44.9796 60.4645 44.4439 58.8775 44.2399L58.6113 44.2246C57.4902 44.2144 56.9373 44.347 56.6916 45.1785L56.1182 46.8671C55.9083 47.515 55.4987 47.6987 55.1916 47.7446C54.0909 47.8925 52.9237 46.5151 52.7906 46.357C51.521 44.8623 50.492 43.9389 49.1354 43.0818C47.3948 41.9799 45.3215 42.0667 45.0092 42.1687C44.9938 42.1738 44.9734 42.184 44.9631 42.1891C44.999 42.1891 45.0399 42.1891 45.0809 42.1891C45.5672 42.1891 46.2225 42.2197 46.7037 42.3523C47.7378 42.6431 49.3248 43.4185 50.9886 45.4642C51.4596 46.0458 51.7975 46.4641 52.0329 46.76C52.7548 47.663 53.5176 48.4435 54.3111 49.0914C55.3144 49.9076 56.2206 50.4177 56.927 50.5555C58.0994 50.785 58.9748 50.7902 59.9679 50.1474C60.4901 49.8056 60.8792 49.3464 61.0635 48.8516L61.0584 48.8465ZM58.9645 45.8264C58.0328 45.6887 57.311 45.352 57.3519 45.0765C57.3929 44.7959 58.1762 44.6837 59.1079 44.8163C60.0396 44.949 60.7614 45.2908 60.7205 45.5663C60.6795 45.8468 59.8963 45.9591 58.9645 45.8264Z" fill="#CC6328"/>
<path d="M44.3845 64.2376C43.7241 61.8654 42.1217 59.2331 41.7839 58.6974C41.4613 58.6413 40.4323 58.5342 39.2139 59.0239L39.1679 59.932C39.3368 60.2177 39.5467 60.4727 39.6696 60.6054L40.0228 60.9727L39.5262 61.0951C39.3778 61.1308 39.2395 61.1563 39.1013 61.1716C39.0296 62.6052 38.9529 64.3805 38.9375 65.3804C40.4323 67.1659 41.876 68.9463 43.1098 70.5481C43.5859 68.2627 44.0108 66.1405 44.3845 64.2376Z" fill="#CC6328"/>
<path d="M61.1506 14.3453C61.1506 12.0241 62.2001 9.81014 63.9816 8.32054H63.9662C61.8622 8.32054 60.1472 10.0294 60.1472 12.1262C60.1472 13.0852 60.5107 13.9984 61.1557 14.6973C61.1506 14.5749 61.1455 14.4575 61.1455 14.3453H61.1506Z" fill="#BFAA89"/>
<path fill-rule="evenodd" clip-rule="evenodd" d="M71.0872 12.371C71.0872 16.0186 68.118 18.9774 64.4577 18.9774C60.7973 18.9774 57.8281 16.0186 57.8281 12.371C57.8281 8.72354 60.7973 5.76468 64.4577 5.76468C68.118 5.76468 71.0872 8.72354 71.0872 12.371ZM61.1607 14.6973C61.1505 14.5748 61.1506 14.4575 61.1506 14.3453H61.1556C61.1556 12.0292 62.2051 9.81524 63.9866 8.32044H63.9712C61.8672 8.32044 60.1522 10.0294 60.1522 12.1261C60.1522 13.0852 60.5157 13.9984 61.1607 14.6973Z" fill="white"/>
<path fill-rule="evenodd" clip-rule="evenodd" d="M63.8535 27.451C63.8535 24.9717 65.8705 22.9668 68.3534 22.9668C70.8414 22.9668 72.8533 24.9717 72.8533 27.451C72.8533 29.9303 70.8414 31.9352 68.3534 31.9352C65.8654 31.9352 63.8535 29.9303 63.8535 27.451ZM66.4185 29.1803C66.4133 29.0987 66.4133 29.0171 66.4133 28.9406V28.9457C66.4133 27.3693 67.1249 25.8695 68.3331 24.8543H68.3229C66.8946 24.8543 65.7325 26.0123 65.7325 27.4356C65.7325 28.0886 65.9782 28.7059 66.4185 29.1803Z" fill="white"/>
<path d="M59.0466 38.1793C59.0466 38.6589 59.2258 39.1129 59.5483 39.4649C59.5483 39.4037 59.5483 39.3476 59.5483 39.2863C59.5483 38.1283 60.0705 37.0213 60.9664 36.2765H60.9613C59.9067 36.2765 59.0518 37.1284 59.0518 38.1793H59.0466Z" fill="#BFAA89"/>
<path fill-rule="evenodd" clip-rule="evenodd" d="M57.4543 38.0875C57.4543 36.2663 58.939 34.7869 60.7666 34.7869C62.5942 34.7869 64.0788 36.2663 64.0788 38.0875C64.0788 39.9088 62.5942 41.3882 60.7666 41.3882C58.939 41.3882 57.4543 39.9088 57.4543 38.0875ZM59.5432 39.47V39.2914H59.5381C59.5381 38.1334 60.0654 37.0264 60.9561 36.2816H60.951C59.8964 36.2816 59.0415 37.1335 59.0415 38.1844C59.0415 38.6639 59.2207 39.118 59.5432 39.47Z" fill="white"/>
<path d="M23.4363 72.5121H23.4414C26.0164 72.7774 28.53 72.91 30.9105 72.91C33.7517 72.91 35.6408 72.7162 36.3319 72.6294C36.3472 72.6294 36.3575 72.6294 36.3728 72.6448C36.3882 72.6601 36.3984 72.6805 36.3984 72.706L36.4752 74.5833C36.4752 74.6343 36.4394 74.6853 36.3882 74.6904C34.4838 74.9557 32.4924 75.0935 30.4702 75.0935C26.9737 75.0935 24.327 74.6904 23.3492 74.5221C23.3134 74.517 23.2878 74.4813 23.2878 74.4405L23.3287 72.6141C23.3287 72.5886 23.3441 72.558 23.3646 72.5376C23.3799 72.5223 23.4055 72.5121 23.4311 72.5121M23.4363 71.9255C23.2724 71.9255 23.1086 71.9867 22.9806 72.0938C22.8373 72.2213 22.7503 72.405 22.7451 72.5937L22.7042 74.4201C22.6939 74.7517 22.9243 75.0373 23.252 75.0935C24.2451 75.2669 26.9328 75.675 30.4754 75.675C32.2876 75.675 34.3251 75.5679 36.4752 75.2669C36.8233 75.221 37.0844 74.9047 37.0691 74.5527L36.9923 72.6754C36.982 72.4866 36.9001 72.3081 36.7568 72.1856C36.639 72.0836 36.4906 72.0326 36.337 72.0326C36.3114 72.0326 36.2807 72.0326 36.2551 72.0377C35.5384 72.1244 33.7005 72.3132 30.9156 72.3132C28.914 72.3132 26.4208 72.2162 23.5079 71.9152C23.4874 71.9152 23.4618 71.9152 23.4414 71.9152L23.4363 71.9255Z" fill="black"/>
<path d="M32.6101 66.875L32.4616 66.7883V63.6509C31.4122 64.2478 30.1375 64.4467 30.076 64.4569L29.9839 64.4722L29.8969 64.4314C25.8526 62.3704 19.7964 57.3965 18.6292 56.4272C14.7538 59.9268 11.5338 64.661 10.5969 66.0945C10.6174 66.1404 10.6379 66.1914 10.6584 66.2374C10.7147 66.3649 10.771 66.4822 10.8273 66.6098C15.9722 77.8534 25.0079 85.3219 35.2978 85.3219C36.8899 85.3219 38.4513 85.1281 39.9717 84.7812C40.8779 80.9041 41.7072 77.1341 42.4495 73.6498C39.7977 70.9766 32.6715 66.9107 32.5999 66.8699L32.6101 66.875ZM36.4701 75.2771C34.3251 75.5781 32.2876 75.6853 30.4702 75.6853C26.9276 75.6853 24.24 75.2771 23.2468 75.1037C22.9243 75.0476 22.6939 74.7619 22.6991 74.4303L22.74 72.604C22.74 72.4101 22.8322 72.2316 22.9755 72.104C23.1035 71.9918 23.2673 71.9357 23.4311 71.9357C23.4516 71.9357 23.4772 71.9357 23.4977 71.9357C26.4106 72.2367 28.9037 72.3336 30.9054 72.3336C33.6903 72.3336 35.5281 72.1448 36.2448 72.0581C36.2756 72.0581 36.3012 72.053 36.3268 72.053C36.4803 72.053 36.6288 72.104 36.7465 72.2061C36.8899 72.3285 36.9769 72.5019 36.982 72.6958L37.0588 74.5731C37.0742 74.9251 36.8131 75.2414 36.465 75.2873L36.4701 75.2771Z" fill="#921A1D"/>
<path d="M36.3268 72.6295C35.6357 72.7162 33.7467 72.9101 30.9054 72.9101C28.5249 72.9101 26.0165 72.7774 23.4363 72.5121H23.4311C23.4311 72.5121 23.3851 72.5223 23.3646 72.5376C23.3442 72.5581 23.3287 72.5835 23.3287 72.6141L23.2878 74.4405C23.2878 74.4864 23.3082 74.517 23.3492 74.5221C24.327 74.6956 26.9737 75.0935 30.4702 75.0935C32.4923 75.0935 34.4787 74.9607 36.3882 74.6904C36.4343 74.6853 36.4752 74.6343 36.4752 74.5833L36.3984 72.706C36.3984 72.706 36.3881 72.655 36.3728 72.6448C36.3574 72.6346 36.3473 72.6294 36.3319 72.6294L36.3268 72.6295Z" fill="#1F3521"/>
<path d="M34.018 34.1186C34.3302 34.1186 34.5862 33.8635 34.5862 33.5523C34.5862 33.2411 34.3302 32.986 34.018 32.986C33.7057 32.986 33.4497 33.2411 33.4497 33.5523C33.4497 33.8635 33.7057 34.1186 34.018 34.1186Z" fill="black"/>
<path d="M45.3417 34.1237C45.6556 34.1237 45.91 33.8701 45.91 33.5574C45.91 33.2446 45.6556 32.9911 45.3417 32.9911C45.0279 32.9911 44.7735 33.2446 44.7735 33.5574C44.7735 33.8701 45.0279 34.1237 45.3417 34.1237Z" fill="black"/>
<path d="M36.0348 30.3792L30.3882 30.5016L30.4035 31.0883L32.3233 31.0475C31.3148 31.4403 30.593 32.4147 30.593 33.5574C30.593 35.047 31.8062 36.2561 33.3011 36.2561C34.7959 36.2561 36.0092 35.047 36.0092 33.5574C36.0092 32.3687 35.226 31.3689 34.156 31.0067L36.0502 30.9658L36.0348 30.3792ZM35.4207 33.5523C35.4207 34.7154 34.4685 35.6643 33.3013 35.6643C32.1341 35.6643 31.1819 34.7154 31.1819 33.5523C31.1819 32.3892 32.1341 31.4403 33.3013 31.4403C34.4685 31.4403 35.4207 32.3892 35.4207 33.5523Z" fill="black"/>
<path d="M40.7499 36.1898H38.0059C37.6937 36.1898 37.4019 36.3275 37.2022 36.5673C37.0026 36.807 36.9258 37.1182 36.9821 37.4243L37.1305 38.2099L37.709 38.0977L37.5606 37.3121C37.535 37.1794 37.5708 37.0468 37.6578 36.9397C37.7449 36.8376 37.8728 36.7764 38.0059 36.7764H40.7499C40.883 36.7764 41.011 36.8376 41.098 36.9397C41.1851 37.0417 41.2209 37.1794 41.1953 37.3121L41.0468 38.0977L41.6253 38.2099L41.7738 37.4243C41.8352 37.1182 41.7533 36.807 41.5537 36.5673C41.354 36.3275 41.0622 36.1898 40.7499 36.1898Z" fill="black"/>
<path d="M31.8678 41.1076C31.3405 41.3677 31.2689 42.1942 31.8678 42.4543L31.9242 42.4441C31.8781 41.9442 32.0982 41.4392 32.4924 41.128C32.3388 40.9545 32.0061 41.031 31.8678 41.1025V41.1076Z" fill="black"/>
<path d="M59.1079 44.8163C58.1762 44.6786 57.3928 44.7959 57.3519 45.0765C57.3109 45.3571 58.0379 45.6887 58.9645 45.8264C59.8962 45.9642 60.6796 45.8468 60.7205 45.5663C60.7615 45.2857 60.0345 44.9541 59.1079 44.8163Z" fill="black"/>
<path d="M44.0879 58.1209C44.093 58.5392 44.1288 58.8606 44.1698 59.0851C44.1288 59.0698 44.0879 59.0494 44.0367 59.0188C44.0367 59.0188 43.9752 58.9882 43.9189 58.9474C43.8882 58.927 43.8012 58.8606 43.75 58.8249C43.5299 58.728 43.2944 58.6923 43.0896 58.5494C43.1152 58.8096 43.2329 59.0851 43.3916 59.2943C43.4428 59.3351 43.5401 59.4065 43.5708 59.4269C43.6527 59.4881 43.7398 59.534 43.7398 59.534C43.9292 59.6514 44.093 59.7024 44.3029 59.7024C44.3797 59.7024 44.4667 59.6973 44.5589 59.682L44.9018 59.6361L44.8046 59.3096C44.8046 59.3096 44.6817 58.8963 44.6715 58.1209C44.61 57.774 44.4923 57.3047 44.4257 56.9527L44.221 57.5292C44.1493 57.6924 44.0879 57.9628 44.0879 58.1311V58.1209Z" fill="black"/>
<path d="M61.898 45.8264C61.8621 44.6327 60.869 43.9083 58.9339 43.6634L58.637 43.643C57.8025 43.6328 56.5431 43.6175 56.1285 45.0051L55.5551 46.6885C55.4271 47.0814 55.2377 47.1477 55.1097 47.163C54.4442 47.2548 53.5381 46.3467 53.2412 45.9845C52.2531 44.8214 51.4084 44.0001 50.4562 43.2808C50.5535 41.9493 50.4255 40.9749 50.3283 40.4852C51.5211 40.3168 51.6798 39.4343 51.69 39.3935L51.7105 39.2608L51.6235 39.1588C50.0365 37.261 49.4887 34.8379 49.2225 33.6747C49.1764 33.4656 49.1355 33.2921 49.0996 33.1595C49.0177 32.8483 48.9563 32.4351 48.8948 31.9912C48.7822 31.1801 48.6542 30.2618 48.3112 29.415C48.0911 28.864 47.7584 28.3437 47.4102 27.7876C46.8932 26.9714 46.3096 26.0429 45.8437 24.7165C45.1475 22.7372 46.2021 22.1862 46.243 22.1658L46.5758 22.0128L46.3505 21.722C44.3591 19.1509 42.895 18.3448 41.2005 17.4164C40.9138 17.2582 40.6117 17.095 40.3046 16.9164C38.2159 15.7227 35.5487 12.8046 35.518 12.7791L35.1392 12.3608L35.0163 12.9118C34.9549 13.1821 34.919 13.4474 34.8986 13.7127C31.8679 12.0343 29.6768 9.50914 29.6563 9.48364L29.4157 9.19794L29.1956 9.49894C28.2792 10.7538 27.8083 12.6261 27.6188 13.5392C27.3526 13.3301 27.1735 13.2689 27.1427 13.2587L26.8253 13.1668L26.7742 13.4933C26.7639 13.5494 25.8527 18.9468 21.2145 23.1657L20.7077 23.6299L21.3937 23.6759C21.3937 23.6759 21.5217 23.6861 21.6958 23.6861C21.8186 23.6861 21.9671 23.6861 22.1411 23.6708C21.3681 24.9971 19.1617 29.2415 18.5883 35.3684L18.5269 36.052L19.0695 35.6235C19.0695 35.6235 19.6173 35.2103 20.3084 35.5419C19.6736 37.5824 18.7317 41.5055 18.8494 46.6273L18.8596 47.0406L20.0627 46.5865C19.9245 48.0404 19.6634 49.5454 19.2897 50.1014L19.1463 50.3055L19.3306 50.4789C19.3306 50.4789 19.8528 50.9483 20.8306 51.0248C20.2931 51.6319 19.5764 52.0553 19.5661 52.0604L19.1873 52.2849L19.5405 52.5501C19.5405 52.5501 19.6787 52.6522 19.8784 52.7746C19.1003 54.0193 18.5167 55.5141 18.3887 55.861C14.6618 59.1871 11.5134 63.6764 10.3359 65.4466C10.4281 65.6609 10.5202 65.8752 10.6175 66.0894C11.5543 64.6559 14.7744 59.9217 18.6498 56.4221C19.817 57.3914 25.8731 62.3653 29.9174 64.4263L30.0045 64.4671L30.0966 64.4518C30.158 64.4416 31.4328 64.2427 32.4822 63.6458V66.7832L32.6307 66.8699C32.7024 66.9107 39.8285 70.9766 42.4803 73.6498C41.738 77.1341 40.9087 80.9092 40.0025 84.7914C40.2176 84.7404 40.4326 84.6893 40.6425 84.6332C44.0622 69.941 46.4171 56.8864 46.7498 54.9988C46.7908 54.9988 46.8317 55.0039 46.8676 55.0039C47.5894 55.0039 48.1781 54.8866 48.6389 54.7438C48.9153 54.8968 49.9443 55.4886 50.4358 56.1518C50.5023 56.5395 50.8146 58.7994 49.9443 61.9776C49.7549 62.0848 49.1303 62.3857 47.5945 62.651L47.0365 62.748L49.0279 64.7426C48.5058 66.2833 44.5639 77.782 41.354 84.4343C41.4616 84.4037 41.5639 84.3731 41.6714 84.3424C41.8199 84.2965 41.9684 84.2455 42.122 84.1945C45.5263 76.981 49.6013 64.8855 49.6474 64.7579L49.7037 64.5845L48.2447 63.1204C49.8829 62.7837 50.3385 62.4215 50.3897 62.3755L50.4562 62.3194L50.4818 62.2327C50.8556 60.9063 51.0296 59.733 51.0962 58.7739C52.4937 60.6462 56.3998 66.12 57.782 70.492C57.9151 70.2624 58.0482 70.0379 58.1762 69.8084C56.4049 64.7579 51.8078 58.7229 51.132 57.8505C51.1422 56.7027 51.0091 56.0191 50.9989 55.9681L50.9528 55.861C50.5484 55.2743 49.8061 54.7591 49.3197 54.4581C49.6371 54.2948 49.8112 54.1571 49.8368 54.1367L50.1388 53.8816L49.8061 53.6673C48.859 53.0501 48.5211 52.3971 48.4085 52.0961C49.6423 51.1931 49.7754 50.2902 49.7805 50.2494L49.801 50.0861L49.673 49.9841C49.1969 49.6066 48.9563 49.1168 48.8334 48.6934C49.0228 48.724 49.1969 48.7444 49.3453 48.7444C50.0365 48.7444 50.2822 48.4486 50.3334 48.372L50.4255 48.2394L50.3641 48.0915C49.9187 47.0508 50.0057 46.4029 50.1849 45.4132C50.3078 45.5509 50.4255 45.6785 50.5484 45.8315C51.0194 46.4131 51.3521 46.8263 51.5927 47.1222C52.3402 48.0557 53.1337 48.872 53.9579 49.5403C55.0534 50.433 56.021 50.9636 56.8349 51.1217C57.311 51.2135 57.7513 51.2748 58.1762 51.2748C58.9032 51.2748 59.5789 51.1013 60.311 50.6269C60.9355 50.2188 61.4065 49.6576 61.6369 49.0454C61.898 48.3516 61.9492 47.5966 61.9594 46.8875L61.9236 45.8213L61.898 45.8264ZM42.6031 72.9764C39.9257 70.4512 34.0846 67.0485 33.0505 66.4516V62.5082L32.5744 62.8755C31.7399 63.5234 30.4345 63.7989 30.0761 63.8652C26.037 61.7787 20.0115 56.8201 18.9672 55.9477C19.1566 55.4631 19.6941 54.152 20.3647 53.0807C21.1787 53.5194 22.5046 54.0755 24.0097 54.0959C25.0131 54.101 25.7196 54.0245 26.3339 53.9479C26.9329 53.8765 27.4448 53.8153 28.0745 53.8714C28.9601 54.8458 37.9548 64.7375 42.9462 71.3082C42.8335 71.8541 42.7158 72.4101 42.598 72.9764H42.6031ZM38.4872 58.5954C38.0623 59.2432 38.5384 60.1003 38.907 60.6002C38.5179 60.6308 38.2005 60.5594 37.9599 60.3962C37.535 60.1054 37.3814 59.5544 37.3302 59.1412C37.2535 58.8249 37.1562 58.4678 37.2381 58.1158C36.977 58.3862 36.8183 58.7433 36.762 59.1259C36.5726 59.2586 36.1323 59.5085 35.6255 59.4167C35.733 59.2483 35.8661 59.0341 35.9685 58.8351C36.035 58.4831 36.0658 58.1515 35.9787 57.8097C35.9224 57.9985 35.5897 58.4168 35.4514 58.5597C35.2467 58.9372 34.9293 59.4065 34.9293 59.4116L34.7399 59.6922L35.0419 59.8401C35.3183 59.9779 35.5897 60.0289 35.8456 60.0289C36.2552 60.0289 36.6084 59.8911 36.8593 59.7585C37.0077 60.2584 37.2688 60.641 37.6272 60.8859C37.878 61.0594 38.1801 61.1563 38.5179 61.1869C38.4616 62.3347 38.4002 63.6917 38.3695 64.7018C34.5248 60.136 30.4959 55.662 29.0267 54.0398C30.5829 54.4122 31.4788 55.2437 32.4003 56.2079L32.6256 56.4425L32.8406 56.1926C32.8406 56.1926 33.5675 55.3661 34.8576 55.0192C35.0061 55.4682 35.1596 56.0446 35.2108 56.6721L35.2467 57.1363L35.6511 56.9068C35.6511 56.9068 36.3115 56.5344 37.2739 56.1824L38.4975 58.5954H38.4872ZM37.8268 55.9936C39.1271 55.5855 40.8063 55.3049 42.3267 55.7947C42.2448 56.2895 42.0349 57.422 41.7841 58.1056C41.3233 58.0393 40.2892 57.9781 39.0708 58.4525L37.8268 55.9936ZM43.1098 70.5481C41.876 68.9463 40.4323 67.1659 38.9375 65.3804C38.9529 64.3805 39.0348 62.6051 39.1013 61.1716C39.2395 61.1563 39.3778 61.1308 39.5262 61.0951L40.0228 60.9727L39.6696 60.6054C39.5416 60.4728 39.3368 60.2177 39.1679 59.932L39.2139 59.0239C40.4323 58.5342 41.4613 58.6413 41.7839 58.6974C42.1166 59.233 43.7241 61.8654 44.3845 64.2376C44.0108 66.1404 43.5808 68.2626 43.1098 70.5481ZM44.6201 63.049C43.8471 60.937 42.6235 58.9271 42.301 58.4067C42.5724 57.7282 42.7874 56.6008 42.8898 56.0141C42.9358 56.0345 42.9819 56.0498 43.028 56.0753L43.2583 56.1926L43.4068 55.9835C43.4273 55.9529 43.8522 55.3458 44.2105 54.5398C44.9221 54.7745 45.5672 54.9071 46.1405 54.9683C45.9767 55.8815 45.4494 58.8199 44.6201 63.049ZM48.6235 48.0659C48.4955 47.7956 48.4597 47.4691 48.4853 47.163C48.214 47.5609 48.1577 48.0659 48.1474 48.4128C48.2345 48.9638 48.4802 49.7188 49.1355 50.3208C49.0433 50.581 48.7464 51.1574 47.8812 51.739L47.7225 51.8461L47.7532 52.0349C47.7584 52.0757 47.9375 53.0093 49.0996 53.9122C48.4597 54.2591 46.9034 54.8101 44.4001 53.9938C44.4154 53.6367 44.3489 53.3511 44.5741 53.0297C44.185 53.1878 43.9854 53.6418 43.8472 53.8663C43.6014 54.5397 43.2482 55.1366 43.0588 55.4427C40.2585 54.1826 36.8797 55.6263 35.7381 56.1926C35.5999 55.2539 35.2876 54.4632 35.0982 54.0449C34.8474 53.6776 34.489 53.3613 34.1511 53.0705C34.3201 53.4582 34.4634 53.8816 34.5607 54.2897C34.5812 54.3407 34.6119 54.402 34.6375 54.4734C33.629 54.754 32.9378 55.2845 32.6051 55.5906C31.6478 54.6009 30.6597 53.7745 28.9345 53.4174C27.8185 53.1878 27.1018 53.2745 26.2673 53.3715C25.6684 53.4429 24.9875 53.5296 24.0148 53.5143C22.3459 53.4939 20.8818 52.7287 20.2265 52.3308C20.7589 51.9533 21.6804 51.1829 21.921 50.2596C21.9364 49.7239 21.8801 49.2495 21.6804 48.775C21.6855 49.2189 21.5217 49.7239 21.3528 50.1116C21.3221 50.229 21.2709 50.3463 21.2145 50.4636C20.5593 50.4891 20.119 50.3259 19.8989 50.1984C20.421 49.1219 20.6309 46.8365 20.6975 45.8417C20.6412 45.403 20.5542 45.0765 20.6053 44.6123C20.3443 45 20.2009 45.3979 20.1088 45.806C20.1088 45.857 20.1036 45.908 20.0985 45.959L19.4125 46.2192C19.3409 40.5209 20.59 36.3989 21.1378 34.8634L21.1531 34.6797C21.2197 34.2206 21.3118 33.741 21.5524 33.3278C21.1122 33.6798 20.8562 34.241 20.5797 34.6644C20.5439 34.7613 20.5081 34.8736 20.4671 34.996C19.9961 34.7919 19.5508 34.8123 19.2078 34.9195C19.9552 28.1804 22.6684 23.9105 22.8681 23.6044C23.1804 23.5483 23.508 23.4565 23.8203 23.3239L23.7998 23.283L23.8152 23.3239C24.2247 23.0535 24.5984 22.6913 24.8595 22.278C24.4705 22.528 24.0199 22.6607 23.5797 22.7882C23.1036 22.9923 22.5661 23.079 22.1463 23.1096C25.7964 19.5029 26.9636 15.3605 27.2605 14.0392C27.4192 14.1667 27.6291 14.3759 27.8697 14.7075L27.9567 14.7789C28.0898 14.9166 28.4635 15.4217 28.6018 15.7329C28.5864 15.2737 28.5199 14.7942 28.3509 14.3606C28.269 14.2483 28.1922 14.1514 28.1154 14.0596C28.2076 13.5392 28.6018 11.5497 29.4567 10.1723C30.1529 10.9273 32.1904 12.9781 34.873 14.3963C34.8832 14.7024 34.9139 15.0034 34.9805 15.289C35.0777 15.5339 35.2211 15.7278 35.4156 15.8706C35.5897 16.0033 35.7637 16.1257 35.9429 16.2481C35.7893 15.9012 35.5845 15.5288 35.5538 15.1564C35.5538 15.1564 35.4668 15.1768 35.4207 15.187L35.5538 15.1564C35.4719 14.8095 35.4054 14.2892 35.4822 13.6311C36.3217 14.5085 38.308 16.4828 40.0025 17.4521C40.3148 17.6306 40.6169 17.7939 40.9087 17.9571C42.5571 18.8601 43.8728 19.5794 45.685 21.8648C45.2703 22.227 44.6356 23.1147 45.2755 24.9359C45.7618 26.3235 46.3659 27.2826 46.9034 28.1243C47.2515 28.6804 47.5587 29.1599 47.7584 29.6548C48.0706 30.4353 48.1986 31.3178 48.3061 32.0933C48.3727 32.5524 48.429 32.986 48.5263 33.3329C48.5621 33.4554 48.5979 33.6237 48.644 33.8227C48.9102 35.0062 49.4631 37.4396 51.0603 39.4241C50.9733 39.6077 50.7122 39.9291 49.9545 39.9444H49.5706L49.6781 40.3168C49.6781 40.327 49.9494 41.3116 49.8829 42.8931C49.7395 42.7961 49.5962 42.6992 49.4426 42.6023C48.7976 42.1942 48.1116 41.9391 47.4614 41.7809C47.2771 41.3167 47.2055 40.8882 47.1747 40.6586C48.5314 39.8883 48.6542 38.4293 48.5263 37.7406L48.4853 37.5263L48.2652 37.5059C47.2874 37.4141 47.1389 36.9192 47.057 36.654C46.9904 36.4346 46.8829 35.6643 46.8164 35.1337C47.1338 34.6899 47.3283 34.1543 47.3283 33.5676C47.3283 32.384 46.5553 31.3842 45.4854 31.022L47.1287 31.0985L47.1543 30.5118L45.9103 30.4557C45.7311 27.9713 44.139 26.2878 44.0673 26.2113L43.9905 26.1552C43.6117 25.9511 43.0946 25.9307 42.7516 25.9409C42.7926 25.7164 42.8335 25.4767 42.982 25.2879C42.6492 25.4308 42.3626 25.7879 42.1731 26.0837C41.8762 27.0785 41.7278 28.0529 41.6663 28.5682C41.1237 28.308 40.7653 27.8029 40.7602 27.7978L40.3507 27.2112L40.2278 27.9152C39.9923 29.2977 40.2483 30.9352 40.4223 31.777C36.634 30.119 35.0931 26.9102 35.0777 26.8745L34.873 26.4408L34.576 26.8184C34.3252 27.1397 34.1511 27.6193 34.0487 27.9662C33.6443 27.5836 33.2757 26.9357 32.9378 26.349C32.8611 26.2164 32.7894 26.0888 32.7177 25.9664C32.129 24.9614 31.0693 24.992 31.0232 24.9971L30.7212 25.0073L30.7621 25.5583C30.8492 26.4459 31.1358 27.053 31.3816 27.4254C31.3611 27.4254 31.3406 27.4254 31.3201 27.4254C29.7383 27.4254 28.914 26.3847 28.8782 26.3337L28.6478 26.0327L28.4123 26.3286C28.3867 26.3643 27.7315 27.1959 27.926 28.16C28.0335 28.6957 28.3816 29.1548 28.955 29.5221C28.5864 30.2771 27.624 32.5575 28.2741 34.7103C27.9721 34.7358 27.4704 34.7205 26.8817 34.4501L26.4465 34.2512L26.4619 34.7256C26.4619 34.8174 26.5591 36.8937 28.3458 38.8629C28.2076 38.9751 27.9721 39.118 27.6035 39.2047L27.3322 39.2659L27.3834 39.5414C27.3885 39.5771 27.5267 40.3168 27.9823 40.929L26.339 42.5156L26.554 42.7247C26.6206 42.791 28.1769 44.2654 31.2229 44.6531C31.1154 44.8979 30.9311 45.255 30.6188 45.6376C30.4294 45.9233 30.1529 46.1835 29.856 46.3927C30.2963 46.4182 30.7263 46.3263 31.0744 46.005C31.2075 45.8417 31.3201 45.6785 31.4174 45.5254C32.3082 45.9335 35.5334 47.2803 39.3114 47.2803C41.2977 47.2803 43.4274 46.9079 45.4444 45.8264C45.3625 46.0101 45.2499 46.2243 45.0912 46.459C44.9274 46.8263 44.6663 47.1834 44.569 47.5762C44.912 47.2956 45.2857 47.1222 45.5775 46.7906C45.6953 46.6171 45.7925 46.4539 45.8693 46.3008C47.2311 45.857 47.9529 44.8673 47.9068 43.5307C48.4392 43.8419 49.028 44.2807 49.6474 44.8928L49.6013 45.1632C49.4119 46.209 49.2737 46.9793 49.7037 48.1119C49.545 48.168 49.2174 48.219 48.6184 48.071L48.6235 48.0659ZM46.586 40.4903C46.586 40.4903 46.6065 41.0055 46.801 41.633C45.8335 41.4851 45.0553 41.5412 44.8301 41.6177C44.4768 41.7299 44.2874 42.0513 44.2055 42.2962C42.9922 42.4798 41.7636 42.5564 40.581 42.5615L39.5264 40.9749C39.4292 40.8321 39.2756 40.7402 39.1015 40.73C38.9224 40.7147 38.7637 40.7862 38.651 40.9137L37.5094 42.2095L36.378 40.0566C36.291 39.8883 36.1272 39.7812 35.9378 39.7659C35.7535 39.7506 35.5692 39.8271 35.4514 39.975L33.9054 41.9493C33.3269 41.8422 32.989 41.7656 32.9737 41.7605L32.8406 42.3319C32.8867 42.3421 36.3576 43.143 40.453 43.143C41.866 43.143 43.3608 43.0461 44.8096 42.791V42.7808C45.2499 42.7706 46.0382 42.7808 46.5502 42.9186C46.7754 42.9798 47.0314 43.0716 47.3078 43.1991C47.4256 44.0103 47.2771 44.9847 46.1816 45.5407C46.2328 45.3469 46.243 45.2295 46.243 45.2193L46.2789 44.648L45.7925 44.9489C40.0998 48.4792 33.1477 45.6479 31.7246 45C31.873 44.6837 31.9293 44.4694 31.9293 44.4541L32.0112 44.1225L31.6734 44.0919C29.2673 43.8674 27.7673 42.9033 27.2195 42.4798L28.8168 40.9392L28.6171 40.73C28.3048 40.4035 28.1308 39.9546 28.0489 39.674C28.7297 39.4394 28.9908 39.0517 29.0215 39.0057L29.1444 38.8119L28.9857 38.6486C27.6905 37.3172 27.2707 35.8683 27.1376 35.149C28.0642 35.4245 28.7451 35.2154 28.7809 35.2052L29.0779 35.1082L28.9652 34.8174C28.0335 32.4198 29.6103 29.568 29.6256 29.5425L29.769 29.2824L29.5079 29.1395C28.9448 28.8334 28.6171 28.461 28.525 28.0325C28.4431 27.6295 28.5813 27.2367 28.7093 26.9765C29.1956 27.4305 30.3116 28.211 32.0266 27.9407L32.6563 27.8386L32.1751 27.4254C32.1495 27.405 31.5454 26.8694 31.3867 25.6042C31.6375 25.6705 31.9908 25.8287 32.2365 26.2419L32.4515 26.6194C32.9122 27.4254 33.4344 28.3386 34.1153 28.6957L34.4634 28.8793L34.5402 28.4967C34.576 28.3233 34.6784 27.9305 34.8269 27.5836C35.4566 28.6447 37.2586 31.1903 40.75 32.5167L41.2824 32.7207L41.139 32.1698C41.139 32.1698 40.6527 30.2873 40.7602 28.6192C41.0315 28.864 41.4104 29.1242 41.8711 29.2364L42.2039 29.3181L42.2346 28.9763C42.2346 28.9763 42.3421 27.7774 42.68 26.5174C42.9615 26.5021 43.4069 26.5072 43.6936 26.6398C43.9137 26.8847 45.1628 28.359 45.3369 30.4149L41.953 30.2567L41.9274 30.8434L43.9956 30.9403C42.8131 31.2311 41.9274 32.2871 41.9274 33.5523C41.9274 35.0419 43.1407 36.251 44.6356 36.251C45.2703 36.251 45.8488 36.0214 46.3096 35.6541C46.3659 36.0724 46.4478 36.5928 46.5092 36.807C46.6474 37.261 46.9546 37.8681 47.9887 38.0416C48.0143 38.5058 47.9478 39.6332 46.755 40.2097L46.586 40.2913V40.4903ZM39.8694 42.5564C39.2449 42.5462 38.6357 42.5156 38.0572 42.4747L39.0606 41.3371L39.8694 42.5564ZM36.9258 42.3778C36.0043 42.286 35.1955 42.1687 34.5504 42.0666L35.8712 40.3831L36.9258 42.3778ZM46.7444 33.5523C46.7444 34.7154 45.7922 35.6643 44.625 35.6643C43.4578 35.6643 42.5056 34.7154 42.5056 33.5523C42.5056 32.3892 43.4578 31.4403 44.625 31.4403C45.7922 31.4403 46.7444 32.3892 46.7444 33.5523ZM61.0584 48.8465C60.8741 49.3413 60.485 49.8055 59.9629 50.1422C58.9697 50.7901 58.0943 50.7799 56.922 50.5504C56.2155 50.4126 55.3094 49.9076 54.306 49.0862C53.5176 48.4435 52.7497 47.6578 52.0279 46.7549C51.7924 46.459 51.4545 46.0407 50.9835 45.4591C49.3197 43.4185 47.7379 42.638 46.6986 42.3472C46.2225 42.2146 45.5622 42.184 45.0758 42.184C45.0349 42.184 44.999 42.184 44.9581 42.184C44.9734 42.1738 44.9888 42.1687 45.0041 42.1636C45.3164 42.0615 47.3898 41.9748 49.1303 43.0767C50.487 43.9338 51.5159 44.852 52.7855 46.3519C52.9135 46.51 54.0859 47.8823 55.1865 47.7395C55.4937 47.6986 55.9083 47.5099 56.1131 46.862L56.6865 45.1734C56.9373 44.3368 57.4851 44.2041 58.6062 44.2194L58.8724 44.2347C60.4594 44.4337 61.2785 44.9745 61.3041 45.8366L61.34 46.8824C61.3246 47.6425 61.2683 48.2649 61.0533 48.8414L61.0584 48.8465Z" fill="black"/>
</g>
<defs>
<clipPath id="clip0_2639_20983">
<rect width="240" height="90" fill="white"/>
</clipPath>
</defs>
</svg>
