<svg width="109" height="43" viewBox="0 0 109 43" fill="none" xmlns="http://www.w3.org/2000/svg">
<g opacity="0.8">
<g clip-path="url(#clip0_2639_21291)">
<path d="M21.4848 2.99995C21.4848 4.28566 20.4822 5.28566 19.1931 5.28566C17.904 5.28566 16.9014 4.28566 16.9014 2.99995C16.9014 1.71423 17.904 0.714233 19.1931 0.714233C20.4822 0.714233 21.4848 1.71423 21.4848 2.99995Z" fill="black"/>
<path fill-rule="evenodd" clip-rule="evenodd" d="M101.982 24.1428C102.698 22.8571 103.987 22.1428 105.42 22.1428C107.425 22.1428 108.714 23.2857 108.714 25.2857V32.2857H107.282V26C107.282 24.2857 106.566 23.4285 105.133 23.4285C103.558 23.4285 102.412 24.7143 102.412 26.2857V32.2857H100.98V26C100.98 24.4285 100.263 23.4285 98.831 23.4285C98.1149 23.4285 97.3987 23.7143 96.8258 24.2857C96.2528 24.8571 95.9664 25.5714 95.9664 26.2857V32.2857H94.534V22.4285H95.9664V24.1428C96.6825 22.8571 97.9716 22.1428 99.2607 22.1428C100.55 22.1428 101.552 23 101.982 24.1428V24.1428ZM77.6325 22.1428C75.1976 22.1428 73.4788 23.7143 73.4788 26.2857V28.4285C73.4788 31 75.1976 32.4285 77.7758 32.4285C80.0675 32.4285 81.7863 31.1428 81.7863 29V28.7143H80.354V29C80.354 30.1428 79.4946 31.1428 77.919 31.1428C76.057 31.1428 75.1976 30 75.1976 28.4285V26C75.1976 24.2857 76.2002 23.2857 77.919 23.2857C79.6378 23.2857 80.4972 24.2857 80.4972 25.4285V25.7143H81.9295V25.4285C81.6431 23.4285 79.9243 22.1428 77.6325 22.1428V22.1428ZM69.4683 32.2857H71.0438V30H69.4683V32.2857V32.2857ZM83.3619 26.1428C83.3619 23.5714 85.3671 22.1428 87.5156 22.1428C89.9506 22.1428 91.8126 23.5714 91.8126 26.1428V28.5714C91.8126 31.1428 89.9506 32.5714 87.6589 32.5714C85.2239 32.5714 83.3619 31.2857 83.3619 28.7143V26.1428V26.1428ZM90.2371 28.5714C90.2371 30.2857 89.2344 31.2857 87.5156 31.2857C85.6536 31.2857 84.7942 30.2857 84.7942 28.7143V26.1428C84.7942 24.4285 85.7968 23.4285 87.5156 23.4285C89.3777 23.4285 90.2371 24.4285 90.2371 26V28.5714Z" fill="black"/>
<path d="M13.8938 11.4286C13.8938 11.7143 13.7505 12.1429 13.4641 12.2857C13.3208 12.5715 12.8911 12.7143 12.6047 12.7143C12.3182 12.7143 11.8885 12.5715 11.7453 12.2857H11.602H11.4588C10.4562 11.4286 9.16707 11 8.02121 11C6.44564 11 5.15655 11.5715 4.29715 12.5715C3.29452 13.7143 2.86482 15.2857 2.86482 17.2857V31.4286C2.86482 31.8572 2.72158 32.1429 2.43512 32.4286C2.14865 32.5715 1.86219 32.7143 1.57572 32.7143C1.28925 32.7143 0.859553 32.5715 0.71632 32.4286C0.429854 32.1429 0.286621 31.8572 0.286621 31.4286V17.2857C0.286621 16.1429 0.429854 15 0.71632 13.8572C1.00279 12.8572 1.57572 11.8572 2.14865 11C2.86482 10.1429 3.58098 9.57146 4.58361 9.14289C5.58625 8.57146 6.87534 8.42861 8.02121 8.42861C9.02384 8.42861 10.0265 8.71432 10.8859 9.00003C11.8885 9.28575 12.7479 9.85718 13.4641 10.5715C13.7505 10.7143 13.8938 11.1429 13.8938 11.4286V11.4286ZM20.6257 31.4286C20.6257 31.8572 20.4825 32.1429 20.196 32.4286C19.6231 32.8572 18.9069 32.8572 18.334 32.4286C18.0475 32.1429 17.9043 31.8572 17.9043 31.4286V10.1429C17.9043 9.71432 18.0475 9.42861 18.334 9.14289C18.9069 8.71432 19.6231 8.71432 20.196 9.14289C20.4825 9.42861 20.6257 9.71432 20.6257 10.1429V31.4286ZM43.543 31.4286C43.543 31.8572 43.3998 32.1429 43.1133 32.4286C42.5404 32.8572 41.8242 32.8572 41.2513 32.4286C40.9648 32.1429 40.8216 31.8572 40.8216 31.4286V16.8572C40.8216 16 40.6784 15.2857 40.3919 14.5715C39.819 13.1429 38.6731 12.1429 37.2408 11.4286C35.8084 10.8572 34.0896 10.8572 32.6573 11.4286C31.225 12 30.0791 13.1429 29.5062 14.5715C29.2197 15.2857 29.0765 16.1429 29.0765 16.8572V31.4286C29.0765 31.8572 28.9332 32.1429 28.6468 32.4286C28.0738 32.8572 27.3577 32.8572 26.7847 32.4286C26.4983 32.1429 26.355 31.8572 26.355 31.4286V16.8572C26.355 15.7143 26.6415 14.5715 27.0712 13.5715C27.5009 12.5715 28.0738 11.7143 28.9332 10.8572C29.6494 10.1429 30.652 9.42861 31.6547 9.00003C33.8032 8.14289 36.2381 8.14289 38.3866 9.00003C40.3919 9.85718 42.1107 11.4286 42.9701 13.5715C43.3998 14.5715 43.6862 15.7143 43.6862 16.8572L43.543 31.4286Z" fill="black"/>
<path fill-rule="evenodd" clip-rule="evenodd" d="M65.4578 36.2857C65.8875 35.2857 66.174 34.1429 66.174 33V16.8571C66.174 15.7143 65.8875 14.5714 65.4578 13.5714C64.5984 11.5714 63.0228 10 60.8743 9.14286C58.7259 8.28571 56.2909 8.28571 54.1424 9.14286C53.1398 9.57143 52.1371 10.1429 51.421 11C50.7048 11.7143 49.9886 12.7143 49.5589 13.7143C49.1292 14.7143 48.8428 15.8571 48.8428 17V23.8571C48.8428 25 49.1292 26.1429 49.5589 27.1429C50.4183 29.1429 51.9939 30.7143 54.1424 31.5714C55.145 32 56.4341 32.2857 57.58 32.2857C58.7259 32.2857 59.8717 32.1429 60.8743 31.7143C61.877 31.2857 62.7364 30.7143 63.5958 30V32.8571C63.5958 33.7143 63.4525 34.4286 63.1661 35.1429C62.5931 36.5714 61.4473 37.7143 60.015 38.2857C59.2988 38.5714 58.4394 38.7143 57.7232 38.7143C56.8638 38.7143 56.0044 38.5714 55.145 38.2857C54.2856 38 53.5695 37.5714 52.9965 36.8571L52.8533 36.7143V36.5714C52.7101 36.4286 52.5668 36.1429 52.2804 36.1429C52.1371 36.1429 51.8507 36 51.7074 36C51.421 36 50.9913 36.1429 50.7048 36.4286C50.2751 36.8571 50.1319 37.1429 50.1319 37.5714C50.1319 37.8571 50.1319 38.1429 50.4183 38.2857C50.848 38.8571 51.2777 39.2857 51.8507 39.7143C52.4236 40.1429 52.9965 40.4286 53.7127 40.7143C54.4289 41 55.0018 41.1429 55.718 41.2857C56.2909 41.4286 57.0071 41.4286 57.7232 41.4286C58.8691 41.4286 60.0149 41.1429 61.0176 40.7143C62.8796 39.8571 64.5984 38.2857 65.4578 36.2857V36.2857ZM63.0228 14.5714C63.3093 15.2857 63.4525 16.1429 63.4525 16.8571V23.7143C63.4525 24.5714 63.3093 25.2857 63.0228 26C62.4499 27.4286 61.304 28.5714 59.8717 29.1429C58.4394 29.7143 56.7206 29.7143 55.2883 29.1429C53.8559 28.5714 52.7101 27.4286 52.1371 26C51.8507 25.2857 51.7074 24.4286 51.7074 23.7143V16.8571C51.7074 16 51.8507 15.2857 52.1371 14.5714C52.7101 13.1429 53.8559 12 55.2883 11.4286C56.7206 10.8571 58.4394 10.8571 59.8717 11.4286C61.304 12.1429 62.4499 13.1429 63.0228 14.5714V14.5714Z" fill="black"/>
</g>
</g>
<defs>
<clipPath id="clip0_2639_21291">
<rect width="108.857" height="42.8571" fill="white"/>
</clipPath>
</defs>
</svg>
