<svg width="13" height="13" viewBox="0 0 13 13" fill="none" xmlns="http://www.w3.org/2000/svg">
<g clip-path="url(#clip0_13690_16960)">
<path d="M11.8989 3.36148L10.9401 8.63486C10.9093 8.80447 10.7616 8.92775 10.5892 8.92775H1.62884C1.45645 8.92775 1.30873 8.80447 1.27789 8.63486L0.319097 3.36148C0.263233 3.05423 0.636923 2.85844 0.857745 3.07926L3.12284 5.34436L5.83055 0.470485C5.95192 0.252026 6.26609 0.252026 6.38746 0.470485L9.09517 5.34436L11.3603 3.07926C11.5811 2.85844 11.9548 3.05423 11.8989 3.36148Z" fill="white"/>
<path d="M1.68778 10.1211H10.5308C10.7278 10.1211 10.8876 10.2808 10.8876 10.4778V11.5562C10.8876 11.7532 10.7278 11.9129 10.5308 11.9129H1.68778C1.49077 11.9129 1.33105 11.7532 1.33105 11.5562V10.4778C1.33105 10.2808 1.49077 10.1211 1.68778 10.1211Z" fill="white"/>
</g>
<defs>
<clipPath id="clip0_13690_16960">
<rect width="12.2182" height="12.2182" fill="white"/>
</clipPath>
</defs>
</svg>
