<svg width="44" height="44" viewBox="0 0 44 44" fill="none" xmlns="http://www.w3.org/2000/svg">
<path d="M10.9141 31.6146C13.5908 31.7975 16.1033 30.7107 18.702 30.2803L17.3946 28.0313C15.2398 30.7726 13.1738 33.5784 11.21 36.4595C10.6666 37.2585 11.3768 38.5847 12.3721 38.4825C14.8148 38.2323 17.2413 37.8315 19.6301 37.2558C20.3134 37.0917 20.7896 36.2766 20.569 35.6014C20.3376 34.8885 19.649 34.485 18.9145 34.6625C17.8008 34.9315 16.679 35.1656 15.5492 35.3593C14.995 35.4534 14.4382 35.5368 13.884 35.6175C13.7871 35.631 13.7979 35.6283 13.919 35.6121C13.8329 35.6229 13.7468 35.6337 13.6607 35.6444C13.5316 35.6606 13.4024 35.6767 13.2733 35.6928C12.972 35.7278 12.6707 35.7601 12.3694 35.7924L13.5316 37.8154C14.4677 36.4407 15.4281 35.0822 16.41 33.7398C16.8943 33.078 17.3866 32.4189 17.8815 31.7652C18.129 31.437 18.3792 31.1115 18.6294 30.786C18.5164 30.9313 18.6509 30.7591 18.6967 30.6999C18.7639 30.6139 18.8285 30.5305 18.8957 30.4444C19.0275 30.2749 19.1621 30.1027 19.2966 29.9332C19.657 29.4732 19.8561 28.8437 19.5064 28.303C19.1567 27.7623 18.6025 27.5821 17.9865 27.6843C16.7544 27.8887 15.5546 28.2438 14.3413 28.5371C14.0454 28.6097 13.7468 28.6769 13.4455 28.7361C13.2868 28.7684 13.128 28.798 12.9666 28.8249C12.8859 28.8384 12.8079 28.8518 12.7272 28.8626C12.5873 28.8841 12.5685 28.8868 12.6653 28.8733C12.7649 28.8599 12.7434 28.8626 12.6035 28.8787C12.5228 28.8868 12.4421 28.8948 12.364 28.9029C12.2026 28.9164 12.0439 28.9271 11.8825 28.9352C11.5597 28.9486 11.2369 28.9406 10.9141 28.9191C10.2119 28.8706 9.5367 29.5728 9.56898 30.2641C9.60396 31.0335 10.1608 31.5581 10.9141 31.6092V31.6146Z" fill="#B6B6B6"/>
<path d="M20.8974 23.7836C24.3139 23.4634 27.7088 22.9227 31.05 22.1506L29.5301 20.1761C29.0378 21.1257 28.4863 22.0403 27.881 22.92C27.5905 23.3451 27.2892 23.762 26.9798 24.1709C26.9448 24.2167 26.7323 24.4937 26.9018 24.2758C26.8292 24.37 26.7565 24.4642 26.6812 24.5556C26.509 24.7735 26.3342 24.9887 26.1566 25.2039C24.8143 26.8315 23.3643 28.3649 21.9143 29.8929C21.1449 30.7026 21.6614 32.236 22.8666 32.1903C26.4203 32.0504 29.9659 31.5877 33.4362 30.8129C34.1248 30.6596 34.5929 29.8256 34.375 29.1585C34.141 28.4375 33.4577 28.0555 32.7206 28.2196C31.892 28.4052 31.0608 28.572 30.2241 28.7227C29.8179 28.7953 29.409 28.8625 29.0001 28.9271C28.7849 28.9594 28.5697 28.9917 28.3545 29.024C28.2469 29.0401 28.1393 29.0535 28.0317 29.0697C27.7922 29.102 28.3491 29.0293 27.9375 29.0831C26.2535 29.2983 24.5614 29.4409 22.8639 29.5055C23.1813 30.2722 23.4988 31.0362 23.8162 31.8029C26.8023 28.6527 29.8394 25.4245 31.8517 21.54C32.3978 20.4854 31.4993 19.2937 30.3318 19.5654C28.7392 19.934 27.1386 20.2514 25.5245 20.5123C25.1371 20.5742 24.7497 20.6361 24.3623 20.6926C24.1686 20.7222 23.9749 20.7491 23.7812 20.776C23.3669 20.8325 23.9238 20.7571 23.6844 20.7894C23.5768 20.8029 23.4692 20.819 23.3616 20.8325C22.5411 20.9374 21.7179 21.0262 20.8947 21.1042C20.1953 21.1687 19.5147 21.6745 19.5496 22.4492C19.5792 23.1218 20.1442 23.8643 20.8947 23.7943L20.8974 23.7836Z" fill="#B6B6B6"/>
<path d="M13.467 8.20497C17.3193 8.53855 21.1716 8.87213 25.0239 9.2057L24.346 6.69849C20.3269 9.71414 16.3724 12.8105 12.4851 15.9929C12.0735 16.3292 12.0171 17.0125 12.2081 17.4618C12.4125 17.9487 12.8967 18.2903 13.4375 18.2876C17.3274 18.2769 21.2174 18.2661 25.1073 18.2553C25.8121 18.2553 26.4847 17.6393 26.4524 16.9103C26.4201 16.1812 25.8605 15.5625 25.1073 15.5652C21.2174 15.576 17.3274 15.5867 13.4375 15.5975C13.7549 16.3642 14.0723 17.1282 14.3898 17.8949C16.2729 16.3534 18.1694 14.8308 20.0821 13.3297C20.5475 12.9638 21.0129 12.6007 21.481 12.2375C21.6182 12.1299 21.7581 12.0223 21.8979 11.9147C22.1158 11.7479 21.8038 11.9873 22.0432 11.8044C22.2826 11.6215 22.5301 11.4305 22.7722 11.2421C23.7461 10.4943 24.7253 9.75449 25.7045 9.01739C26.1699 8.66767 26.5196 8.10812 26.3233 7.49746C26.1269 6.8868 25.6426 6.56398 25.0266 6.51018C21.1743 6.1766 17.322 5.84302 13.4697 5.50944C12.7676 5.44757 12.0951 6.17122 12.1247 6.85452C12.1596 7.63466 12.7165 8.13503 13.4697 8.19959L13.467 8.20497Z" fill="#B6B6B6"/>
</svg>
