<svg width="44" height="44" viewBox="0 0 44 44" fill="none" xmlns="http://www.w3.org/2000/svg">
<g filter="url(#filter0_dd_13690_16964)">
<path d="M9.59961 13.5996C9.59961 6.97219 14.9722 1.59961 21.5996 1.59961C28.227 1.59961 33.5996 6.97219 33.5996 13.5996C33.5996 20.227 28.227 25.5996 21.5996 25.5996C14.9722 25.5996 9.59961 20.227 9.59961 13.5996Z" fill="white"/>
<path d="M17.136 7.86321C16.7845 7.51174 16.2147 7.51174 15.8632 7.86321C15.5117 8.21469 15.5117 8.78453 15.8632 9.13601L20.3268 13.5996L15.8632 18.0632C15.5117 18.4147 15.5117 18.9845 15.8632 19.336C16.2147 19.6875 16.7845 19.6875 17.136 19.336L21.5996 14.8724L26.0632 19.336C26.4147 19.6875 26.9845 19.6875 27.336 19.336C27.6875 18.9845 27.6875 18.4147 27.336 18.0632L22.8724 13.5996L27.336 9.13601C27.6875 8.78453 27.6875 8.21469 27.336 7.86321C26.9845 7.51174 26.4147 7.51174 26.0632 7.86321L21.5996 12.3268L17.136 7.86321Z" fill="#0F172A"/>
</g>
<defs>
<filter id="filter0_dd_13690_16964" x="-0.00039053" y="-0.00039053" width="43.2" height="43.2" filterUnits="userSpaceOnUse" color-interpolation-filters="sRGB">
<feFlood flood-opacity="0" result="BackgroundImageFix"/>
<feColorMatrix in="SourceAlpha" type="matrix" values="0 0 0 0 0 0 0 0 0 0 0 0 0 0 0 0 0 0 127 0" result="hardAlpha"/>
<feMorphology radius="3.2" operator="erode" in="SourceAlpha" result="effect1_dropShadow_13690_16964"/>
<feOffset dy="3.2"/>
<feGaussianBlur stdDeviation="2.4"/>
<feComposite in2="hardAlpha" operator="out"/>
<feColorMatrix type="matrix" values="0 0 0 0 0 0 0 0 0 0 0 0 0 0 0 0 0 0 0.1 0"/>
<feBlend mode="normal" in2="BackgroundImageFix" result="effect1_dropShadow_13690_16964"/>
<feColorMatrix in="SourceAlpha" type="matrix" values="0 0 0 0 0 0 0 0 0 0 0 0 0 0 0 0 0 0 127 0" result="hardAlpha"/>
<feMorphology radius="2.4" operator="erode" in="SourceAlpha" result="effect2_dropShadow_13690_16964"/>
<feOffset dy="8"/>
<feGaussianBlur stdDeviation="6"/>
<feComposite in2="hardAlpha" operator="out"/>
<feColorMatrix type="matrix" values="0 0 0 0 0 0 0 0 0 0 0 0 0 0 0 0 0 0 0.1 0"/>
<feBlend mode="normal" in2="effect1_dropShadow_13690_16964" result="effect2_dropShadow_13690_16964"/>
<feBlend mode="normal" in="SourceGraphic" in2="effect2_dropShadow_13690_16964" result="shape"/>
</filter>
</defs>
</svg>
